<svg width="1440" height="680" viewBox="0 0 1440 680" fill="none" xmlns="http://www.w3.org/2000/svg">
<path d="M684.367 517.909C688.113 517.026 691.898 516.269 695.684 515.55C699.824 514.755 703.977 514.01 708.13 513.329C710.654 512.912 713.191 512.521 715.727 512.155C717.055 511.966 718.382 511.776 719.71 511.587C720.367 511.499 721.024 511.41 721.681 511.322C721.984 511.284 722.299 511.234 722.601 511.196C721.497 511.297 722.246 511.246 722.838 511.171C734.877 509.656 747.009 508.622 759.153 508.458C765.278 508.369 771.416 508.508 777.527 508.975C779.013 509.089 780.498 509.227 781.97 509.379C782.667 509.455 783.376 509.53 784.073 509.619C784.769 509.707 785.124 509.682 784.204 509.631C784.572 509.656 784.953 509.732 785.321 509.783C788.16 510.186 790.999 510.679 793.799 511.31C796.415 511.89 798.991 512.571 801.54 513.404C802.763 513.795 803.959 514.237 805.142 514.691C806.167 515.083 804.366 514.351 805.129 514.691C805.378 514.805 805.641 514.906 805.891 515.02C806.469 515.272 807.047 515.537 807.626 515.802C809.755 516.811 811.819 517.972 813.764 519.297C814.013 519.461 814.25 519.638 814.487 519.802C815.249 520.332 814.066 519.461 814.303 519.663C814.75 520.042 815.223 520.383 815.656 520.749C816.498 521.455 817.312 522.212 818.075 522.995C818.469 523.399 818.85 523.815 819.218 524.244C819.284 524.32 819.599 524.799 819.678 524.799C819.678 524.799 819.021 523.954 819.284 524.307C819.402 524.471 819.534 524.623 819.652 524.787C820.309 525.657 820.914 526.566 821.466 527.512C821.742 527.979 821.992 528.459 822.241 528.938C822.36 529.165 822.465 529.38 822.57 529.607C823.082 530.642 822.346 529.001 822.57 529.607C822.964 530.654 823.372 531.677 823.674 532.749C823.976 533.822 824.239 534.92 824.423 536.017C824.462 536.219 824.607 537.292 824.489 536.383C824.37 535.475 824.489 536.434 824.515 536.636C824.581 537.229 824.633 537.822 824.673 538.415C824.83 540.775 824.752 543.16 824.502 545.507C824.462 545.822 824.436 546.138 824.397 546.453C824.292 547.324 824.16 546.605 824.423 546.289C824.147 546.617 824.186 547.778 824.108 548.207C823.871 549.52 823.582 550.82 823.266 552.107C822.622 554.706 821.808 557.268 820.887 559.792C820.414 561.104 819.902 562.404 819.376 563.704C819.113 564.334 818.837 564.965 818.574 565.596C818.863 564.89 818.785 565.104 818.561 565.634C818.39 566.025 818.206 566.417 818.035 566.808C816.8 569.483 815.472 572.12 814.053 574.72C808.217 585.471 801.186 595.617 793.654 605.334C792.748 606.507 791.827 607.668 790.907 608.829C790.671 609.132 790.434 609.422 790.198 609.712C790.014 609.939 790.763 609.018 790.158 609.763C789.685 610.343 789.212 610.924 788.739 611.504C786.951 613.687 785.124 615.858 783.284 618.016C780.104 621.738 776.844 625.398 773.519 629.007C769.628 633.221 765.672 637.386 761.558 641.399C761.374 641.588 761.177 641.765 760.98 641.954C759.1 643.758 759.1 646.837 760.98 648.642C762.859 650.446 766.066 650.459 767.946 648.642C770.956 645.765 773.834 642.761 776.699 639.746C783.626 632.439 790.29 624.88 796.612 617.082C804.603 607.226 812.187 597.03 818.706 586.203C824.87 575.969 830.416 564.953 833.071 553.356C835.424 543.097 835.437 532.005 829.904 522.641C824.37 513.278 815.039 508.029 805.102 504.634C793.799 500.773 781.523 499.511 769.602 499.12C757.09 498.703 744.538 499.41 732.104 500.684C721.116 501.807 710.168 503.372 699.298 505.303C693.686 506.3 688.074 507.385 682.514 508.647C682.264 508.71 682.001 508.761 681.752 508.824C679.162 509.429 677.611 512.231 678.308 514.641C679.005 517.051 681.778 518.553 684.367 517.947V517.909Z" fill="#DA623D"/>
<path d="M747.85 505.151C751.438 519.625 754.566 534.339 760.073 548.296C762.597 554.719 765.672 560.599 770.036 566.038C774.859 572.07 780.393 577.521 786.439 582.43C792.708 587.541 799.503 592.361 806.995 595.68C809.413 596.753 812.305 596.336 813.737 593.976C814.986 591.932 814.395 588.576 811.963 587.503C808.98 586.178 806.127 584.613 803.367 582.884C800.305 580.979 797.703 579.124 795.337 577.282C789.488 572.726 784.02 567.653 779.236 562.063C778.934 561.71 778.645 561.356 778.342 561.003C777.37 559.855 778.881 561.71 777.961 560.536C777.501 559.956 777.054 559.363 776.607 558.769C775.609 557.419 774.662 556.031 773.795 554.593C773.072 553.394 772.415 552.17 771.81 550.92C771.468 550.214 771.14 549.495 770.811 548.788C770.207 547.476 771.153 549.646 770.601 548.296C770.43 547.879 770.246 547.463 770.075 547.046C767.276 540.194 765.146 533.09 763.214 525.985C761.098 518.237 759.284 510.426 757.339 502.628C756.722 500.142 753.777 498.665 751.28 499.321C748.638 500.016 747.219 502.653 747.837 505.139L747.85 505.151Z" fill="#DA623D"/>
<path d="M766.921 550.075C763.793 550.946 760.796 552.372 757.891 553.76C754.132 555.564 750.452 557.508 746.798 559.514C739.083 563.754 731.486 568.234 724.126 573.029C721.3 574.871 718.395 576.739 715.846 578.947C713.861 580.663 714.032 583.894 715.846 585.635C717.817 587.528 720.827 587.352 722.812 585.635C723.153 585.345 723.495 585.067 723.85 584.79C724.008 584.664 724.822 584.058 724.034 584.638C723.245 585.219 724.31 584.437 724.494 584.31C725.716 583.44 726.952 582.607 728.2 581.774C731.512 579.591 734.903 577.496 738.308 575.439C745.786 570.934 753.409 566.568 761.269 562.694C762.965 561.861 764.673 561.041 766.421 560.296C766.579 560.233 766.737 560.158 766.894 560.095C767.709 559.741 767.065 560.12 766.632 560.195C766.986 560.132 767.368 559.905 767.696 559.792C768.301 559.565 768.905 559.363 769.536 559.199C772.086 558.479 773.69 555.867 772.98 553.381C772.27 550.895 769.484 549.356 766.921 550.075Z" fill="#DA623D"/>
<path d="M54.8426 336.781C54.6455 334.432 54.6173 332.054 54.6455 329.691C54.6736 327.327 54.7863 324.809 54.9975 322.375C55.0539 321.686 55.1243 321.011 55.2088 320.322C55.251 319.998 55.2792 319.674 55.3214 319.351C55.4763 318.028 55.2088 320.082 55.3214 319.351C55.5467 317.902 55.7721 316.467 56.0678 315.046C56.6733 312.134 57.5042 309.278 58.5604 306.493C59.0392 305.227 58.2647 307.084 58.5886 306.394C58.7294 306.085 58.8702 305.775 59.011 305.466C59.3208 304.805 59.6447 304.157 59.9968 303.524C60.3489 302.891 60.715 302.286 61.1093 301.681C61.2924 301.4 61.4755 301.133 61.6726 300.851C61.7853 300.697 61.8979 300.542 62.0106 300.387C62.419 299.796 61.8275 300.711 61.7008 300.781C62.1796 300.528 62.6866 299.599 63.0809 299.191C63.5597 298.685 64.0666 298.207 64.6018 297.742C64.7426 297.616 64.8975 297.503 65.0242 297.377C65.5735 296.87 64.6299 297.658 64.6159 297.686C64.644 297.545 65.32 297.18 65.4186 297.123C66.01 296.729 66.6156 296.364 67.2493 296.04C67.4042 295.956 68.221 295.674 68.2914 295.534C68.1365 295.857 67.1084 295.984 68.2491 295.576C68.9673 295.323 69.6855 295.098 70.4178 294.929C70.8262 294.83 71.2346 294.76 71.643 294.676C71.7979 294.647 71.9669 294.633 72.1218 294.605C72.7978 294.45 70.9811 294.676 71.6852 294.661C72.5302 294.661 73.3751 294.521 74.2342 294.521C75.1214 294.521 76.0086 294.591 76.8958 294.633C77.9942 294.69 75.7551 294.408 76.6141 294.591C76.938 294.661 77.2619 294.704 77.5858 294.774C78.1773 294.901 78.7687 295.055 79.3461 295.252C79.6137 295.337 79.8812 295.435 80.1488 295.534C81.3036 295.942 79.4024 295.154 79.9939 295.463C81.0782 296.04 82.1063 296.603 83.1202 297.292C84.1341 297.982 82.5006 296.744 83.0357 297.208C83.2469 297.405 83.4863 297.574 83.6976 297.771C84.1764 298.193 84.627 298.615 85.0777 299.065C85.5283 299.515 85.9649 300.007 86.3873 300.5C86.5845 300.739 86.7816 300.978 86.9788 301.217C87.4998 301.822 86.2465 300.19 86.9788 301.217C87.7815 302.357 88.556 303.496 89.2602 304.706C89.9924 305.972 90.6684 307.266 91.288 308.589C91.457 308.955 91.626 309.32 91.795 309.686C91.8795 309.883 92.3865 311.037 92.0203 310.178C91.6682 309.363 92.133 310.46 92.2315 310.685C92.3865 311.065 92.5414 311.459 92.6822 311.853C95.034 318.014 96.5971 324.472 97.7941 330.943C98.1039 332.603 98.3856 334.263 98.6391 335.937C98.7658 336.767 98.8926 337.597 99.0052 338.427C99.1038 339.102 99.2165 339.496 99.0052 338.511C99.0897 338.933 99.1179 339.384 99.1742 339.82C99.5685 342.985 99.8924 346.164 100.16 349.344C100.822 357.334 100.892 365.297 101.047 373.302C101.047 373.428 101.047 373.555 101.047 373.681C100.991 375.904 102.723 378.268 104.92 378.774C107.117 379.28 109.863 378.507 110.877 376.354C111.834 374.329 112.947 372.373 114.073 370.446C115.27 368.42 116.538 366.422 117.876 364.481C118.65 363.355 119.453 362.258 120.27 361.161C120.298 361.119 120.551 360.711 120.636 360.683C120.678 360.669 119.918 361.583 120.284 361.147C120.509 360.865 120.734 360.584 120.96 360.303C121.453 359.698 121.946 359.093 122.453 358.488C124.41 356.195 126.494 354.014 128.761 352.031C129.297 351.567 129.832 351.116 130.381 350.666C130.55 350.525 130.719 350.399 130.888 350.258C130.916 350.244 129.987 350.919 130.465 350.582C130.817 350.329 131.155 350.061 131.508 349.822C132.719 348.95 133.986 348.148 135.296 347.445C135.901 347.121 136.521 346.812 137.126 346.516C137.126 346.516 137.633 346.235 137.704 346.263C137.746 346.263 136.634 346.685 137.169 346.488C137.563 346.347 137.943 346.178 138.338 346.038C139.718 345.545 141.126 345.208 142.562 344.912C143.731 344.673 141.619 344.969 142.562 344.912C142.872 344.884 143.196 344.856 143.506 344.828C144.308 344.772 145.097 344.758 145.9 344.786C146.28 344.8 146.66 344.828 147.026 344.856C147.195 344.856 147.35 344.898 147.519 344.912C148.139 344.926 146.871 344.856 146.928 344.828C147.477 344.631 148.857 345.194 149.42 345.334C150.223 345.545 151.012 345.799 151.786 346.08C151.969 346.15 153.04 346.601 152.35 346.291C151.66 345.982 153.04 346.629 153.265 346.741C154.983 347.599 156.602 348.626 158.166 349.752C158.292 349.836 159.025 350.413 158.518 350.019C158.039 349.639 158.644 350.118 158.701 350.174C159.222 350.596 159.743 351.018 160.264 351.44C161.334 352.326 162.376 353.227 163.39 354.169C165.221 355.885 166.925 357.714 168.516 359.642C169.065 360.303 168.094 359.079 168.601 359.74C168.742 359.937 168.896 360.134 169.037 360.331C169.361 360.781 169.685 361.231 169.995 361.695C170.586 362.582 171.136 363.482 171.657 364.411C172.178 365.339 172.53 366.225 173.009 367.112C173.29 367.632 172.91 366.872 172.882 366.816C172.98 367.069 173.079 367.323 173.178 367.59C173.375 368.096 173.544 368.603 173.713 369.123C173.966 369.939 174.191 370.755 174.389 371.585C174.487 372.021 174.586 372.457 174.656 372.908C174.727 373.287 174.853 374.849 174.755 373.372C174.881 375.088 175.008 376.776 174.91 378.507C174.896 378.872 174.867 379.224 174.839 379.59C174.825 379.773 174.727 381.194 174.769 380.307C174.811 379.491 174.698 380.758 174.642 381.011C174.558 381.475 174.473 381.939 174.36 382.404C174.008 384.007 173.544 385.583 172.98 387.13C172.868 387.454 172.727 387.792 172.614 388.115C172.53 388.326 172.431 388.551 172.347 388.762C172.347 388.762 172.797 387.778 172.544 388.298C172.164 389.072 171.826 389.874 171.431 390.647C170.713 392.068 169.924 393.461 169.08 394.812C168.235 396.162 167.39 397.4 166.46 398.652C166.235 398.962 166.01 399.257 165.784 399.552C165.587 399.82 166.474 398.68 165.826 399.496C165.334 400.101 164.855 400.706 164.348 401.297C162.672 403.266 160.898 405.151 159.039 406.952C157.701 408.246 156.307 409.499 154.884 410.708C154.448 411.074 154.011 411.426 153.561 411.778C152.73 412.453 154.856 410.793 153.983 411.454C149.73 414.69 145.984 418.98 142.534 423.046C139.084 427.112 136.098 431.079 133.507 435.51C126.691 447.144 123.1 462.577 131.747 474.282C139.38 484.622 152.73 488.758 165.207 488.096C172.516 487.702 179.529 485.86 186.162 482.821C193.696 479.374 200.075 474.071 205.849 468.218C219.171 454.699 229.029 438.268 236.323 420.851C240.421 411.06 243.801 400.847 245.885 390.436C245.984 389.916 246.096 389.395 246.181 388.875C246.632 386.16 245.477 383.065 242.491 382.389C239.942 381.813 236.478 383.163 235.999 386.075C234.76 393.517 232.493 400.861 230.014 407.965C228.803 411.426 227.494 414.858 226.071 418.235C226.48 417.25 226.015 418.361 225.86 418.727C225.663 419.191 225.466 419.642 225.254 420.106C224.846 421.034 224.409 421.977 223.987 422.891C223.086 424.804 222.156 426.718 221.199 428.603C219.143 432.584 216.932 436.481 214.538 440.279C213.284 442.263 211.989 444.204 210.637 446.132C209.947 447.102 209.243 448.073 208.539 449.03C208.229 449.438 207.919 449.86 207.609 450.268C208.088 449.634 207.553 450.338 207.482 450.422C207.271 450.69 207.06 450.971 206.835 451.238C203.751 455.121 200.427 458.821 196.878 462.282C195.202 463.928 193.484 465.531 191.682 467.037C191.33 467.332 190.964 467.613 190.612 467.909C190.161 468.289 190.879 467.712 190.907 467.684C190.696 467.838 190.499 467.993 190.288 468.148C189.569 468.683 188.823 469.203 188.077 469.695C186.612 470.666 185.091 471.581 183.528 472.397C182.768 472.804 181.979 473.184 181.205 473.55C180.81 473.733 180.416 473.888 180.036 474.085C179.501 474.338 180.444 473.916 180.458 473.916C180.233 474 180.008 474.099 179.782 474.197C176.712 475.421 173.515 476.364 170.248 476.969C169.474 477.109 168.657 477.32 167.868 477.363C168.826 477.32 168.502 477.278 167.756 477.363C167.361 477.405 166.967 477.447 166.573 477.475C165.024 477.602 163.475 477.658 161.926 477.63C160.377 477.602 158.926 477.475 157.433 477.32C158.644 477.517 156.504 477.222 157.433 477.32C157.067 477.264 156.715 477.208 156.349 477.137C155.645 477.011 154.941 476.856 154.237 476.687C152.871 476.35 151.519 475.956 150.209 475.463C149.885 475.351 149.575 475.21 149.251 475.083C149.097 475.027 150.308 475.576 149.308 475.098C148.702 474.802 148.097 474.521 147.491 474.211C146.322 473.592 145.224 472.889 144.154 472.129C143.224 471.468 144.351 472.312 144.238 472.2C144.013 471.974 143.745 471.792 143.506 471.581C143.027 471.159 142.562 470.722 142.112 470.272C141.661 469.822 141.253 469.344 140.83 468.865C140.112 468.064 140.985 469.133 140.901 468.978C140.717 468.668 140.478 468.401 140.267 468.106C139.549 467.051 139.056 465.897 138.422 464.8C138.267 464.533 138.873 465.996 138.535 465.053C138.422 464.744 138.309 464.448 138.197 464.139C137.971 463.477 137.774 462.802 137.619 462.113C137.563 461.86 137.112 460.411 137.267 460.284C137.141 460.397 137.422 461.733 137.295 460.382C137.253 459.989 137.225 459.581 137.211 459.187C137.141 457.71 137.31 456.275 137.366 454.797C137.366 454.474 137.169 455.951 137.366 454.882C137.436 454.488 137.493 454.094 137.577 453.714C137.746 452.842 137.943 451.984 138.183 451.14C138.394 450.366 138.633 449.592 138.887 448.833C139.028 448.411 139.182 447.989 139.337 447.566C139.408 447.384 139.478 447.201 139.549 447.018C139.605 446.877 140.042 445.822 139.732 446.54C139.464 447.173 139.957 446.033 140.041 445.864C140.239 445.414 140.45 444.978 140.675 444.542C141.154 443.557 141.675 442.586 142.21 441.644C143.309 439.702 144.506 437.831 145.787 436.003C146.435 435.088 147.097 434.188 147.773 433.302C147.308 433.921 148.322 432.626 148.449 432.457C148.913 431.881 149.392 431.304 149.871 430.741C151.674 428.617 153.547 426.563 155.49 424.565C156.462 423.566 157.461 422.582 158.461 421.611C158.785 421.302 159.123 421.006 159.419 420.697C159.518 420.598 160.179 419.768 159.616 420.415C158.842 421.316 159.306 420.57 159.377 420.57C159.94 420.57 161.743 418.727 162.32 418.249C163.742 417.067 165.122 415.815 166.446 414.535C175.839 405.475 183.627 394.024 185.274 380.842C186.26 372.894 184.218 364.762 180.106 357.925C177.515 353.606 174.149 349.71 170.446 346.305C166.967 343.112 163.179 339.96 158.954 337.794C152.335 334.389 144.886 333.278 137.633 335.205C131.17 336.922 125.466 340.762 120.58 345.222C113.172 351.974 107.187 360.584 102.568 369.447C102.301 369.967 102.019 370.488 101.779 371.023L111.623 373.681C111.806 366.563 111.482 359.416 110.975 352.326C109.99 338.54 108.229 324.401 103.681 311.276C99.7375 299.909 92.5695 286.53 79.4447 284.406C71.5303 283.126 63.6582 284.842 57.4479 290.005C52.2796 294.296 49.1392 300.739 47.1959 307.041C44.3512 316.284 43.5344 326.596 44.2385 336.232C44.2385 336.415 44.2667 336.598 44.2808 336.767C44.5202 339.51 46.534 342.183 49.5617 342.042C52.2233 341.93 55.0961 339.707 54.8426 336.767V336.781Z" fill="#DA623D"/>
<path d="M1305.88 182.07C1304.71 182.317 1303.53 182.55 1302.35 182.741C1302.1 182.782 1301.85 182.81 1301.6 182.851C1300.75 182.974 1302.4 182.769 1301.55 182.851C1300.9 182.919 1300.26 182.974 1299.61 183.015C1298.58 183.084 1297.55 183.111 1296.54 183.084C1296 183.084 1295.46 183.043 1294.93 183.001C1294.63 182.974 1294.31 182.933 1294.02 182.919C1293.23 182.864 1294.84 183.125 1294.09 182.919C1293.07 182.645 1292.03 182.522 1291.03 182.221C1290.53 182.07 1290.05 181.906 1289.55 181.728C1290.59 182.098 1289.08 181.509 1288.77 181.358C1287.8 180.879 1286.88 180.317 1285.98 179.728C1285.94 179.701 1285.31 179.235 1285.76 179.578C1286.24 179.948 1285.46 179.318 1285.36 179.235C1284.84 178.811 1284.36 178.359 1283.89 177.907C1281.95 176.003 1281.02 174.702 1279.48 172.196C1277.94 169.69 1276.97 167.732 1276.17 164.979C1274.83 160.337 1275.13 155.763 1277.1 151.312C1277.36 150.723 1278.14 149.258 1278.7 148.354C1279.39 147.217 1280.15 146.108 1280.99 145.067C1280.59 145.56 1281.58 144.423 1281.71 144.273C1282.12 143.807 1282.56 143.355 1283 142.903C1283.89 142.013 1284.82 141.164 1285.79 140.356C1286.27 139.945 1286.76 139.562 1287.25 139.178C1287.97 138.63 1286.74 139.534 1287.47 139.014C1287.68 138.863 1287.91 138.699 1288.12 138.548C1289.24 137.781 1290.39 137.069 1291.55 136.371C1293.89 134.988 1296.18 133.536 1298.48 132.084C1302.84 129.318 1307.22 126.524 1311.95 124.347C1312.5 124.087 1313.07 123.84 1313.64 123.594C1312.91 123.895 1314.36 123.32 1314.57 123.251C1315.8 122.799 1317.05 122.416 1318.34 122.087C1319.45 121.813 1320.56 121.58 1321.7 121.416C1322.6 121.293 1320.96 121.485 1321.87 121.416C1322.14 121.389 1322.4 121.361 1322.67 121.348C1323.4 121.293 1324.13 121.265 1324.84 121.279C1327.65 121.279 1328.96 121.512 1331.79 122.197C1333.75 122.676 1335.65 123.265 1337.55 123.95C1338.52 124.306 1336.81 123.594 1337.72 124.018C1338.12 124.21 1338.53 124.388 1338.93 124.58C1339.77 124.99 1340.6 125.456 1341.4 125.949C1341.77 126.182 1342.11 126.456 1342.48 126.675C1342.98 126.962 1342.18 126.442 1342.16 126.428C1342.34 126.593 1342.56 126.73 1342.74 126.894C1343.48 127.497 1344.18 128.14 1344.84 128.825C1345.15 129.154 1345.45 129.496 1345.76 129.838C1346.38 130.496 1345.29 129.154 1346.06 130.208C1346.69 131.057 1347.29 131.934 1347.83 132.838C1348.35 133.687 1348.82 134.549 1349.25 135.426C1349.5 135.933 1349.74 136.439 1349.97 136.946C1349.62 136.165 1350.31 137.822 1350.41 138.069C1351.03 139.63 1351.6 141.219 1351.97 142.848C1352.11 143.492 1352.23 144.136 1352.35 144.793C1352.51 145.656 1352.25 143.697 1352.35 144.93C1352.4 145.396 1352.44 145.875 1352.47 146.341C1352.51 147.203 1352.51 148.08 1352.47 148.943C1352.44 149.394 1352.38 149.833 1352.35 150.285C1352.41 149.134 1352.34 150.339 1352.23 150.846C1352.03 151.764 1351.7 152.613 1351.43 153.517C1351.71 152.585 1351.43 153.517 1351.18 153.941C1350.91 154.434 1350.61 154.886 1350.31 155.352C1350.2 155.53 1350.07 155.694 1349.94 155.858C1350.1 155.667 1350.61 155.187 1349.94 155.804C1349.62 156.105 1349.32 156.434 1348.99 156.735C1348.76 156.94 1348.52 157.132 1348.28 157.324C1348.36 157.255 1348.9 156.899 1348.39 157.214C1347.8 157.584 1347.22 157.926 1346.61 158.241C1346.41 158.351 1344.98 158.981 1345.71 158.693C1345.14 158.912 1344.55 159.104 1343.95 159.282C1343.35 159.46 1342.77 159.611 1342.17 159.734C1341.88 159.789 1340.04 160.063 1341.01 159.953C1339.82 160.076 1338.62 160.131 1337.41 160.09C1336.91 160.076 1336.39 160.035 1335.89 160.008C1334.82 159.939 1335.61 159.981 1335.84 160.008C1335.51 159.967 1335.2 159.912 1334.88 159.844C1333.8 159.638 1332.76 159.323 1331.7 159.022C1331.49 158.967 1330.74 158.638 1331.73 159.063C1331.53 158.981 1331.33 158.899 1331.13 158.803C1330.63 158.556 1330.13 158.31 1329.66 158.022C1329.13 157.694 1328.65 157.118 1329.29 157.803C1328.93 157.42 1328.49 157.077 1328.11 156.707C1327.62 156.228 1327.16 155.749 1326.71 155.256C1326.51 155.037 1326.32 154.831 1326.14 154.612C1326.04 154.503 1325.32 153.64 1325.68 154.092C1324 152.01 1322.57 149.696 1321.39 147.327C1321.06 146.656 1320.96 146.436 1320.86 146.231C1320.6 145.628 1320.37 145.012 1320.15 144.382C1319.68 143.054 1319.29 141.712 1318.98 140.342C1318.83 139.712 1318.71 139.069 1318.61 138.439C1318.71 139.082 1318.51 137.549 1318.49 137.329C1318.36 135.837 1318.35 134.33 1318.41 132.824C1318.63 127.455 1320.22 121.991 1321.93 116.513C1323.64 111.035 1325.34 105.804 1326.57 100.326C1327.72 95.1358 1328.19 89.7538 1326.52 84.6046C1325.62 81.8519 1324.25 79.2362 1322.6 76.8259C1320.95 74.4157 1317.86 73.5255 1315.28 74.9771C1312.89 76.3192 1311.77 79.6744 1313.36 82.0026C1315.2 84.7004 1316.07 86.2479 1316.71 89.2334C1316.78 89.5484 1316.84 89.8633 1316.88 90.1783C1316.87 90.0825 1316.79 89.384 1316.84 89.9866C1316.88 90.5892 1316.92 91.2465 1316.94 91.8765C1316.94 92.4243 1316.92 92.9858 1316.88 93.5335C1316.85 93.8485 1316.82 94.1772 1316.79 94.4922C1316.68 96.0123 1316.89 93.9444 1316.77 94.8208C1315.81 100.751 1313.86 106.557 1312.06 112.282C1310.03 118.691 1308.18 125.155 1307.74 131.865C1307.3 138.576 1308.66 144.889 1311.39 150.928C1313.84 156.351 1317.62 161.994 1322.53 165.678C1326.98 169.019 1332.81 170.389 1338.39 170.347C1344.72 170.293 1351.11 168.375 1355.98 164.418C1360.24 160.939 1362.33 155.858 1362.97 150.641C1364.02 142.15 1360.74 132.824 1355.86 125.826C1350.37 117.965 1341.98 113.679 1332.48 111.802C1326.32 110.584 1319.96 110.803 1313.94 112.597C1308.25 114.295 1302.99 117.089 1297.99 120.129C1293 123.169 1287.94 126.127 1283.15 129.373C1277.97 132.879 1273.39 137.097 1269.99 142.273C1266.6 147.45 1264.38 153.955 1264.62 160.268C1264.87 166.979 1267.47 173.401 1271.24 179.003C1274.45 183.782 1278.68 188.205 1284.13 190.629C1289.12 192.848 1294.56 193.683 1300.05 193.273C1302.94 193.053 1305.84 192.601 1308.68 191.999C1311.52 191.396 1313.16 188.26 1312.42 185.686C1311.62 182.892 1308.66 181.495 1305.84 182.098L1305.88 182.07Z" fill="#DA623D"/>
<path d="M788.219 200.033C777.339 191.025 764.318 184.418 751.446 178.46C736.318 171.459 720.68 165.327 704.73 160.27C697.536 157.994 690.26 155.924 682.853 154.438C679.692 153.806 676.038 155.323 675.264 158.579C674.557 161.55 676.203 165.185 679.577 165.864C693.569 168.678 707.215 173.308 720.499 178.334C722.343 179.029 724.186 179.74 726.013 180.467C726.935 180.831 727.857 181.194 728.779 181.574C728.927 181.637 729.865 182.016 728.96 181.653C729.602 181.921 730.244 182.174 730.886 182.443C734.623 183.992 738.343 185.588 742.03 187.263C748.993 190.408 755.874 193.759 762.557 197.457C765.865 199.29 769.125 201.202 772.285 203.241C773.767 204.205 775.232 205.185 776.647 206.212C776.73 206.276 777.849 207.097 777.026 206.481C776.203 205.865 777.553 206.892 777.684 206.987C778.293 207.461 778.886 207.935 779.479 208.425C781.997 210.511 785.734 210.811 788.203 208.425C790.425 206.291 790.738 202.151 788.203 200.049L788.219 200.033Z" fill="#DA623D"/>
<path d="M726.787 216.438C739.528 199.938 751.989 183.233 764.549 166.607C775.989 151.451 788.022 136.737 798.014 120.649C805.684 108.29 812.828 94.9511 814.771 80.5219C816.384 68.4475 812.68 57.1159 804.746 47.7283C800.252 42.4023 794.557 38.0561 788.68 34.2315C785.454 32.1295 782.195 30.2172 778.606 28.7791C776.302 27.8466 773.948 27.0248 771.544 26.3294C759.182 22.7419 745.602 22.9473 734.277 29.427C727.001 33.5835 721.256 39.8104 716.795 46.6536C712.334 53.4968 708.779 61.2566 707.511 69.2693C706.376 76.397 706.771 83.6827 709.635 90.4153C712.499 97.1479 717.339 103.201 723.396 107.831C731.018 113.647 739.857 117.693 749.059 120.696C756.878 123.256 765.404 124.884 773.684 124.252C786.787 123.256 797.997 116.903 805.158 106.314C806.474 104.386 807.577 102.332 808.549 100.23C809.882 97.3059 809.437 93.8606 806.326 92.1221C803.709 90.6523 799.232 91.3003 797.882 94.2557C796.944 96.3102 795.857 98.3016 794.59 100.198C794.293 100.641 793.981 101.083 793.668 101.51C793.388 101.889 792.417 103.596 793.306 102.016C792.746 102.995 791.643 103.912 790.837 104.718C790.03 105.524 789.191 106.235 788.318 106.946C788.203 107.041 787.199 107.8 788.038 107.183C788.878 106.567 787.841 107.31 787.725 107.389C787.182 107.752 786.656 108.1 786.096 108.448C785.009 109.096 783.89 109.681 782.738 110.202C782.425 110.344 782.112 110.471 781.8 110.613C781.948 110.55 783.133 110.123 782.112 110.471C781.372 110.724 780.647 110.992 779.89 111.214C778.54 111.609 777.174 111.925 775.775 112.162C775.199 112.257 773.717 112.399 775.1 112.272C774.129 112.351 773.158 112.446 772.186 112.494C770.639 112.557 769.075 112.541 767.528 112.446C766.606 112.399 765.701 112.304 764.779 112.209C764.549 112.193 763.577 112.051 764.713 112.209C764.137 112.13 763.544 112.035 762.968 111.941C754.507 110.502 746.392 107.579 738.968 103.643C737.306 102.758 735.66 101.81 734.079 100.783C733.372 100.324 732.664 99.8346 731.972 99.3446C731.1 98.7283 733.042 100.214 731.676 99.1076C731.248 98.7757 730.82 98.4438 730.409 98.0961C729.207 97.1004 728.038 96.0258 726.952 94.9037C726.359 94.3031 725.816 93.6709 725.256 93.0546C725.092 92.8649 724.549 92.1695 725.289 93.1178C724.993 92.7385 724.697 92.3434 724.417 91.9483C723.528 90.7314 722.738 89.4512 722.03 88.1395C721.701 87.5231 721.388 86.891 721.108 86.2588C721.668 87.4915 721.223 86.5117 721.108 86.1798C720.96 85.7531 720.779 85.3263 720.631 84.8838C720.153 83.5089 719.791 82.0865 719.528 80.6641C719.479 80.3638 719.429 80.0478 719.38 79.7475C719.627 81.0592 719.446 80.2532 719.413 79.9371C719.33 79.0047 719.248 78.0722 719.232 77.124C719.199 75.67 719.265 74.2318 719.396 72.7936C719.429 72.4618 719.462 72.1457 719.511 71.8138C719.33 73.2994 719.561 71.6241 719.594 71.4029C719.742 70.5653 719.923 69.7276 720.137 68.89C720.516 67.3254 720.993 65.7766 721.536 64.2594C721.849 63.3744 722.195 62.5051 722.557 61.6359C723.001 60.5454 722.738 61.225 722.623 61.4621C722.869 60.9247 723.116 60.3874 723.38 59.8658C725.256 56.0096 727.528 52.3747 730.096 48.9136C730.162 48.8345 730.804 48.0127 730.277 48.6607C730.524 48.3446 730.787 48.0443 731.051 47.7441C731.676 47.0171 732.335 46.2901 733.009 45.5947C734.277 44.2988 735.61 43.066 737.026 41.9439C737.289 41.7227 737.569 41.5172 737.849 41.3118C736.861 42.0546 737.783 41.375 738.046 41.2011C738.672 40.7902 739.281 40.3793 739.923 40C741.273 39.194 742.688 38.4986 744.137 37.8349C745.487 37.2185 743.265 38.0561 744.137 37.8349C744.499 37.74 744.845 37.5662 745.207 37.4556C745.832 37.2343 746.474 37.0446 747.133 36.8708C748.532 36.4757 749.981 36.3018 751.396 35.97C752.302 35.7487 749.816 36.1122 751.248 35.9858C751.528 35.9542 751.808 35.9225 752.104 35.9067C752.812 35.8435 753.503 35.7961 754.211 35.7803C755.594 35.7329 756.993 35.7645 758.376 35.8435C758.985 35.8751 759.61 35.9542 760.219 36.0016C761.734 36.128 759.034 35.7961 760.795 36.0806C762.112 36.286 763.429 36.5231 764.73 36.8234C767.149 37.3765 769.536 38.0719 771.874 38.8937C772.944 39.273 773.981 39.6681 775.034 40.079C775.923 40.4267 773.8 39.4469 775.133 40.1265C776.137 40.6322 777.108 41.1853 778.063 41.7543C781.108 43.5402 784.088 45.4367 786.919 47.5228C785.898 46.7642 787.808 48.234 788.088 48.4552C788.598 48.8662 789.108 49.2771 789.602 49.7038C790.804 50.7152 791.956 51.7741 793.059 52.8646C794.046 53.8445 794.985 54.8875 795.907 55.9306C796.153 56.1993 796.795 57.0211 795.89 55.8832C796.055 56.1045 796.236 56.3257 796.4 56.547C796.861 57.1475 797.306 57.7481 797.717 58.3803C798.425 59.4233 799.084 60.498 799.676 61.5885C799.956 62.0942 800.203 62.6158 800.466 63.1373C800.647 63.485 800.993 64.4016 800.4 62.9319C800.549 63.2795 800.697 63.6272 800.828 63.9907C801.602 65.9821 802.754 68.7004 802.672 70.8497C802.738 68.9848 802.672 71.0394 802.721 71.5135C802.771 72.0825 802.804 72.6514 802.837 73.2204C802.886 74.5163 802.87 75.8122 802.787 77.1082C802.754 77.7087 802.705 78.2935 802.639 78.8941C802.606 79.2259 802.54 79.5578 802.524 79.9055C802.458 80.7905 802.787 78.3883 802.54 79.7475C802.293 81.1066 802.03 82.5132 801.701 83.8882C801.026 86.6855 800.137 89.4512 799.1 92.1537C798.573 93.5287 798.014 94.9037 797.421 96.247C797.981 94.9669 797.289 96.5315 797.207 96.6895C797.059 97.0056 796.911 97.3217 796.763 97.6378C796.384 98.428 796.005 99.234 795.61 100.024C793.931 103.406 792.104 106.709 790.195 109.965C785.981 117.124 781.355 124.062 776.565 130.874C771.347 138.302 765.47 145.351 759.972 152.589C748.351 167.871 736.894 183.281 725.256 198.547C722.228 202.53 719.182 206.497 716.121 210.464C714.129 213.04 715.676 217.086 718.343 218.571C721.487 220.341 724.795 219.03 726.787 216.438Z" fill="#DA623D"/>
<path d="M1173.55 513.142C1174.5 529.83 1180.32 546.761 1193.59 557.657C1199.42 562.449 1206.27 565.786 1213.59 567.579C1224.23 570.182 1235.42 569.194 1245.94 566.52C1255.21 564.163 1264.16 560.278 1272.66 555.941C1281.16 551.604 1288.89 546.875 1296.35 541.307C1311.21 530.185 1323.9 516.516 1333.92 500.906C1343.94 485.296 1352.91 467.014 1349.82 448.054C1348.32 438.899 1344.44 429.694 1338.47 422.53C1333.23 416.228 1326.04 411.862 1318.33 409.256C1310.16 406.495 1301.43 405.273 1292.81 406.145C1284.19 407.017 1276.35 410.152 1269.6 415.519C1254.98 427.127 1245.73 447.096 1249.49 465.822C1251.39 475.289 1255.96 483.874 1262.38 491.051C1268.39 497.77 1276.04 503.497 1284.64 506.434C1301.83 512.283 1320.98 507.703 1334.29 495.567C1337.51 492.64 1340.15 489.285 1342.47 485.618L1334.56 481.774C1326.45 495.046 1317.72 507.943 1309.65 521.235C1305.49 528.095 1301.54 535.079 1297.81 542.187C1295.46 546.657 1293.4 551.241 1291.8 556.042C1288.84 564.973 1287.22 574.619 1288.95 583.971C1290.72 593.56 1295.6 602.033 1302.95 608.455C1313.79 617.921 1328.23 622.483 1342.13 625.051C1344.39 625.472 1346.93 623.895 1347.26 621.539C1347.59 619.182 1346.16 616.867 1343.74 616.416C1336.86 615.133 1330.5 613.495 1324.74 611.194C1322.08 610.126 1319.46 608.924 1316.95 607.539C1315.84 606.926 1314.76 606.26 1313.68 605.594C1312.71 604.996 1314.45 606.131 1313.51 605.491C1313.23 605.308 1312.97 605.116 1312.69 604.934C1312.17 604.562 1311.64 604.178 1311.13 603.785C1309.26 602.364 1307.5 600.809 1305.87 599.1C1305.68 598.884 1305.48 598.657 1305.28 598.453C1306.01 599.185 1305.61 598.837 1305.45 598.639C1305.08 598.201 1304.7 597.762 1304.35 597.314C1303.65 596.434 1302.99 595.524 1302.36 594.597C1301.8 593.754 1301.28 592.895 1300.8 592.019C1300.67 591.78 1300.55 591.542 1300.42 591.305C1300.47 591.385 1300.87 592.246 1300.57 591.583C1300.32 591.012 1300.03 590.446 1299.79 589.877C1298.99 587.988 1298.38 586.052 1297.88 584.065C1297.58 582.877 1298.01 584.84 1297.79 583.618C1297.7 583.089 1297.59 582.569 1297.51 582.041C1297.35 580.975 1297.23 579.916 1297.15 578.842C1297.07 577.85 1297.03 576.854 1297.03 575.852C1297.03 575.4 1297.03 574.936 1297.05 574.485C1297.05 574.212 1297.07 573.929 1297.07 573.656C1297.08 572.753 1296.99 574.725 1297.08 573.586C1297.43 569.231 1298.21 564.958 1299.47 560.76C1299.64 560.184 1299.83 559.623 1300.01 559.049C1299.59 560.378 1300.13 558.714 1300.21 558.456C1300.62 557.305 1301.05 556.157 1301.51 555.028C1302.41 552.802 1303.4 550.616 1304.47 548.468C1307.89 541.624 1311.69 534.934 1315.6 528.36C1324.2 513.891 1333.7 499.983 1342.48 485.62C1343.68 483.652 1342.49 480.631 1340.45 479.75C1338.07 478.722 1335.89 479.687 1334.58 481.776C1334.42 482.01 1334.29 482.235 1334.14 482.469C1334.18 482.406 1334.48 481.95 1334.19 482.371C1333.91 482.761 1333.64 483.15 1333.36 483.54C1332.72 484.41 1332.04 485.259 1331.33 486.079C1330.71 486.797 1330.06 487.488 1329.4 488.162C1329.12 488.456 1328.83 488.735 1328.54 489.014C1328.35 489.205 1328.15 489.382 1327.95 489.571C1327.37 490.118 1328.1 489.457 1327.73 489.769C1326.25 491.042 1324.71 492.22 1323.09 493.3C1322.31 493.822 1321.51 494.315 1320.7 494.785C1320.3 495.02 1319.89 495.253 1319.48 495.474C1319.3 495.573 1319.12 495.658 1318.95 495.757C1319.65 495.387 1318.83 495.806 1318.7 495.877C1316.95 496.72 1315.16 497.457 1313.33 498.08C1312.45 498.381 1311.55 498.655 1310.64 498.903C1310.13 499.045 1309.62 499.176 1309.09 499.304C1309.04 499.319 1308.41 499.463 1308.87 499.358C1309.38 499.25 1308.22 499.488 1308.25 499.481C1306.35 499.843 1304.44 500.093 1302.52 500.223C1301.58 500.288 1300.66 500.318 1299.73 500.324C1299.27 500.32 1298.8 500.306 1298.34 500.303C1298.17 500.307 1297.46 500.259 1298.33 500.3C1298.07 500.288 1297.8 500.273 1297.54 500.249C1295.55 500.104 1293.58 499.808 1291.63 499.385C1290.71 499.179 1289.81 498.952 1288.92 498.69C1288.65 498.615 1287.77 498.321 1288.51 498.578C1287.94 498.388 1287.37 498.175 1286.81 497.964C1284.95 497.234 1283.14 496.362 1281.39 495.381C1280.52 494.896 1279.66 494.367 1278.82 493.84C1278.72 493.775 1278.12 493.376 1278.69 493.757C1278.51 493.64 1278.33 493.511 1278.15 493.394C1277.67 493.067 1277.2 492.729 1276.74 492.381C1275.04 491.123 1273.42 489.773 1271.89 488.32C1270.15 486.698 1269.04 485.502 1267.83 484.038C1266.48 482.404 1265.23 480.693 1264.09 478.909C1263.54 478.054 1263.02 477.172 1262.52 476.292C1262.26 475.852 1262.03 475.402 1261.79 474.953C1262.08 475.519 1261.43 474.195 1261.35 474.001C1260.43 472.044 1259.65 470.028 1259.03 467.957C1258.74 466.998 1258.48 466.032 1258.25 465.061C1258.4 465.732 1258.15 464.47 1258.11 464.284C1258.01 463.718 1257.93 463.165 1257.84 462.59C1257.56 460.524 1257.46 458.444 1257.51 456.369C1257.52 456.073 1257.53 455.788 1257.54 455.493C1257.54 455.588 1257.5 456.105 1257.54 455.576C1257.58 455.047 1257.61 454.553 1257.67 454.051C1257.78 452.963 1257.93 451.884 1258.11 450.798C1258.48 448.638 1259 446.509 1259.67 444.417C1259.82 443.909 1259.67 444.417 1259.64 444.495C1259.74 444.216 1259.83 443.946 1259.93 443.667C1260.1 443.187 1260.28 442.709 1260.47 442.231C1260.87 441.21 1261.31 440.208 1261.77 439.209C1262.68 437.293 1263.71 435.424 1264.84 433.633C1264.89 433.559 1265.39 432.795 1265.12 433.186C1264.89 433.536 1265.3 432.934 1265.3 432.934C1265.6 432.512 1265.89 432.09 1266.19 431.682C1266.84 430.803 1267.52 429.928 1268.22 429.094C1269.63 427.415 1271.16 425.829 1272.76 424.34C1272.76 424.34 1273.3 423.858 1272.99 424.133C1272.65 424.438 1273.33 423.85 1273.4 423.792C1273.79 423.461 1274.19 423.141 1274.58 422.821C1275.43 422.146 1276.32 421.489 1277.22 420.871C1278.07 420.291 1278.92 419.747 1279.8 419.218C1280.24 418.955 1280.69 418.718 1281.13 418.455C1281.29 418.354 1281.87 418.068 1281.05 418.488C1281.26 418.384 1281.47 418.28 1281.68 418.188C1283.24 417.453 1284.84 416.835 1286.49 416.343C1287.36 416.077 1288.25 415.849 1289.14 415.634C1288.39 415.816 1289.16 415.638 1289.47 415.565C1290.03 415.454 1290.58 415.367 1291.13 415.279C1292.96 415.001 1294.8 414.818 1296.65 414.746C1297.55 414.712 1298.46 414.691 1299.37 414.706C1299.83 414.707 1300.29 414.722 1300.74 414.735C1300.94 414.748 1301.13 414.748 1301.33 414.761C1300.41 414.721 1301.33 414.761 1301.53 414.786C1303.44 414.916 1305.34 415.151 1307.22 415.478C1309.1 415.805 1311.1 416.248 1313 416.781C1313.44 416.911 1313.88 417.041 1314.32 417.171C1314.51 417.23 1314.69 417.288 1314.89 417.347C1314.72 417.292 1314.06 417.062 1314.89 417.347C1315.8 417.673 1316.72 417.999 1317.62 418.369C1319.32 419.068 1321 419.857 1322.61 420.742C1323.38 421.159 1324.12 421.618 1324.87 422.068C1325.62 422.517 1324.99 422.137 1324.85 422.04C1325 422.139 1325.16 422.241 1325.31 422.351C1325.75 422.66 1326.2 422.983 1326.64 423.315C1328.01 424.356 1329.31 425.481 1330.51 426.718C1330.68 426.892 1331.47 427.801 1330.83 427.026C1331.09 427.337 1331.35 427.635 1331.6 427.956C1332.25 428.756 1332.84 429.605 1333.42 430.452C1336.02 434.236 1337.56 437.145 1339.11 441.437C1339.46 442.383 1339.77 443.346 1340.05 444.317C1340.21 444.871 1340.37 445.425 1340.51 445.974C1340.56 446.187 1340.89 447.653 1340.74 446.947C1341.15 448.977 1341.44 451.02 1341.59 453.086C1341.66 454.087 1341.7 455.083 1341.71 456.087C1341.71 456.587 1341.72 457.088 1341.69 457.596C1341.69 457.881 1341.68 458.177 1341.66 458.46C1341.68 457.975 1341.68 458.272 1341.64 458.575C1341.47 460.771 1341.2 462.948 1340.76 465.106C1340.55 466.14 1340.32 467.156 1340.06 468.18C1339.92 468.691 1339.78 469.212 1339.62 469.72C1339.56 469.946 1339.5 470.16 1339.43 470.386C1339.41 470.49 1339.06 471.544 1339.19 471.152C1339.05 471.567 1338.49 473.107 1338.18 473.905C1337.75 474.993 1337.28 476.074 1336.81 477.141C1335.06 481.104 1333.13 484.974 1331.03 488.764C1326.77 496.475 1322.58 502.688 1316.91 509.649C1314.25 512.917 1311.44 516.064 1308.52 519.081C1307.05 520.595 1305.56 522.069 1304.04 523.513C1303.3 524.209 1302.57 524.906 1301.81 525.586C1301.68 525.705 1300.73 526.565 1301.19 526.15C1300.7 526.584 1300.21 527.015 1299.72 527.437C1293.28 533.004 1286.37 538.018 1279.09 542.451C1277.28 543.555 1275.44 544.63 1273.58 545.654C1272.68 546.152 1271.78 546.64 1270.88 547.127C1270.43 547.365 1269.96 547.612 1269.5 547.847C1269.42 547.892 1268.76 548.222 1269.32 547.944C1269.05 548.074 1268.79 548.215 1268.53 548.345C1264.62 550.309 1260.62 552.102 1256.57 553.753C1247.44 557.448 1238.54 560.03 1228.73 560.37C1220.66 560.654 1212.59 559.102 1205.33 555.127C1204.75 554.804 1204.18 554.483 1203.61 554.139C1203.32 553.966 1203.04 553.783 1202.75 553.61C1202.65 553.543 1202.22 553.273 1202.74 553.608C1203.34 553.993 1202.61 553.525 1202.49 553.43C1201.29 552.611 1200.13 551.728 1199.02 550.794C1197.91 549.86 1196.76 548.788 1195.69 547.708C1195.39 547.402 1195.11 547.086 1194.81 546.769C1194.23 546.16 1195.24 547.278 1194.69 546.639C1194.11 545.96 1193.55 545.283 1193.01 544.587C1191.99 543.265 1191.04 541.885 1190.17 540.459C1189.73 539.745 1189.3 539.011 1188.9 538.281C1188.77 538.042 1188.27 537.079 1188.64 537.816C1188.42 537.369 1188.2 536.923 1187.99 536.467C1186.29 532.85 1185.01 529.049 1184.07 525.169C1184.03 524.995 1183.74 523.678 1183.88 524.347C1183.77 523.827 1183.66 523.319 1183.57 522.801C1183.37 521.74 1183.19 520.669 1183.05 519.594C1182.71 517.232 1182.5 514.857 1182.37 512.486C1182.24 510.115 1179.93 508.291 1177.62 508.479C1175.3 508.667 1173.48 510.853 1173.61 513.224L1173.55 513.142Z" fill="#DA623D"/>
</svg>
