<svg width="1440" height="1012" viewBox="0 0 1440 1012" fill="none" xmlns="http://www.w3.org/2000/svg">
<rect x="733.5" y="139.5" width="385" height="87" rx="22.5" fill="#DA623D"/>
<rect x="733.5" y="139.5" width="385" height="87" rx="22.5" stroke="#DA623D" stroke-width="3"/>
<path d="M756.48 158.2H768.48V159.784H763.32V175H761.64V159.784H756.48V158.2ZM773.471 173.056L777.359 163H779.039L773.903 176.104C773.423 177.32 772.751 178.256 771.887 178.912C771.039 179.584 770.095 179.88 769.055 179.8V178.312C770.495 178.488 771.591 177.656 772.343 175.816L772.655 175.072L767.279 163H768.959L773.471 173.056ZM786.077 175.288C784.269 175.288 782.765 174.688 781.565 173.488C780.365 172.256 779.765 170.76 779.765 169C779.765 167.224 780.365 165.736 781.565 164.536C782.765 163.32 784.269 162.712 786.077 162.712C787.261 162.712 788.325 163 789.269 163.576C790.213 164.136 790.901 164.896 791.333 165.856L790.037 166.6C789.717 165.88 789.197 165.312 788.477 164.896C787.773 164.464 786.973 164.248 786.077 164.248C784.749 164.248 783.629 164.712 782.717 165.64C781.805 166.552 781.349 167.672 781.349 169C781.349 170.312 781.805 171.44 782.717 172.384C783.629 173.296 784.749 173.752 786.077 173.752C786.957 173.752 787.749 173.544 788.453 173.128C789.173 172.712 789.733 172.136 790.133 171.4L791.453 172.168C790.957 173.128 790.229 173.888 789.269 174.448C788.309 175.008 787.245 175.288 786.077 175.288ZM796.991 168.76L803.423 175H801.311L795.311 169.216V175H793.727V163H795.311V168.304L801.023 163H803.183L796.991 168.76ZM806.834 163H815.426V175H813.842V164.536H808.418V169.888C808.418 171.888 808.034 173.264 807.266 174.016C806.514 174.768 805.474 175.096 804.146 175V173.512C805.074 173.608 805.754 173.384 806.186 172.84C806.618 172.296 806.834 171.312 806.834 169.888V163ZM820.366 167.56H823.654C824.758 167.56 825.702 167.912 826.486 168.616C827.27 169.304 827.662 170.192 827.662 171.28C827.662 172.384 827.27 173.28 826.486 173.968C825.734 174.656 824.79 175 823.654 175H818.782V163H820.366V167.56ZM829.342 175V163H830.926V175H829.342ZM820.366 173.464H823.654C824.342 173.464 824.918 173.264 825.382 172.864C825.846 172.448 826.078 171.92 826.078 171.28C826.078 170.64 825.846 170.12 825.382 169.72C824.918 169.304 824.342 169.096 823.654 169.096H820.366V173.464ZM842.457 161.08H836.217V159.688H842.457V161.08ZM835.881 172.24L843.033 163H844.377V175H842.793V165.76L835.641 175H834.297V163H835.881V172.24ZM855.311 172.24L862.463 163H863.807V175H862.223V165.76L855.071 175H853.727V163H855.311V172.24ZM878.749 175.288C876.941 175.288 875.437 174.688 874.237 173.488C873.037 172.256 872.437 170.76 872.437 169C872.437 167.224 873.037 165.736 874.237 164.536C875.437 163.32 876.941 162.712 878.749 162.712C879.933 162.712 880.997 163 881.941 163.576C882.885 164.136 883.573 164.896 884.005 165.856L882.709 166.6C882.389 165.88 881.869 165.312 881.149 164.896C880.445 164.464 879.645 164.248 878.749 164.248C877.421 164.248 876.301 164.712 875.389 165.64C874.477 166.552 874.021 167.672 874.021 169C874.021 170.312 874.477 171.44 875.389 172.384C876.301 173.296 877.421 173.752 878.749 173.752C879.629 173.752 880.421 173.544 881.125 173.128C881.845 172.712 882.405 172.136 882.805 171.4L884.125 172.168C883.629 173.128 882.901 173.888 881.941 174.448C880.981 175.008 879.917 175.288 878.749 175.288ZM894.031 168.832C895.343 169.312 895.999 170.248 895.999 171.64C895.999 172.632 895.663 173.44 894.991 174.064C894.335 174.688 893.415 175 892.231 175H886.399V163H891.751C892.903 163 893.799 163.296 894.439 163.888C895.095 164.48 895.423 165.256 895.423 166.216C895.423 167.416 894.959 168.288 894.031 168.832ZM891.751 164.536H887.983V168.184H891.751C893.143 168.184 893.839 167.56 893.839 166.312C893.839 165.752 893.655 165.32 893.287 165.016C892.935 164.696 892.423 164.536 891.751 164.536ZM887.983 173.464H892.231C892.935 173.464 893.471 173.296 893.839 172.96C894.223 172.624 894.415 172.152 894.415 171.544C894.415 170.968 894.223 170.52 893.839 170.2C893.471 169.88 892.935 169.72 892.231 169.72H887.983V173.464ZM903.943 162.712C905.735 162.712 907.167 163.344 908.239 164.608C909.343 165.856 909.895 167.336 909.895 169.048C909.895 169.128 909.879 169.376 909.847 169.792H899.311C899.471 170.992 899.983 171.952 900.847 172.672C901.711 173.392 902.791 173.752 904.087 173.752C905.911 173.752 907.199 173.072 907.951 171.712L909.343 172.528C908.815 173.392 908.087 174.072 907.159 174.568C906.247 175.048 905.215 175.288 904.063 175.288C902.175 175.288 900.639 174.696 899.455 173.512C898.271 172.328 897.679 170.824 897.679 169C897.679 167.192 898.263 165.696 899.431 164.512C900.599 163.312 902.103 162.712 903.943 162.712ZM903.943 164.248C902.695 164.248 901.647 164.616 900.799 165.352C899.967 166.088 899.471 167.056 899.311 168.256H908.263C908.087 166.976 907.599 165.992 906.799 165.304C905.967 164.6 905.015 164.248 903.943 164.248ZM910.506 163H920.586V164.536H916.338V175H914.754V164.536H910.506V163ZM923.037 163H931.629V175H930.045V164.536H924.621V169.888C924.621 171.888 924.237 173.264 923.469 174.016C922.717 174.768 921.677 175.096 920.349 175V173.512C921.277 173.608 921.957 173.384 922.389 172.84C922.821 172.296 923.037 171.312 923.037 169.888V163ZM936.569 167.56H939.857C940.961 167.56 941.905 167.912 942.689 168.616C943.473 169.304 943.865 170.192 943.865 171.28C943.865 172.384 943.473 173.28 942.689 173.968C941.937 174.656 940.993 175 939.857 175H934.985V163H936.569V167.56ZM945.545 175V163H947.129V175H945.545ZM936.569 173.464H939.857C940.545 173.464 941.121 173.264 941.585 172.864C942.049 172.448 942.281 171.92 942.281 171.28C942.281 170.64 942.049 170.12 941.585 169.72C941.121 169.304 940.545 169.096 939.857 169.096H936.569V173.464ZM958.66 161.08H952.42V159.688H958.66V161.08ZM952.084 172.24L959.236 163H960.58V175H958.996V165.76L951.844 175H950.5V163H952.084V172.24ZM980.01 163V173.464H981.69V178.216H980.106V175H970.314V178.216H968.73V173.464H970.194C971.01 172.376 971.418 170.864 971.418 168.928V163H980.01ZM972.114 173.464H978.426V164.536H973.002V168.928C973.002 170.784 972.706 172.296 972.114 173.464ZM993.674 173.488C992.442 174.688 990.954 175.288 989.21 175.288C987.434 175.288 985.938 174.688 984.722 173.488C983.506 172.272 982.898 170.776 982.898 169C982.898 167.224 983.506 165.736 984.722 164.536C985.938 163.32 987.434 162.712 989.21 162.712C990.97 162.712 992.458 163.32 993.674 164.536C994.906 165.736 995.522 167.224 995.522 169C995.522 170.76 994.906 172.256 993.674 173.488ZM985.85 172.384C986.762 173.296 987.882 173.752 989.21 173.752C990.538 173.752 991.658 173.296 992.57 172.384C993.482 171.44 993.938 170.312 993.938 169C993.938 167.672 993.482 166.552 992.57 165.64C991.658 164.712 990.538 164.248 989.21 164.248C987.882 164.248 986.762 164.712 985.85 165.64C984.938 166.552 984.482 167.672 984.482 169C984.482 170.312 984.938 171.44 985.85 172.384ZM1009.5 175.288C1007.79 175.288 1006.35 174.72 1005.18 173.584C1004.03 172.432 1003.45 170.944 1003.45 169.12C1003.45 167.072 1003.76 165.504 1004.36 164.416C1004.97 163.312 1006.2 162.312 1008.06 161.416C1008.65 161.144 1009.12 160.936 1009.45 160.792C1010.01 160.568 1010.45 160.376 1010.77 160.216C1012.16 159.576 1012.87 158.784 1012.88 157.84L1014.13 158.56C1014.05 158.96 1013.92 159.32 1013.75 159.64C1013.54 159.992 1013.33 160.272 1013.12 160.48C1012.93 160.688 1012.63 160.912 1012.21 161.152C1011.94 161.312 1011.61 161.488 1011.23 161.68L1010.03 162.184L1008.9 162.664C1007.8 163.144 1006.97 163.648 1006.43 164.176C1005.9 164.688 1005.52 165.36 1005.3 166.192C1005.81 165.504 1006.48 164.984 1007.32 164.632C1008.15 164.264 1008.99 164.08 1009.84 164.08C1011.44 164.08 1012.76 164.608 1013.8 165.664C1014.85 166.704 1015.38 168.04 1015.38 169.672C1015.38 171.288 1014.82 172.632 1013.7 173.704C1012.6 174.76 1011.2 175.288 1009.5 175.288ZM1006.38 172.528C1007.21 173.312 1008.25 173.704 1009.5 173.704C1010.75 173.704 1011.77 173.328 1012.57 172.576C1013.39 171.808 1013.8 170.84 1013.8 169.672C1013.8 168.488 1013.41 167.52 1012.64 166.768C1011.89 166 1010.88 165.616 1009.62 165.616C1008.48 165.616 1007.45 165.976 1006.52 166.696C1005.6 167.384 1005.13 168.328 1005.13 169.528C1005.13 170.744 1005.55 171.744 1006.38 172.528ZM1023.33 162.712C1025.13 162.712 1026.56 163.344 1027.63 164.608C1028.73 165.856 1029.29 167.336 1029.29 169.048C1029.29 169.128 1029.27 169.376 1029.24 169.792H1018.7C1018.86 170.992 1019.37 171.952 1020.24 172.672C1021.1 173.392 1022.18 173.752 1023.48 173.752C1025.3 173.752 1026.59 173.072 1027.34 171.712L1028.73 172.528C1028.21 173.392 1027.48 174.072 1026.55 174.568C1025.64 175.048 1024.61 175.288 1023.45 175.288C1021.57 175.288 1020.03 174.696 1018.85 173.512C1017.66 172.328 1017.07 170.824 1017.07 169C1017.07 167.192 1017.65 165.696 1018.82 164.512C1019.99 163.312 1021.49 162.712 1023.33 162.712ZM1023.33 164.248C1022.09 164.248 1021.04 164.616 1020.19 165.352C1019.36 166.088 1018.86 167.056 1018.7 168.256H1027.65C1027.48 166.976 1026.99 165.992 1026.19 165.304C1025.36 164.6 1024.41 164.248 1023.33 164.248ZM1032.58 163H1041.18V175H1039.59V164.536H1034.17V169.888C1034.17 171.888 1033.78 173.264 1033.02 174.016C1032.26 174.768 1031.22 175.096 1029.9 175V173.512C1030.82 173.608 1031.5 173.384 1031.94 172.84C1032.37 172.296 1032.58 171.312 1032.58 169.888V163ZM1046.12 172.24L1053.27 163H1054.61V175H1053.03V165.76L1045.88 175H1044.53V163H1046.12V172.24ZM1064.15 168.832C1065.55 169.36 1066.24 170.32 1066.24 171.712C1066.24 172.72 1065.85 173.568 1065.07 174.256C1064.31 174.944 1063.21 175.288 1061.75 175.288C1059.32 175.288 1057.74 174.328 1057 172.408L1058.35 171.616C1058.86 173.04 1059.99 173.752 1061.75 173.752C1062.67 173.752 1063.38 173.56 1063.89 173.176C1064.4 172.776 1064.66 172.256 1064.66 171.616C1064.66 171.04 1064.45 170.584 1064.03 170.248C1063.62 169.896 1063.06 169.72 1062.35 169.72H1060.6V168.184H1061.87C1062.56 168.184 1063.1 168.016 1063.48 167.68C1063.88 167.328 1064.08 166.848 1064.08 166.24C1064.08 165.664 1063.84 165.192 1063.36 164.824C1062.9 164.44 1062.28 164.248 1061.51 164.248C1060.03 164.248 1059.03 164.848 1058.51 166.048L1057.19 165.28C1057.99 163.568 1059.43 162.712 1061.51 162.712C1062.79 162.712 1063.8 163.048 1064.54 163.72C1065.29 164.376 1065.67 165.184 1065.67 166.144C1065.67 167.376 1065.16 168.272 1064.15 168.832ZM1077.14 168.232V163H1078.73V175H1077.14V169.768H1070.23V175H1068.65V163H1070.23V168.232H1077.14ZM1083.66 167.56H1086.95C1088.05 167.56 1089 167.912 1089.78 168.616C1090.57 169.304 1090.96 170.192 1090.96 171.28C1090.96 172.384 1090.57 173.28 1089.78 173.968C1089.03 174.656 1088.09 175 1086.95 175H1082.08V163H1083.66V167.56ZM1092.64 175V163H1094.22V175H1092.64ZM1083.66 173.464H1086.95C1087.64 173.464 1088.21 173.264 1088.68 172.864C1089.14 172.448 1089.37 171.92 1089.37 171.28C1089.37 170.64 1089.14 170.12 1088.68 169.72C1088.21 169.304 1087.64 169.096 1086.95 169.096H1083.66V173.464ZM761.664 206.4H760.08C758.32 202.88 757.44 199.28 757.44 195.6C757.44 191.92 758.32 188.32 760.08 184.8H761.664C759.904 188.32 759.024 191.92 759.024 195.6C759.024 199.28 759.904 202.88 761.664 206.4ZM774.375 194.352V192H775.959V204H774.375V201.648C773.271 203.408 771.655 204.288 769.527 204.288C767.815 204.288 766.351 203.68 765.135 202.464C763.935 201.248 763.335 199.76 763.335 198C763.335 196.24 763.935 194.752 765.135 193.536C766.351 192.32 767.815 191.712 769.527 191.712C771.655 191.712 773.271 192.592 774.375 194.352ZM766.287 201.384C767.199 202.296 768.319 202.752 769.647 202.752C770.975 202.752 772.095 202.296 773.007 201.384C773.919 200.44 774.375 199.312 774.375 198C774.375 196.672 773.919 195.552 773.007 194.64C772.095 193.712 770.975 193.248 769.647 193.248C768.319 193.248 767.199 193.712 766.287 194.64C765.375 195.552 764.919 196.672 764.919 198C764.919 199.312 765.375 200.44 766.287 201.384ZM785.745 191.712C787.457 191.712 788.913 192.32 790.113 193.536C791.329 194.752 791.937 196.24 791.937 198C791.937 199.76 791.329 201.248 790.113 202.464C788.913 203.68 787.457 204.288 785.745 204.288C783.617 204.288 782.001 203.408 780.897 201.648V208.8H779.313V192H780.897V194.352C782.001 192.592 783.617 191.712 785.745 191.712ZM782.265 201.384C783.177 202.296 784.297 202.752 785.625 202.752C786.953 202.752 788.073 202.296 788.985 201.384C789.897 200.44 790.353 199.312 790.353 198C790.353 196.672 789.897 195.552 788.985 194.64C788.073 193.712 786.953 193.248 785.625 193.248C784.297 193.248 783.177 193.712 782.265 194.64C781.353 195.552 780.897 196.672 780.897 198C780.897 199.312 781.353 200.44 782.265 201.384ZM799.127 197.784L803.807 204H801.911L798.167 199.056L794.423 204H792.527L797.231 197.784L792.839 192H794.735L798.167 196.536L801.599 192H803.495L799.127 197.784ZM815.438 194.352V192H817.022V204H815.438V201.648C814.334 203.408 812.718 204.288 810.59 204.288C808.878 204.288 807.414 203.68 806.198 202.464C804.998 201.248 804.398 199.76 804.398 198C804.398 196.24 804.998 194.752 806.198 193.536C807.414 192.32 808.878 191.712 810.59 191.712C812.718 191.712 814.334 192.592 815.438 194.352ZM807.35 201.384C808.262 202.296 809.382 202.752 810.71 202.752C812.038 202.752 813.158 202.296 814.07 201.384C814.982 200.44 815.438 199.312 815.438 198C815.438 196.672 814.982 195.552 814.07 194.64C813.158 193.712 812.038 193.248 810.71 193.248C809.382 193.248 808.262 193.712 807.35 194.64C806.438 195.552 805.982 196.672 805.982 198C805.982 199.312 806.438 200.44 807.35 201.384ZM821.959 201.24L829.111 192H830.455V204H828.871V194.76L821.719 204H820.375V192H821.959V201.24ZM839.997 197.832C841.389 198.36 842.085 199.32 842.085 200.712C842.085 201.72 841.693 202.568 840.909 203.256C840.157 203.944 839.053 204.288 837.597 204.288C835.165 204.288 833.581 203.328 832.845 201.408L834.189 200.616C834.701 202.04 835.837 202.752 837.597 202.752C838.509 202.752 839.221 202.56 839.733 202.176C840.245 201.776 840.501 201.256 840.501 200.616C840.501 200.04 840.293 199.584 839.877 199.248C839.461 198.896 838.901 198.72 838.197 198.72H836.445V197.184H837.717C838.405 197.184 838.941 197.016 839.325 196.68C839.725 196.328 839.925 195.848 839.925 195.24C839.925 194.664 839.685 194.192 839.205 193.824C838.741 193.44 838.125 193.248 837.357 193.248C835.869 193.248 834.869 193.848 834.357 195.048L833.037 194.28C833.837 192.568 835.277 191.712 837.357 191.712C838.637 191.712 839.645 192.048 840.381 192.72C841.133 193.376 841.509 194.184 841.509 195.144C841.509 196.376 841.005 197.272 839.997 197.832ZM854.429 192H856.253V204H854.669V194.424L850.469 201.24H850.277L846.077 194.424V204H844.493V192H846.317L850.373 198.576L854.429 192ZM860.234 206.4H858.65C860.41 202.88 861.29 199.28 861.29 195.6C861.29 191.92 860.41 188.32 858.65 184.8H860.234C861.994 188.32 862.874 191.92 862.874 195.6C862.874 199.28 861.994 202.88 860.234 206.4Z" fill="#FBF6BE"/>
<path d="M928.043 221.598L922.851 247.113M922.851 247.113C926.895 246.563 929.083 244.058 932.984 239.61M922.851 247.113C918.39 244.718 916.869 236.33 916.869 236.33" stroke="#FBF6BE" stroke-width="3" stroke-linecap="round" stroke-linejoin="round"/>
</svg>
