<svg width="180" height="70" viewBox="0 0 180 70" fill="none" xmlns="http://www.w3.org/2000/svg">
<g clip-path="url(#clip0_181_1714)">
<path d="M8.89326 0.324219V14.0445H5.28838V0.324219H0V34.583H5.28838V19.5243H8.89326V34.583H14.1816V0.324219H8.89326Z" fill="#FBF6BE"/>
<mask id="mask0_181_1714" style="mask-type:luminance" maskUnits="userSpaceOnUse" x="0" y="0" width="180" height="70">
<path d="M180 0H0V70H180V0Z" fill="white"/>
</mask>
<g mask="url(#mask0_181_1714)">
<path d="M23.2152 34.955H22.1844C17.9695 34.955 15.7249 32.6983 15.7249 28.4609V21.6008H20.9644V27.5907C20.9644 29.1572 21.4768 29.9854 22.6967 29.9854C23.9167 29.9854 24.429 29.1572 24.429 27.0385V26.2583C24.429 23.8155 24.1972 22.9452 22.2759 20.5024L18.9089 16.2651C16.6642 13.4082 16.0054 11.1995 16.0054 7.79045V6.6861C16.0054 2.11867 18.3477 0 22.5076 0H23.4897C27.8448 0 29.5283 1.89059 29.5283 5.94187V11.5596H24.429V6.63208C24.429 5.47972 24.1972 4.60345 22.9285 4.60345C21.6598 4.60345 21.3853 5.38969 21.3853 6.9982V7.6404C21.3853 9.57301 21.7574 10.6353 23.5385 12.8921L26.9116 17.1774C29.2965 20.2144 30.0468 21.9669 30.0468 25.8381V26.9425C30.0468 31.96 27.8448 34.955 23.2152 34.955Z" fill="#FBF6BE"/>
</g>
<path d="M31.5476 0.324219V34.583H43.8506V29.3794H36.8299V19.4822H42.1244V14.2786H36.8299V5.29378H43.57V0.324219H31.5476Z" fill="#FBF6BE"/>
<path d="M56.159 10.3594L57.562 23.0234H54.7988L56.159 10.3594ZM53.1153 0.324219L48.8578 34.583H53.585L54.2865 28.137H58.1231L58.8246 34.583H63.9239L59.3918 0.324219H53.1214H53.1153Z" fill="#FBF6BE"/>
<mask id="mask1_181_1714" style="mask-type:luminance" maskUnits="userSpaceOnUse" x="0" y="0" width="180" height="70">
<path d="M180 0H0V70H180V0Z" fill="white"/>
</mask>
<g mask="url(#mask1_181_1714)">
<path d="M70.0603 14.4167H71.4633C72.915 14.4167 73.3846 13.4984 73.3846 11.9739V7.18438C73.3846 5.70791 73.0553 4.97568 71.4633 4.97568H70.0603V14.4167ZM70.0603 34.583H64.772V0.324219H73.3358C76.8492 0.324219 78.6242 1.80068 78.6242 5.61788V11.6978C78.6242 14.5547 77.264 15.659 76.3308 16.0732C77.5019 16.5773 78.6242 17.5016 78.6242 19.8003V31.8221C78.6242 33.2026 78.9048 33.8508 79.1366 34.3549V34.583H73.897C73.6652 34.2169 73.3846 33.6167 73.3846 31.7741V21.4569C73.3846 19.9384 73.1041 19.2902 71.4206 19.2902H70.0603V34.577V34.583Z" fill="#FBF6BE"/>
</g>
<path d="M79.6064 0.324219V5.29378H84.0531V34.583H89.2988V5.29378H93.7454V0.324219H79.6064Z" fill="#FBF6BE"/>
<path d="M106.006 10.3594L107.409 23.0234H104.645L105.999 10.3594H106.006ZM102.962 0.324219L98.7043 34.583H103.432L104.133 28.137H107.97L108.671 34.583H113.77L109.232 0.324219H102.962Z" fill="#FBF6BE"/>
<path d="M123.933 0.324219V18.696L119.388 0.324219H114.618V34.583H119.388V14.8728L124.445 34.583H128.751V0.324219H123.933Z" fill="#FBF6BE"/>
<mask id="mask2_181_1714" style="mask-type:luminance" maskUnits="userSpaceOnUse" x="0" y="0" width="180" height="70">
<path d="M180 0H0V70H180V0Z" fill="white"/>
</mask>
<g mask="url(#mask2_181_1714)">
<path d="M136.004 29.6134H137.266C138.858 29.6134 139.328 28.7852 139.328 26.9426V7.64652C139.328 5.6659 138.816 4.97568 137.504 4.97568H136.004V29.6134ZM130.715 0.324219H138.81C143.348 0.324219 144.757 2.85702 144.757 6.90829V27.7709C144.757 31.9602 143.165 34.583 138.81 34.583H130.715V0.324219Z" fill="#FBF6BE"/>
<path d="M5.28838 64.5685H6.551C8.143 64.5685 8.61267 63.7402 8.61267 61.8977V42.6016C8.61267 40.621 8.09421 39.9308 6.78889 39.9308H5.28838V64.5685ZM0 35.2793H8.09421C12.6323 35.2793 14.0352 37.8121 14.0352 41.8634V62.7259C14.0352 66.9152 12.4432 69.5381 8.09421 69.5381H0V35.2793Z" fill="#FBF6BE"/>
</g>
<path d="M15.9141 35.2793V69.5441H28.2231V64.3404H21.2024V54.4373H26.4908V49.2337H21.2024V40.2549H27.9425V35.2793H15.9141Z" fill="#FBF6BE"/>
<mask id="mask3_181_1714" style="mask-type:luminance" maskUnits="userSpaceOnUse" x="0" y="0" width="180" height="70">
<path d="M180 0H0V70H180V0Z" fill="white"/>
</mask>
<g mask="url(#mask3_181_1714)">
<path d="M36.6463 69.9104H35.6155C31.4007 69.9104 29.156 67.6537 29.156 63.4164V56.5562H34.3956V62.5401C34.3956 64.1066 34.908 64.9348 36.1279 64.9348C37.3478 64.9348 37.8602 64.1066 37.8602 61.9879V61.2077C37.8602 58.7649 37.6284 57.8946 35.707 55.4519L32.3339 51.2145C30.0892 48.3576 29.4305 46.1489 29.4305 42.7399V41.6355C29.4305 37.0741 31.7666 34.9614 35.9327 34.9614H36.9147C41.2699 34.9614 42.9534 36.852 42.9534 40.9033V46.5211H37.8541V41.5935C37.8541 40.4411 37.6223 39.5649 36.3536 39.5649C35.0848 39.5649 34.8104 40.3511 34.8104 41.9596V42.6018C34.8104 44.5344 35.1824 45.5968 36.9635 47.8535L40.3305 52.1328C42.7155 55.1698 43.4657 56.9223 43.4657 60.7875V61.8919C43.4657 66.9095 41.2638 69.9044 36.6341 69.9044" fill="#FBF6BE"/>
</g>
<path d="M50.2669 35.2793H44.9785V69.5441H50.2669V35.2793Z" fill="#FBF6BE"/>
<mask id="mask4_181_1714" style="mask-type:luminance" maskUnits="userSpaceOnUse" x="0" y="0" width="180" height="70">
<path d="M180 0H0V70H180V0Z" fill="white"/>
</mask>
<g mask="url(#mask4_181_1714)">
<path d="M57.1473 69.9997C54.0609 69.9997 52.0907 67.2809 52.0907 63.7338V42.319C52.0907 38.4958 53.5912 34.9487 58.599 34.9487H59.6298C65.2903 34.9487 65.9491 38.5859 65.9491 42.6371V46.1362H60.801V42.271C60.801 40.7526 60.4289 39.9243 59.1175 39.9243C57.9951 39.9243 57.4828 40.7526 57.4828 42.271V62.3053C57.4828 63.9198 58.1415 64.7481 59.2151 64.7481C60.5753 64.7481 61.1791 63.8298 61.1791 62.5394V53.9747H58.7942V48.7231H66.1869V69.5376H63.192C63.1432 69.3515 62.7223 67.647 62.3015 66.1765C61.9294 67.3289 60.1483 69.9997 57.4828 69.9997H57.1534H57.1473Z" fill="#FBF6BE"/>
</g>
<path d="M77.3189 35.2793V53.6571L72.7747 35.2793H68.0048V69.5441H72.7747V49.8339L77.8313 69.5441H82.1376V35.2793H77.3189Z" fill="#FBF6BE"/>
<mask id="mask5_181_1714" style="mask-type:luminance" maskUnits="userSpaceOnUse" x="0" y="0" width="180" height="70">
<path d="M180 0H0V70H180V0Z" fill="white"/>
</mask>
<g mask="url(#mask5_181_1714)">
<path d="M95.941 69.9104H94.9102C90.6954 69.9104 88.4507 67.6537 88.4507 63.4164V56.5562H93.6903V62.5401C93.6903 64.1066 94.2026 64.9348 95.4226 64.9348C96.6425 64.9348 97.1549 64.1066 97.1549 61.9879V61.2077C97.1549 58.7649 96.9231 57.8946 95.0017 55.4519L91.6286 51.2145C89.3839 48.3576 88.7252 46.1489 88.7252 42.7399V41.6355C88.7252 37.0741 91.0674 34.9614 95.2274 34.9614H96.2094C100.558 34.9614 102.248 36.852 102.248 40.9033V46.5211H97.1488V41.5935C97.1488 40.4411 96.917 39.5649 95.6482 39.5649C94.3795 39.5649 94.105 40.3511 94.105 41.9596V42.6018C94.105 44.5344 94.4771 45.5968 96.2582 47.8535L99.6252 52.1328C102.01 55.1698 102.76 56.9223 102.76 60.7875V61.8919C102.76 66.9095 100.565 69.9044 95.9288 69.9044" fill="#FBF6BE"/>
<path d="M112.934 62.5881V54.6236H118.131V62.5461C118.131 66.2313 116.911 69.9584 111.812 69.9584H110.641C105.304 69.9584 104.139 66.1832 104.139 62.7262V41.8216C104.139 38.3225 105.682 34.9614 110.458 34.9614H111.672C117.472 34.9614 118.131 38.7366 118.131 42.0977V48.2256H112.934V42.1937C112.934 40.7232 112.465 39.937 111.153 39.937C109.842 39.937 109.512 40.6752 109.512 42.1937V62.5461C109.512 64.0646 110.025 64.8928 111.196 64.8928C112.459 64.8928 112.928 63.9745 112.928 62.5881" fill="#FBF6BE"/>
</g>
<path d="M128.702 35.2793V49.0056H125.097V35.2793H119.809V69.5441H125.097V54.4853H128.702V69.5441H133.99V35.2793H128.702Z" fill="#FBF6BE"/>
<mask id="mask6_181_1714" style="mask-type:luminance" maskUnits="userSpaceOnUse" x="0" y="0" width="180" height="70">
<path d="M180 0H0V70H180V0Z" fill="white"/>
</mask>
<g mask="url(#mask6_181_1714)">
<path d="M144.897 42.5538C144.897 40.7592 144.287 39.931 143.073 39.931C141.713 39.931 141.2 40.8073 141.2 42.5538V62.264C141.2 63.7345 141.621 64.8868 143.122 64.8868C144.524 64.8868 144.903 63.7345 144.903 62.264V42.5538H144.897ZM150.276 61.8979C150.276 66.6874 148.636 69.9584 143.536 69.9584H142.646C137.589 69.9584 135.814 66.6874 135.814 61.8979V42.8359C135.814 38.0944 137.638 34.9614 142.597 34.9614H143.488C148.636 34.9614 150.276 38.0944 150.276 42.7879V61.8979Z" fill="#FBF6BE"/>
<path d="M161.042 42.5538C161.042 40.7592 160.432 39.931 159.218 39.931C157.858 39.931 157.345 40.8073 157.345 42.5538V62.264C157.345 63.7345 157.766 64.8868 159.26 64.8868C160.663 64.8868 161.042 63.7345 161.042 62.264V42.5538ZM166.421 61.8979C166.421 66.6874 164.781 69.9584 159.681 69.9584H158.791C153.734 69.9584 151.959 66.6874 151.959 61.8979V42.8359C151.959 38.0944 153.783 34.9614 158.748 34.9614H159.639C164.787 34.9614 166.421 38.0944 166.421 42.7879V61.8979Z" fill="#FBF6BE"/>
</g>
<path d="M168.252 35.2793V69.5441H179.994V64.2444H173.54V35.2793H168.252Z" fill="#FBF6BE"/>
</g>
<defs>
<clipPath id="clip0_181_1714">
<rect width="180" height="70" fill="white"/>
</clipPath>
</defs>
</svg>
