<svg width="287" height="58" viewBox="0 0 287 58" fill="none" xmlns="http://www.w3.org/2000/svg">
<path d="M205.199 30.7909C204.762 33.8891 204.374 36.9873 204.131 40.0854C203.937 42.7028 203.646 45.3202 203.646 47.8842C203.646 49.8607 203.888 51.9439 204.762 53.7067C205.636 55.4694 207.238 56.6446 208.936 57.2322C212.577 58.5142 217.334 57.6595 219.372 53.7067C220.537 51.4097 220.78 48.2582 219.955 45.7476C219.081 43.1836 217.237 41.1538 214.712 40.5662C211.8 39.8718 208.597 40.5128 206.267 42.6494C204.665 44.0917 203.694 46.442 203.743 48.7389C203.791 50.3948 205.053 51.9973 206.655 51.9439C208.208 51.8905 209.616 50.5551 209.567 48.7389C209.567 48.5787 209.567 48.4718 209.567 48.365C209.567 47.7774 209.47 48.8992 209.519 48.7389C209.616 48.4184 209.664 48.1513 209.762 47.8308C209.907 47.4035 209.422 48.6321 209.664 48.0979C209.713 47.9377 209.81 47.8308 209.859 47.6706C209.907 47.6172 209.907 47.5637 209.956 47.5103C210.15 47.083 209.713 47.9377 209.713 47.8842C209.713 47.8308 210.004 47.5103 210.053 47.4569C210.101 47.4035 210.198 47.3501 210.247 47.2967C210.441 47.083 209.907 47.6706 209.907 47.5637C209.907 47.5103 210.295 47.2967 210.344 47.2432C210.49 47.1364 210.684 47.083 210.829 46.9762C210.829 46.9762 210.101 47.2432 210.538 47.1364C210.635 47.083 210.732 47.083 210.829 47.0296C211.024 46.9762 211.218 46.9228 211.46 46.8693C211.752 46.8159 212.383 46.8159 211.557 46.8159C212.043 46.8159 212.577 46.7091 213.062 46.7625C213.159 46.7625 213.305 46.8159 213.402 46.7625C213.45 46.7625 212.722 46.6022 213.014 46.7091C213.208 46.7625 213.402 46.8159 213.596 46.8693C213.742 46.9228 213.936 46.9762 214.081 47.0296C213.256 46.7625 213.79 46.8693 214.081 47.083C214.179 47.1364 214.227 47.1898 214.324 47.2432C214.615 47.4569 213.839 46.7091 214.033 47.0296C214.13 47.1364 214.276 47.2967 214.373 47.4035C214.664 47.724 214.179 47.1364 214.179 47.083C214.227 47.1898 214.276 47.2432 214.324 47.2967C214.421 47.4569 214.518 47.6172 214.567 47.8308C214.761 48.2582 214.421 47.5103 214.421 47.4569C214.421 47.5637 214.47 47.6706 214.518 47.724C214.567 47.9377 214.615 48.1513 214.664 48.365C214.664 48.4718 214.664 48.5787 214.712 48.6855C214.712 48.6855 214.664 47.9377 214.664 48.2582C214.664 48.5252 214.712 48.7923 214.712 49.0594C214.712 49.2731 214.664 49.5936 214.664 49.8072C214.664 49.8072 214.761 49.1128 214.712 49.4333C214.712 49.5402 214.664 49.7004 214.664 49.8072C214.615 50.0209 214.567 50.1812 214.518 50.3948C214.421 50.8756 214.615 50.1277 214.664 50.0743C214.615 50.1812 214.567 50.288 214.518 50.3948C214.47 50.5017 214.081 51.1427 214.421 50.6085C214.761 50.1277 214.421 50.6085 214.324 50.7153C214.227 50.8222 214.081 51.0358 213.984 51.0892C213.936 51.0892 214.664 50.6085 214.276 50.8222C214.179 50.8756 214.13 50.929 214.033 50.9824C213.936 51.0358 213.79 51.1427 213.693 51.1961C213.305 51.4097 214.081 50.9824 214.081 51.0358L213.887 51.1427C213.596 51.2495 213.305 51.3029 213.014 51.4097C212.722 51.4632 212.188 51.4632 213.256 51.4097C213.159 51.4097 213.014 51.4632 212.917 51.4632C212.625 51.5166 212.334 51.5166 212.043 51.4632C211.897 51.4632 211.266 51.3563 211.897 51.4632C212.48 51.57 211.897 51.4632 211.752 51.4097C211.412 51.3563 211.072 51.2495 210.781 51.1427C210.684 51.0892 210.538 51.0358 210.441 50.9824C210.101 50.8756 210.829 51.1427 210.829 51.1961C210.829 51.1961 210.684 51.1427 210.635 51.0892C210.393 50.9824 210.198 50.8222 210.004 50.6619C210.781 51.1427 210.49 51.0892 210.247 50.8222C210.15 50.7153 210.101 50.6619 210.053 50.5551C209.713 50.1812 210.49 51.3029 210.247 50.8222C210.198 50.7153 210.101 50.5551 210.053 50.4482C209.81 49.8607 210.004 50.288 210.053 50.4482C210.295 51.0892 210.101 50.5017 210.053 50.3414C209.956 50.0209 209.907 49.7004 209.859 49.4333C209.762 48.7923 209.907 50.1812 209.907 49.7004C209.907 49.5402 209.859 49.3265 209.859 49.1662C209.81 48.7389 209.81 48.365 209.81 47.9377C209.81 45.4271 210.053 42.8631 210.247 40.3525C210.344 38.9637 210.49 37.6283 210.635 36.2394C210.684 35.8655 210.732 35.545 210.781 35.1711C210.829 34.7972 210.732 35.4382 210.732 35.4382C210.781 35.2245 210.781 34.9574 210.829 34.7438C210.926 33.9959 211.024 33.2481 211.121 32.5537C211.266 31.699 211.266 30.8978 210.829 30.0965C210.49 29.4555 209.762 28.8145 209.082 28.6009C207.383 28.2269 205.442 29.0282 205.199 30.7909Z" fill="#FBF6BE"/>
<path d="M62.3974 38.4303C62.446 38.0564 62.543 37.7359 62.6401 37.362C62.6887 37.1483 62.7857 36.9346 62.8343 36.721C62.9313 36.4005 62.446 37.629 62.6886 37.0415C62.7372 36.8812 62.8343 36.7744 62.8828 36.6141C62.9313 36.5073 63.174 35.9197 63.3197 35.9197C63.3682 35.9197 62.7857 36.6141 63.0284 36.2936C63.077 36.2402 63.1255 36.1868 63.174 36.1334C63.2711 36.0265 63.3682 35.8663 63.5138 35.7595C63.6109 35.6526 64.0477 35.2787 63.6109 35.6526C63.1255 36.08 63.6594 35.5992 63.805 35.5458C63.9507 35.439 64.0963 35.3321 64.2419 35.2787C64.339 35.2253 64.3875 35.1719 64.4846 35.1719C64.8729 34.9582 63.9021 35.439 64.2419 35.2787C64.6302 35.1185 64.97 35.0116 65.3583 34.9048C65.5524 34.8514 65.7951 34.798 65.9893 34.7445C66.3776 34.6911 65.3583 34.798 65.7466 34.798C65.8922 34.798 66.0378 34.7445 66.1834 34.7445C66.6688 34.6911 67.1542 34.7445 67.6396 34.7445C68.125 34.7445 67.3484 34.6911 67.2998 34.6911C67.3969 34.7445 67.5425 34.7445 67.6396 34.7445C67.8338 34.798 68.0765 34.8514 68.2706 34.9582C68.7075 35.065 67.9794 34.798 67.9794 34.798C68.0765 34.8514 68.125 34.9048 68.2221 34.9048C68.3677 35.0116 68.5619 35.1185 68.7075 35.2253C69.2899 35.6526 68.3192 34.798 68.6589 35.1719C68.8045 35.3321 68.9987 35.4924 69.1443 35.6526C69.387 35.9197 69.4841 36.347 69.0958 35.5458C69.1928 35.706 69.2899 35.8663 69.387 36.0265C69.387 36.08 69.6297 36.5073 69.6297 36.5073C69.6297 36.5073 69.3385 35.706 69.4841 36.1334C69.5326 36.2402 69.5812 36.4005 69.5812 36.5073C69.6297 36.6675 69.6782 36.8812 69.6782 37.0415C69.6782 37.0949 69.6782 37.3085 69.7268 37.3085C69.7268 37.3085 69.6782 36.4005 69.6782 36.8812C69.6782 37.0415 69.6782 37.2551 69.6782 37.4154C69.6782 37.5222 69.6782 37.5756 69.6782 37.6825C69.6782 38.1632 69.8239 36.9346 69.7268 37.3085C69.6782 37.4688 69.6782 37.6825 69.6297 37.8427C69.5812 38.003 69.387 38.644 69.5812 38.0564C69.8239 37.4688 69.5326 38.1098 69.4841 38.2166C69.387 38.3769 69.2899 38.5905 69.1929 38.7508C69.6297 37.9495 69.387 38.4303 69.1929 38.6974C69.0958 38.8042 68.9502 38.9645 68.8531 39.0713C68.5618 39.3918 68.3192 39.7123 68.0765 40.0328C67.3484 40.9409 66.6688 41.9558 66.0864 42.9707C64.7758 45.3744 64.1934 48.2055 64.7758 50.9832C65.2612 53.2801 66.4261 55.2565 68.2221 56.5385C69.9695 57.7671 72.2023 58.0876 74.2409 57.9808C76.5708 57.8739 78.8521 57.3932 81.1334 57.0193C82.6381 56.7522 83.6089 54.6155 83.172 53.0664C82.6381 51.2503 81.1819 50.5559 79.5802 50.8229C78.5608 50.9832 77.5901 51.1969 76.5708 51.3571C75.8427 51.4639 77.2503 51.2503 76.5222 51.3571C76.3281 51.4105 76.0854 51.4105 75.8912 51.4639C75.4058 51.5174 74.969 51.5708 74.4836 51.5708C74.0467 51.5708 73.6584 51.6242 73.2216 51.5708C73.0274 51.5708 72.8333 51.5708 72.6877 51.5174C72.5906 51.5174 72.4935 51.5174 72.3964 51.4639C71.8625 51.4105 73.173 51.6242 72.6391 51.5174C72.2993 51.4639 71.9596 51.3571 71.6683 51.2503C71.5713 51.1969 71.5227 51.1969 71.4256 51.1434C70.9888 50.9832 71.8139 51.3037 71.7654 51.3037C71.6198 51.3037 71.3771 51.09 71.2315 50.9832C71.1829 50.9298 71.0859 50.8764 71.0373 50.8229C70.649 50.6093 71.3771 51.09 71.3286 51.09C71.2315 51.0366 71.0859 50.8229 70.9888 50.7161C70.9403 50.6627 70.8917 50.5559 70.8432 50.5024C70.5034 50.1285 71.2315 51.09 71.0373 50.7695C70.9402 50.6093 70.8432 50.3956 70.7461 50.2354C70.649 50.0751 70.6005 49.8614 70.5034 49.7012C70.9403 50.6093 70.6005 49.9149 70.5034 49.6478C70.4549 49.4341 70.4063 49.2204 70.3578 48.9534C70.3092 48.7931 70.3092 48.3658 70.3092 48.8999C70.3578 49.4875 70.3092 48.7397 70.3092 48.6329C70.3092 48.4726 70.4063 47.6714 70.3092 48.2055C70.2122 48.7931 70.4063 47.8316 70.4063 47.7248C70.4549 47.4577 70.5519 47.244 70.6005 47.0304C70.6976 46.7099 70.7946 46.9235 70.5034 47.2974C70.6005 47.1906 70.649 46.9769 70.6976 46.8701C70.8917 46.3894 71.1829 45.962 71.4256 45.4813C71.5713 45.2676 71.6683 45.1074 71.8139 44.8937C71.28 45.7484 71.814 44.9471 71.9596 44.7334C73.2216 43.0775 74.5807 41.7421 75.1631 39.6589C75.7941 37.4688 75.4544 35.0116 74.5321 32.9818C72.445 28.388 67.1057 27.2662 62.9799 28.8687C59.7763 30.0973 57.495 32.9284 56.864 36.6141C56.5728 38.27 57.3008 40.1396 58.9026 40.567C60.2617 41.0477 62.0576 40.193 62.3974 38.4303Z" fill="#FBF6BE"/>
<path d="M94.773 38.0566C94.8701 37.7895 95.2584 36.8814 94.8215 37.8429C94.9186 37.6293 95.0157 37.3622 95.1128 37.1485C95.2098 36.9349 95.3069 36.7212 95.4525 36.5075C95.5011 36.4007 95.5496 36.3473 95.5981 36.2404C95.6467 36.1336 95.6952 36.0802 95.7438 35.9734C95.4525 36.4007 95.3555 36.5075 95.5011 36.2939C95.6467 36.1336 95.7923 35.9734 95.9379 35.8131C95.9865 35.7597 96.0835 35.6529 96.1321 35.5994C96.5204 35.2255 95.5981 35.9734 95.9379 35.7597C96.1321 35.6529 96.2777 35.4926 96.4718 35.3858C96.5689 35.3324 97.0058 35.1187 96.5204 35.3324C96.035 35.5994 96.5689 35.3324 96.666 35.2789C96.9087 35.2255 97.1514 35.1721 97.3456 35.1187C97.928 34.9584 96.7631 35.1721 97.1514 35.1721C97.297 35.1721 97.4426 35.1721 97.5882 35.1187C97.8309 35.1187 98.1222 35.1187 98.3649 35.1187C98.559 35.1187 98.7532 35.1721 98.9473 35.1721C99.5298 35.2255 98.3163 35.0119 98.8988 35.1721C99.1415 35.2255 99.3356 35.2789 99.5783 35.3324C99.7239 35.3858 99.9181 35.4392 100.064 35.4926C100.258 35.546 100.403 35.7597 99.821 35.3858C100.015 35.546 100.258 35.6529 100.501 35.7597C100.598 35.8131 100.743 36.0268 100.84 36.0268C100.743 35.9199 100.646 35.8665 100.501 35.7597C100.598 35.8665 100.695 35.9199 100.743 36.0268C100.937 36.2404 101.132 36.4541 101.277 36.6678C101.568 36.9883 100.937 36.0268 101.229 36.6144C101.277 36.7212 101.374 36.8814 101.423 36.9883C101.471 37.0951 101.568 37.2554 101.617 37.3622C101.666 37.4156 101.666 37.469 101.714 37.5759C101.86 37.8964 101.811 37.8429 101.666 37.4156C101.86 37.5759 101.908 38.1634 101.957 38.4305C102.054 38.751 102.102 39.1249 102.151 39.4989C102.199 39.7659 102.102 39.9262 102.151 39.2852C102.151 39.392 102.199 39.5523 102.199 39.7125C102.248 40.4069 102.248 41.1548 102.248 41.8492C102.248 43.1846 102.345 44.4666 102.297 45.802C102.297 46.1225 102.248 46.4964 102.248 46.8169C102.199 47.3511 102.248 46.6033 102.297 46.5498C102.248 46.6567 102.248 46.8703 102.199 47.0306C102.151 47.2977 102.102 47.6182 102.005 47.8853C101.957 48.0455 101.908 48.2058 101.86 48.366C101.617 49.0604 102.005 48.0455 101.86 48.3126C101.714 48.5797 101.617 48.8468 101.471 49.1138C101.423 49.2207 101.326 49.3275 101.277 49.4343C100.937 50.0219 101.714 48.9536 101.229 49.4343C101.035 49.648 100.889 49.8617 100.695 50.0219C100.598 50.0753 100.161 50.4493 100.598 50.1288C101.035 49.8083 100.452 50.2356 100.355 50.289C100.161 50.3958 100.015 50.5027 99.821 50.6095C99.3356 50.93 100.403 50.3958 100.015 50.5027C99.9181 50.5561 99.7725 50.6095 99.6754 50.6629C99.4813 50.7163 99.2386 50.8232 98.9959 50.8766C98.8503 50.93 98.7532 50.93 98.6076 50.93C98.0736 51.0368 99.3356 50.8766 98.7532 50.93C97.6368 51.0368 96.5204 50.93 95.404 51.0368C95.1128 51.0903 95.9379 51.0903 95.9379 51.1437C95.9379 51.0903 95.7438 51.0903 95.6952 51.0903C95.5496 51.0368 95.404 50.9834 95.2584 50.93C95.9379 51.0368 95.8894 51.2505 95.5981 51.0903C95.5011 51.0368 95.404 50.9834 95.3069 50.93C95.1128 50.8232 94.9671 50.6629 94.773 50.5561C95.5496 51.0368 94.9671 50.7163 94.773 50.4493C94.7245 50.3958 94.6274 50.289 94.5788 50.2356C94.2876 49.9151 94.773 50.5027 94.773 50.5027C94.7245 50.3424 94.5303 49.9685 94.4332 49.8083C94.8215 50.4493 94.6274 50.3958 94.5788 50.1288C94.5303 49.9685 94.5303 49.7548 94.4818 49.648C94.7244 50.2356 94.5303 50.289 94.5303 49.9151C94.5303 49.8617 94.5788 49.4343 94.5303 49.4343C94.5788 49.4343 94.3847 50.2356 94.4818 49.648C94.5303 49.4878 94.5303 49.3275 94.5788 49.1673C94.5788 49.1138 94.7244 48.6865 94.7244 48.6865C94.773 48.7399 94.3847 49.4343 94.6759 48.9002C94.7245 48.7933 94.773 48.6865 94.8701 48.5263C94.9186 48.4194 95.3555 47.7784 95.0642 48.2058C94.773 48.6331 95.3069 47.9387 95.404 47.8318C95.4525 47.7784 95.5982 47.6716 95.6467 47.6182C95.3555 48.0989 95.2098 47.9387 95.5011 47.7784C95.5982 47.725 95.7438 47.6716 95.8408 47.5648C95.3555 47.9921 95.3069 47.7784 95.5496 47.725C95.6952 47.6716 95.8408 47.6716 95.9865 47.6182C96.1321 47.5648 96.7631 47.5648 96.3262 47.5648C95.8408 47.5113 96.4718 47.5648 96.5689 47.5648C96.7145 47.5648 96.8602 47.5648 96.9572 47.5648C97.297 47.5648 97.6368 47.5648 97.9766 47.6182C98.2678 47.6182 98.2678 47.7784 97.8309 47.5648C97.928 47.6182 98.1222 47.6182 98.2192 47.6182C98.6076 47.725 98.9959 47.8318 99.3842 47.9921C99.6269 48.0455 99.6754 48.2592 99.2386 47.9387C99.3842 48.0455 99.6269 48.1523 99.7725 48.2058C100.112 48.4194 100.403 48.6331 100.695 48.8468C100.743 48.8468 100.743 48.9002 100.792 48.9002C101.034 49.1138 100.986 49.0604 100.695 48.7933C100.84 48.8468 101.034 49.1138 101.132 49.2207C101.374 49.4343 101.617 49.7014 101.86 49.9685C102.83 51.0368 103.704 52.2654 104.675 53.3872C105.597 54.4555 106.568 55.5773 107.733 56.3785C109.092 57.34 110.694 57.7139 112.296 57.6605C113.8 57.6071 115.256 56.2183 115.208 54.4555C115.159 52.7462 113.946 51.1971 112.296 51.2505C112.101 51.2505 111.907 51.2505 111.713 51.2505C111.665 51.2505 111.616 51.2505 111.519 51.2505C111.179 51.1971 111.276 51.2505 111.762 51.3039C111.519 51.1971 111.228 51.1971 110.985 51.0903C110.645 50.9834 110.645 50.7698 111.131 51.1437C111.082 51.0903 110.936 51.0368 110.888 50.9834C110.742 50.93 110.645 50.8232 110.5 50.7163C110.402 50.6629 110.354 50.6095 110.257 50.5561C110.354 50.6629 110.5 50.7698 110.597 50.8766C110.208 50.3958 109.723 49.9685 109.335 49.5412C108.849 49.007 108.364 48.4194 107.927 47.8318C105.743 45.1076 103.461 42.4902 100.161 41.5821C98.3163 41.0479 96.4233 41.0479 94.5788 41.4753C92.7829 41.8492 91.3753 43.1846 90.3074 44.7337C88.2202 47.8853 88.2202 52.2654 90.6957 55.0965C91.618 56.1114 92.8314 56.9127 94.0449 57.34C95.2584 57.7139 96.666 57.6071 97.928 57.5537C99.5298 57.4468 101.034 57.1798 102.491 56.4853C103.995 55.7375 105.209 54.4555 106.18 53.0133C108.024 50.1822 108.17 46.6033 108.073 43.238C108.024 41.4753 108.073 39.7125 107.781 37.8964C107.49 35.9199 106.665 34.1038 105.549 32.5013C103.17 29.2429 99.0929 28.2814 95.5011 29.0826C92.0548 29.8304 90.0647 32.982 88.9483 36.4007C88.4629 38.0032 89.5308 39.9796 90.987 40.3535C92.8314 40.674 94.2391 39.7125 94.773 38.0566Z" fill="#FBF6BE"/>
<path d="M142.049 40.4068C142.195 35.3322 137.972 31.1123 133.895 29.5098C131.759 28.7086 129.38 28.6551 127.196 29.0825C125.206 29.4564 123.216 30.5247 121.954 32.2341C119.187 35.9198 118.411 41.1546 118.896 45.8019C119.139 48.2056 119.576 50.9833 120.886 52.9597C122.197 54.9895 124.09 56.4852 126.274 57.1262C130.206 58.3014 134.623 57.1262 137.292 53.7075C139.477 50.9299 140.739 47.5646 141.467 43.9857C143.02 35.9198 142.437 26.9458 138.263 19.9482C136.224 16.4762 133.603 13.5382 130.885 10.7072C129.817 9.58541 128.749 8.46367 127.779 7.23508C127.682 7.12825 127.585 6.968 127.487 6.80775C127.099 6.327 127.827 7.34192 127.585 6.91458C127.39 6.59408 127.196 6.27358 127.002 5.95308C126.856 5.686 126.711 5.3655 126.565 5.09842C126.468 4.93817 126.42 4.77792 126.323 4.56425C126.274 4.45742 126.177 4.19034 126.371 4.67109C126.42 4.77792 126.565 5.20525 126.371 4.67109C126.128 3.97667 125.983 3.22884 125.886 2.481C125.789 1.73317 125.109 0.931923 124.527 0.558007C123.896 0.130674 122.973 -0.0295755 122.294 0.237508C121.566 0.504591 120.886 0.98534 120.546 1.73317C120.158 2.53442 120.11 3.28225 120.255 4.19034C121.129 10.7606 126.759 14.7134 130.497 19.2538C131.079 19.9482 131.613 20.6427 132.147 21.3905C132.487 21.8178 131.759 20.8563 132.196 21.4973C132.293 21.6576 132.438 21.8178 132.536 22.0315C132.827 22.4588 133.118 22.9396 133.361 23.3669C133.798 24.1681 134.234 24.9694 134.623 25.7706C134.72 25.9843 134.768 26.1446 134.865 26.3582C134.914 26.4651 134.914 26.5185 134.962 26.6253C135.108 26.9992 134.72 25.9843 134.865 26.3582C135.011 26.7856 135.157 27.1595 135.254 27.5868C135.496 28.4415 135.691 29.2427 135.885 30.0974C135.982 30.5247 136.03 30.8986 136.079 31.326C136.127 31.5396 136.127 31.7533 136.176 31.967C136.273 32.7148 136.127 31.2726 136.176 32.0738C136.37 33.8366 136.419 35.5993 136.37 37.362C136.322 38.2167 136.273 39.1248 136.176 39.9795C136.176 40.1397 136.079 40.8875 136.127 40.3C136.176 39.7124 136.127 40.3534 136.079 40.5136C136.03 40.941 135.933 41.4217 135.885 41.849C135.593 43.3447 135.254 44.8404 134.768 46.2292C134.72 46.336 134.72 46.4429 134.671 46.4963C134.574 46.8168 134.865 46.0155 134.817 46.069C134.768 46.2292 134.671 46.3895 134.623 46.5497C134.477 46.8702 134.38 47.1373 134.234 47.4044C134.089 47.6715 133.992 47.8851 133.846 48.1522C133.749 48.259 133.7 48.4193 133.603 48.5261C133.506 48.633 133.069 49.3274 133.361 48.9C133.652 48.4727 133.312 48.9535 133.215 49.0603C133.069 49.2205 132.972 49.3808 132.827 49.541C132.584 49.8081 132.293 50.0752 132.05 50.3423C132.584 49.7013 132.341 50.0752 132.099 50.2889C131.953 50.3957 131.807 50.5025 131.662 50.5559C131.516 50.6094 131.419 50.7162 131.273 50.7696C130.885 50.9833 131.516 50.6628 131.565 50.6628C131.468 50.6628 131.371 50.7162 131.273 50.7696C130.934 50.8764 130.594 50.9833 130.254 51.0901C129.769 51.1969 130.885 51.0367 130.4 51.0901C130.157 51.0901 129.963 51.1435 129.72 51.1435C129.332 51.1435 128.944 51.1435 128.555 51.1435C127.827 51.0901 129.041 51.2504 128.555 51.1435C128.313 51.0901 128.118 51.0367 127.876 50.9833C127.73 50.9299 127.536 50.8764 127.39 50.823C127.342 50.823 127.148 50.7162 127.051 50.7162C127.051 50.7162 127.633 50.9833 127.342 50.8764C126.954 50.6628 126.614 50.4491 126.274 50.182C125.837 49.8615 126.711 50.6094 126.323 50.2354C126.177 50.0752 126.031 49.9684 125.886 49.8081C125.497 49.1137 125.692 49.5945 125.886 49.8081C125.789 49.6479 125.643 49.4342 125.546 49.274C125.449 49.1137 125.4 48.9 125.255 48.6864C125.255 48.6864 125.449 49.3274 125.4 49.0069C125.352 48.8466 125.303 48.6864 125.255 48.5795C125.109 48.0988 124.963 47.5646 124.866 47.0305C124.769 46.6031 124.672 46.1758 124.624 45.7485C124.527 45.2143 124.672 46.4429 124.624 45.695C124.575 45.428 124.575 45.1609 124.575 44.8938C124.527 43.8789 124.527 42.864 124.575 41.9025C124.575 41.6354 124.624 41.3683 124.624 41.1012C124.624 40.9944 124.672 40.8875 124.672 40.7807C124.721 41.3683 124.624 41.2615 124.672 40.9944C124.769 40.5136 124.818 39.9795 124.963 39.4987C125.061 39.018 125.206 38.5906 125.352 38.1099C125.546 37.5757 125.109 38.644 125.352 38.1633C125.449 37.9496 125.546 37.6825 125.643 37.4689C125.837 37.095 126.031 36.7745 126.225 36.454C126.42 36.1335 125.789 36.9881 126.08 36.6676C126.128 36.6142 126.177 36.5608 126.225 36.454C126.371 36.2937 126.517 36.1335 126.662 35.9732C126.711 35.9198 126.759 35.8664 126.808 35.813C127.002 35.5993 126.468 36.08 126.517 36.08C126.662 36.0266 126.808 35.8664 126.954 35.7595C127.099 35.6527 127.342 35.5993 127.487 35.4925C127.487 35.4925 126.905 35.7061 127.196 35.6527C127.342 35.5993 127.487 35.5459 127.585 35.4925C127.973 35.3856 128.361 35.2788 128.749 35.2254C129.041 35.172 128.458 35.2788 128.458 35.2788C128.555 35.2788 128.798 35.2254 128.847 35.2254C129.089 35.2254 129.283 35.172 129.526 35.172C129.963 35.172 130.4 35.172 130.837 35.2254C130.934 35.2254 131.031 35.2788 131.128 35.2788C131.128 35.2788 130.497 35.172 130.837 35.2254C131.079 35.2788 131.322 35.3322 131.565 35.3856C131.953 35.4925 132.293 35.7061 132.681 35.7595C132.147 35.6527 132.244 35.5459 132.487 35.6527C132.584 35.7061 132.633 35.7595 132.73 35.7595C132.972 35.8664 133.167 36.0266 133.361 36.1335C133.7 36.3471 134.04 36.6676 134.38 36.8813C134.331 36.8279 133.846 36.4006 134.234 36.7745C134.283 36.8279 134.38 36.9347 134.429 36.9881C134.623 37.1484 134.817 37.362 134.962 37.5757C135.108 37.736 135.205 37.8962 135.351 38.003C135.448 38.1099 135.496 38.2167 135.593 38.3235C135.788 38.6975 135.399 38.1633 135.399 38.1633C135.545 38.5372 135.885 38.9111 136.03 39.285C136.079 39.3385 136.127 39.5521 136.176 39.6055C136.176 39.6055 135.982 38.9645 136.03 39.285C136.079 39.4987 136.127 39.659 136.176 39.8726C136.176 39.9795 136.224 40.0329 136.224 40.1397C136.322 40.4068 136.176 39.7124 136.176 39.7124C136.127 39.926 136.176 40.1931 136.176 40.4068C136.127 42.0627 137.535 43.6652 139.088 43.6118C140.787 43.5584 142.001 42.223 142.049 40.4068Z" fill="#FBF6BE"/>
<path d="M149.185 47.3512C152.194 48.2059 155.204 48.7935 158.31 48.3127C161.125 47.832 163.698 46.1761 165.251 43.6121C166.707 41.2083 167.144 37.7897 166.222 35.0654C165.251 32.0741 163.116 30.0443 160.397 29.1362C157.825 28.2815 155.058 28.602 152.68 29.884C150.204 31.2194 148.602 33.8368 147.68 36.5611C146.758 39.2853 146.564 42.4369 146.904 45.268C147.243 48.473 148.263 51.4109 150.301 53.7612C152.049 55.7911 154.427 56.7526 156.854 57.1265C158.359 57.3401 159.912 57.6072 161.417 57.6072C162.921 57.6072 164.475 57.3936 165.979 57.1799C166.659 57.0731 167.387 56.3252 167.727 55.6842C168.115 54.9898 168.261 53.9749 168.018 53.2271C167.775 52.4258 167.338 51.678 166.659 51.3041C165.931 50.8767 165.251 50.8767 164.426 50.9836C165.203 50.8767 164.232 50.9836 164.086 51.037C163.844 51.0904 163.601 51.0904 163.407 51.1438C162.921 51.1972 162.436 51.2507 161.951 51.2507C161.028 51.2507 160.058 51.1972 159.135 51.0904C158.844 51.037 158.553 51.037 158.262 50.9836C157.679 50.8767 158.796 51.0904 158.116 50.9836C157.679 50.9302 157.242 50.8233 156.757 50.7165C156.369 50.6097 156.029 50.5028 155.641 50.3426C155.155 50.1823 156.272 50.6631 155.738 50.396C155.543 50.2892 155.349 50.1823 155.155 50.0755C155.01 49.9687 154.864 49.8618 154.718 49.755C154.427 49.5413 155.204 50.2357 154.961 49.9687C154.912 49.9152 154.815 49.8084 154.718 49.755C154.379 49.4345 154.136 49.114 153.845 48.7401C153.65 48.473 154.039 49.0072 154.039 49.0072C153.99 48.9003 153.893 48.7935 153.845 48.6867C153.699 48.4196 153.553 48.2059 153.408 47.9388C153.311 47.7252 153.214 47.4581 153.117 47.2444C152.922 46.8705 153.311 47.832 153.165 47.4047C153.117 47.2444 153.068 47.0842 153.019 46.8705C152.874 46.3897 152.777 45.8556 152.68 45.3748C152.68 45.3748 152.583 44.9475 152.631 44.9475C152.583 45.0543 152.68 45.6419 152.631 45.1612C152.583 44.8407 152.583 44.5736 152.583 44.2531C152.534 43.6655 152.534 43.1313 152.534 42.5437C152.534 42.2232 152.534 41.9028 152.583 41.6357C152.583 41.5288 152.583 41.422 152.583 41.3152C152.583 41.0481 152.777 40.4605 152.583 41.2618C152.728 40.7276 152.728 40.1934 152.874 39.6593C152.922 39.3388 153.019 39.0717 153.117 38.8046C153.165 38.6978 153.165 38.5909 153.214 38.4841C153.311 38.4307 153.408 37.8965 153.214 38.4841C153.311 38.4307 153.553 37.7897 153.602 37.6828C153.699 37.4692 153.796 37.3089 153.942 37.0953C153.99 36.9884 154.087 36.8816 154.136 36.7748C154.281 36.5077 153.942 37.0418 153.942 37.0418C154.136 36.8282 154.281 36.6145 154.427 36.4008C154.573 36.2406 154.767 36.0803 154.913 35.9201C155.155 35.7064 154.621 36.1338 154.621 36.1338C154.718 36.0803 154.815 35.9735 154.913 35.9201C155.107 35.8133 155.301 35.653 155.495 35.5462C155.592 35.4928 155.641 35.4928 155.738 35.4393C156.029 35.2791 155.107 35.7064 155.592 35.4928C156.029 35.3325 156.417 35.2257 156.854 35.1188C157.242 35.012 156.223 35.1723 156.611 35.1723C156.708 35.1723 156.757 35.1723 156.854 35.1723C157.097 35.1723 157.339 35.1188 157.631 35.1723C157.825 35.1723 158.019 35.1723 158.213 35.2257C158.699 35.2791 157.97 35.2257 157.922 35.1723C157.97 35.2257 158.165 35.2257 158.262 35.2257C158.699 35.3325 159.135 35.5996 159.572 35.653C159.524 35.653 158.941 35.3325 159.33 35.5462C159.427 35.5996 159.475 35.653 159.572 35.653C159.766 35.7598 159.961 35.8667 160.155 36.0269C159.815 35.653 160.689 36.4008 160.155 36.0269C160.3 36.1872 160.494 36.4008 160.64 36.6145C160.834 36.8282 160.446 36.3474 160.446 36.294C160.446 36.3474 160.592 36.5077 160.64 36.5611C160.786 36.8282 160.931 37.4692 160.737 36.6145C160.786 36.8282 160.883 37.0418 160.931 37.2555C160.98 37.3623 160.98 37.5226 161.028 37.6294C161.077 38.0033 160.931 38.0568 161.028 37.4158C160.98 37.8431 161.077 38.3238 161.028 38.7512C160.98 39.2853 161.028 38.5375 161.077 38.4841C161.028 38.5909 161.028 38.7512 161.028 38.858C160.98 39.1251 160.883 39.3388 160.834 39.6058C160.689 40.0866 160.883 39.4456 160.931 39.3922C160.834 39.499 160.786 39.6593 160.737 39.8195C160.689 39.9263 160.3 40.4605 160.3 40.5673C160.3 40.5139 160.786 39.9798 160.446 40.3537C160.349 40.4605 160.3 40.5673 160.203 40.6208C160.106 40.7276 160.009 40.8344 159.961 40.8878C159.912 40.9412 159.427 41.3686 159.815 41.0481C160.155 40.7276 159.815 41.0481 159.718 41.1015C159.572 41.2083 159.475 41.2618 159.33 41.3686C159.135 41.5288 158.844 41.5822 158.65 41.7425C159.184 41.3686 159.038 41.5822 158.796 41.6357C158.65 41.6891 158.504 41.7425 158.359 41.7959C158.068 41.9028 157.825 41.9562 157.534 42.0096C157.388 42.063 157.291 42.063 157.145 42.063C156.757 42.1698 157.194 42.0096 157.339 42.0096C157.048 41.9562 156.757 42.063 156.466 42.063C155.786 42.063 155.155 42.063 154.524 41.9562C153.99 41.9027 154.524 41.9562 154.621 41.9562C154.427 41.9562 154.233 41.9028 154.039 41.8493C153.699 41.7959 153.359 41.6891 153.019 41.6357C152.34 41.4754 151.66 41.2618 150.981 41.1015C149.525 40.6742 147.729 41.6357 147.389 43.345C146.807 45.1077 147.632 46.9239 149.185 47.3512Z" fill="#FBF6BE"/>
<path d="M179.182 55.0958C180.298 51.0896 181.366 47.0833 182.434 43.0771C183.016 40.9939 183.599 38.9106 184.181 36.8274C184.23 36.5603 184.327 36.3466 184.375 36.0795C184.424 35.9727 184.424 35.9193 184.473 35.8124C184.57 35.4919 184.521 35.5988 184.375 36.0795C184.473 35.9727 184.909 35.1714 184.909 35.0646C184.812 35.1714 184.764 35.2783 184.667 35.3851C184.764 35.2783 184.812 35.1714 184.909 35.118C184.958 35.0646 185.006 35.0112 185.055 35.0112C185.298 34.7975 185.201 34.8509 184.861 35.1714C184.909 35.118 184.958 35.118 185.006 35.0646C185.298 34.9044 185.201 34.9578 184.764 35.1714C184.861 35.118 184.958 35.118 185.055 35.0646C184.521 35.118 184.424 35.118 184.764 35.118C184.618 35.118 184.473 35.0646 184.278 35.0646C184.375 35.0646 184.473 35.118 184.57 35.1714C184.424 35.118 184.278 35.0646 184.133 34.9578C184.375 35.118 184.327 35.0646 183.89 34.7441C183.939 34.8509 184.133 35.0646 184.181 35.118C183.696 34.7441 183.89 34.6907 184.084 35.0646C184.133 35.118 184.133 35.1714 184.181 35.2249C184.327 35.5454 184.278 35.4385 184.084 34.9578C184.084 35.118 184.181 35.3317 184.23 35.4919C184.327 35.9727 184.424 36.4534 184.473 36.9876C184.715 38.7504 185.055 40.5665 185.346 42.3293C185.686 44.1454 185.977 45.9616 186.268 47.7778C186.56 49.8076 186.802 51.8374 187.87 53.6002C188.647 54.8822 189.666 56.1108 190.928 56.8052C192.918 57.8735 195.005 57.8201 197.141 57.4462C197.821 57.3393 198.549 56.5915 198.889 55.9505C199.277 55.2561 199.423 54.2412 199.18 53.4933C198.646 51.6772 197.238 50.9828 195.588 51.2498C195.005 51.3567 196.073 51.1964 195.491 51.2498C195.297 51.2498 195.103 51.3033 194.908 51.3033C194.714 51.3033 194.569 51.3033 194.374 51.3033C194.277 51.3033 194.132 51.3033 194.035 51.3033C193.646 51.3033 194.277 51.3033 194.374 51.3567C194.132 51.2498 193.841 51.2498 193.598 51.143C193.064 50.9293 193.792 51.3033 193.841 51.2498C193.792 51.2498 193.549 51.0896 193.501 51.0362C193.404 50.9828 193.307 50.8759 193.21 50.8225C193.064 50.7157 193.841 51.4101 193.452 50.9828C193.307 50.8225 193.161 50.6623 193.015 50.502C192.918 50.3952 192.53 49.8076 192.821 50.2883C193.161 50.7691 192.773 50.1815 192.676 50.0213C192.627 49.9144 192.579 49.861 192.53 49.7542C192.287 49.2734 192.676 50.2349 192.579 49.861C192.045 47.9914 191.85 46.0684 191.559 44.1454C191.268 42.3293 190.928 40.5665 190.637 38.7504C190.491 37.7889 190.297 36.7739 190.152 35.8124C190.006 34.9578 189.957 34.0497 189.666 33.195C188.841 30.7379 187.094 28.6546 184.521 28.708C182.288 28.7615 180.25 30.5776 179.327 32.7677C178.454 34.8509 177.92 37.2013 177.337 39.3914C176.027 44.0386 174.813 48.7393 173.503 53.3865C173.066 54.989 174.037 56.9654 175.541 57.3393C177.192 57.7133 178.745 56.8052 179.182 55.0958Z" fill="#FBF6BE"/>
<path d="M231.312 54.1359C231.458 51.0911 231.701 48.0464 231.992 45.0016C232.186 42.865 232.38 40.7283 232.623 38.5916C232.671 38.0575 232.768 37.4699 232.817 36.9357C232.866 36.6686 232.866 36.3481 232.914 36.0811C233.011 35.3866 232.817 36.7755 232.914 35.9742C233.06 34.8525 233.205 33.7841 233.351 32.6624C233.497 31.8077 233.497 31.0065 233.06 30.2052C232.72 29.5642 231.992 28.9232 231.312 28.7096C229.808 28.3356 228.157 29.1903 227.72 30.9531C227.332 32.6624 227.041 34.3717 226.944 36.1345C226.895 37.6301 226.798 39.2326 227.041 40.7283C227.332 42.5979 228.06 44.4675 229.322 45.8029C230.487 47.0315 231.943 47.8327 233.448 48.3669C239.37 50.4501 247.524 47.993 249.514 40.942C250.291 38.2711 250.437 35.4401 250.873 32.7158C251.019 31.8611 251.019 31.0599 250.582 30.2586C250.242 29.6176 249.514 28.9766 248.835 28.763C247.379 28.3891 245.583 29.2437 245.243 31.0065C244.709 34.0512 244.321 37.1494 243.884 40.1941C243.544 42.5979 243.107 45.0016 242.913 47.4588C242.816 49.2215 242.816 51.1445 243.35 52.8005C244.078 54.9905 245.389 56.593 247.379 57.3943C249.514 58.2489 252.038 57.875 254.174 57.3409C255.679 56.9669 256.65 54.9905 256.213 53.388C255.727 51.6787 254.223 50.7706 252.621 51.1445C252.378 51.198 252.135 51.2514 251.941 51.3048C251.844 51.3048 250.922 51.465 251.504 51.4116C252.087 51.3048 251.31 51.4116 251.213 51.465C251.019 51.465 250.776 51.5185 250.582 51.5185C250.242 51.5185 249.854 51.5185 249.514 51.465C249.175 51.465 250.291 51.6253 249.951 51.5185C249.903 51.5185 249.806 51.5185 249.757 51.465C249.563 51.4116 249.417 51.3582 249.272 51.3048C249.126 51.2514 248.641 51.0377 249.223 51.3048C249.806 51.5719 249.32 51.3582 249.175 51.2514C249.126 51.2514 248.883 50.9843 248.835 51.0377C248.835 51.0377 249.417 51.6253 249.223 51.3582C249.175 51.3048 249.126 51.2514 249.078 51.198C248.98 51.0911 248.689 50.6638 249.029 51.198C249.417 51.7321 249.077 51.2514 249.029 51.1445C248.98 51.0377 248.932 50.9309 248.883 50.824C248.738 50.5035 249.223 51.7855 248.98 51.0377C248.883 50.7706 248.835 50.5035 248.786 50.183C248.738 49.8625 248.786 49.3818 248.786 50.4501C248.786 50.2365 248.738 50.0228 248.738 49.8625C248.689 49.0613 248.738 48.3135 248.786 47.5122C248.835 47.0849 248.835 46.711 248.883 46.2836C248.883 46.07 248.932 45.8563 248.98 45.6426C248.883 46.7644 248.98 45.7495 249.029 45.4824C249.175 44.414 249.369 43.3457 249.514 42.2774C250 39.1258 250.34 35.9208 250.922 32.7692C249.029 32.1816 247.184 31.6475 245.291 31.0599C244.952 33.3568 244.758 35.7071 244.272 37.9506C244.175 38.378 244.078 38.7519 243.981 39.1792C243.932 39.3929 243.835 39.66 243.787 39.8736C243.593 40.4612 244.127 39.1792 243.835 39.7134C243.738 39.8736 243.69 39.9805 243.593 40.1407C243.496 40.2475 243.398 40.4078 243.35 40.568C243.35 40.5146 243.835 39.9805 243.496 40.301C243.301 40.5146 243.156 40.7283 242.962 40.942C242.865 41.0488 242.67 41.1556 242.573 41.2625C242.622 41.2091 243.156 40.7817 242.767 41.1022C242.476 41.3159 242.185 41.5295 241.894 41.6898C241.7 41.7966 241.263 41.9569 241.117 42.1171C241.457 41.7432 241.603 41.9035 241.214 42.0637C241.069 42.1171 240.923 42.1705 240.777 42.224C240.098 42.491 239.418 42.6513 238.739 42.7581C238.156 42.865 239.321 42.7047 238.933 42.7047C238.787 42.7047 238.642 42.7581 238.496 42.7581C238.205 42.7581 237.914 42.7581 237.622 42.7581C237.331 42.7581 237.04 42.7581 236.749 42.7047C236.652 42.7047 236.069 42.5979 236.603 42.7047C237.137 42.8115 236.409 42.6513 236.312 42.6513C235.729 42.5445 235.195 42.3842 234.661 42.1705C234.564 42.1171 234.467 42.0637 234.37 42.0637C235.001 42.1705 234.759 42.2774 234.467 42.1171C234.176 41.9569 233.933 41.7966 233.642 41.6364C233.545 41.583 233.497 41.4761 233.399 41.4761C233.982 41.7966 233.788 41.85 233.545 41.583C233.351 41.4227 233.254 41.209 233.06 41.0488C233.594 41.583 233.399 41.583 233.302 41.3693C233.254 41.2625 233.157 41.1022 233.108 40.9954C232.914 40.6749 233.157 41.1556 233.157 41.1556C233.011 40.8885 232.963 40.5146 232.866 40.1941C232.817 40.0339 232.817 39.8736 232.768 39.7134C232.72 39.3395 232.72 39.3929 232.768 39.8202C232.768 39.7134 232.768 39.6066 232.768 39.4463C232.768 39.1258 232.768 38.7519 232.817 38.4314C232.817 37.8438 232.817 37.2028 232.866 36.6152C232.866 36.2947 232.866 36.0276 232.914 35.7071C232.914 35.4401 233.108 34.2649 232.914 35.3866C233.06 34.532 233.205 33.6773 233.399 32.8226C231.506 32.2351 229.662 31.7009 227.769 31.1133C227.138 35.7071 226.604 40.3544 226.167 45.0016C225.876 48.0998 225.585 51.198 225.488 54.3495C225.439 56.0055 226.895 57.6079 228.4 57.5545C230.05 57.2874 231.264 55.952 231.312 54.1359Z" fill="#FBF6BE"/>
<path d="M6.33513 43.6651C6.28659 43.2912 6.28659 42.8639 6.28659 42.4899C6.28659 42.3297 6.28659 42.116 6.33513 41.9558C6.38367 41.2079 6.23805 42.6502 6.33513 41.9024C6.48075 41.1011 6.6749 40.2999 6.96614 39.4986C7.06321 39.1781 6.82052 39.8191 6.82052 39.8191C6.86906 39.7123 6.9176 39.6054 6.96614 39.4452C7.06321 39.285 7.11175 39.0713 7.20883 38.911C7.40299 38.5371 7.59714 38.1098 7.83984 37.7359C7.88837 37.6824 7.93691 37.5756 7.98545 37.5222C8.13107 37.2551 7.7913 37.7893 7.7913 37.7893C7.93691 37.629 8.03399 37.4688 8.17961 37.2551C8.4223 36.9346 8.665 36.6675 8.95623 36.4004C9.05331 36.347 9.58723 35.8129 9.19892 36.1868C8.81061 36.5073 9.296 36.1334 9.39308 36.08C9.5387 35.9731 9.73285 35.8663 9.87847 35.7595C9.97554 35.706 10.6066 35.3855 10.1697 35.5992C9.73285 35.8129 10.2668 35.5458 10.4124 35.4924C10.6066 35.439 10.8007 35.3321 10.9949 35.2787C11.1405 35.2253 11.3346 35.1719 11.5288 35.1185C11.6259 35.1185 11.7229 35.065 11.7715 35.065C12.0142 35.0116 12.3054 35.1185 11.6259 35.065C11.9656 35.065 12.3054 35.0116 12.6937 35.0116C12.8879 35.0116 13.082 35.0116 13.3247 35.065C13.4218 35.065 13.5189 35.065 13.5674 35.065C13.9557 35.1185 13.4218 35.065 13.3247 35.0116C13.6645 35.1719 14.1013 35.1719 14.4411 35.2787C14.5867 35.3321 14.7809 35.3855 14.9265 35.439C15.0236 35.4924 15.0721 35.4924 15.1692 35.5458C14.4897 35.4924 14.8294 35.4924 15.0236 35.6526C15.3634 35.8129 15.7031 36.0265 16.0429 36.2402C16.1885 36.347 16.3341 36.4539 16.4798 36.5607C16.4798 36.5607 15.9944 36.1334 16.2371 36.347C16.3341 36.4539 16.4312 36.5073 16.5283 36.6141C16.8195 36.9346 17.1108 37.2551 17.402 37.629C17.1108 37.1483 17.7418 38.0564 17.402 37.629C17.5476 37.8427 17.6932 38.1098 17.8388 38.3235C17.9359 38.4837 18.033 38.6974 18.1301 38.8576C18.1786 38.9645 18.2271 39.1247 18.2757 39.2315C18.3242 39.3384 18.4213 39.6589 18.2757 39.2315C18.1301 38.7508 18.3242 39.4452 18.3728 39.552C18.4698 39.7657 18.5184 40.0328 18.5669 40.2464C18.664 40.6738 18.7611 41.1545 18.8582 41.5819C18.8582 41.6887 18.8582 41.7955 18.9067 41.9024C18.7125 41.1545 18.8582 41.4216 18.8582 41.6353C18.8582 41.8489 18.9067 42.116 18.9067 42.3297C18.9067 42.757 18.9552 43.1844 18.9067 43.6117C18.9067 43.8254 18.9067 43.9856 18.8582 44.1993C18.8582 44.3061 18.8582 44.4129 18.8096 44.4664C18.7611 44.8937 18.9067 43.7185 18.8096 44.3061C18.664 45.1074 18.4698 45.9086 18.2271 46.7099C18.033 47.244 18.5184 46.0154 18.2271 46.7099C18.1301 46.8701 18.0815 47.0304 17.9845 47.1906C17.7903 47.5645 17.5476 47.9384 17.3535 48.3124C17.1593 48.5794 17.5476 48.0453 17.5476 48.0453C17.4991 48.0987 17.4505 48.2055 17.402 48.2589C17.2564 48.4192 17.1108 48.5794 17.0137 48.7397C16.8681 48.8999 16.771 49.0068 16.6254 49.167C16.5283 49.2739 15.9944 49.7012 16.3827 49.4341C16.771 49.1136 16.1885 49.5944 16.0914 49.6478C15.9458 49.7546 15.7517 49.8614 15.6061 49.9683C15.4119 50.0751 15.1692 50.2354 14.975 50.3422C14.9265 50.3956 14.7324 50.449 14.6838 50.5024C14.7809 50.3956 15.2177 50.2888 14.8294 50.449C14.3926 50.6093 14.0043 50.7695 13.5674 50.8764C13.3733 50.9298 13.1791 50.9832 12.9364 51.0366C12.5966 51.1434 13.2276 50.9832 13.1791 50.9832C13.0335 51.0366 12.7908 51.0366 12.6452 51.0366C12.2569 51.09 11.82 51.0366 11.4317 51.0366C11.0434 51.0366 12.0142 51.1434 11.6259 51.09C11.5288 51.09 11.4317 51.0366 11.3346 51.0366C11.0919 50.9832 10.8978 50.9298 10.6551 50.8229C10.4609 50.7695 10.2182 50.6093 10.0241 50.5559C10.0241 50.5559 10.558 50.8229 10.2668 50.6627C10.1697 50.6093 10.0726 50.5559 10.0241 50.5024C9.82993 50.3956 9.68431 50.2888 9.49016 50.1819C9.296 50.0751 9.05331 49.7546 8.85915 49.7012C8.85915 49.7012 9.296 50.1285 9.05331 49.8614C9.00477 49.808 8.90769 49.7012 8.81061 49.6478C8.665 49.4875 8.47084 49.3273 8.32522 49.1136C8.17961 48.9534 8.08253 48.7931 7.93691 48.6329C7.88837 48.5794 7.83984 48.4192 7.74276 48.4192C7.88837 48.526 8.03399 48.8999 7.83984 48.526C7.59714 48.1521 7.35445 47.7248 7.16029 47.3509C7.06321 47.1372 6.9176 46.4428 7.11175 47.244C7.06321 47.0304 6.96614 46.7633 6.86906 46.5496C6.72344 46.1223 6.62636 45.6949 6.52929 45.2142C6.48075 45.0005 6.43221 44.7869 6.43221 44.5732C6.43221 44.4664 6.38367 44.3595 6.38367 44.2527C6.33513 43.8254 6.48075 45.1074 6.38367 44.3595C6.28659 43.4514 6.23805 42.5434 6.23805 41.6353C6.23805 40.7272 6.28659 39.7657 6.38367 38.8576C6.38367 38.644 6.43221 38.4303 6.43221 38.2166C6.48075 37.8427 6.38367 38.5905 6.38367 38.5371C6.38367 38.4303 6.43221 38.3234 6.43221 38.2166C6.48075 37.7359 6.57783 37.2551 6.6749 36.7744C7.01468 34.9582 7.50006 33.2489 8.13107 31.5395C8.32522 31.0054 7.88837 32.1271 8.17961 31.4327C8.27669 31.219 8.32522 31.0588 8.4223 30.8451C8.61646 30.4178 8.81061 29.9905 9.00477 29.5631C9.39308 28.7619 9.82993 27.9072 10.3153 27.1594C10.5095 26.8389 10.7522 26.465 10.9463 26.1445C11.0919 25.9308 11.189 25.7705 11.3346 25.5569C11.5288 25.2898 11.1405 25.824 11.189 25.7705C11.2861 25.6637 11.3346 25.5569 11.4317 25.45C11.9656 24.7022 12.5481 24.0078 13.1306 23.3668C13.713 22.7258 14.2955 22.1382 14.9265 21.5506C15.1207 21.3904 15.2663 21.2301 15.4604 21.0699C15.8973 20.696 15.0721 21.3904 15.509 21.0165C15.8973 20.696 16.2856 20.3755 16.6739 20.055C18.2757 18.773 19.9745 17.491 21.3822 15.8885C23.8091 13.1642 25.2167 8.94431 25.0711 5.15174C25.0226 4.24365 24.9255 3.28215 24.6828 2.37407C24.1974 0.771573 22.6442 -0.403592 21.0909 0.130574C19.6348 0.66474 18.5184 2.37407 19.0523 4.0834C19.1494 4.45732 19.1979 4.77782 19.295 5.15174C19.295 5.09832 19.2465 4.29707 19.2465 4.77782C19.2465 4.88465 19.2465 4.93807 19.2465 5.0449C19.2465 5.25857 19.2465 5.52565 19.2465 5.73932C19.2465 5.95298 19.2465 6.16665 19.1979 6.38032C19.1979 6.48715 19.1979 6.54057 19.1494 6.6474C19.1008 7.07473 19.2465 5.95298 19.1979 6.3269C19.1008 6.80765 19.0523 7.2884 18.9067 7.71573C18.8096 8.14307 18.664 8.5704 18.5184 8.99773C18.4698 9.10456 18.4698 9.15798 18.4213 9.26481C18.3242 9.58531 18.5669 8.8909 18.5669 8.94431C18.4698 9.15798 18.3728 9.42506 18.2271 9.69215C18.0815 10.0126 17.8874 10.3331 17.6932 10.6536C17.6447 10.7071 17.5476 10.8139 17.4991 10.9207C17.4991 10.9741 17.9359 10.3866 17.7418 10.6002C17.5476 10.8139 17.402 11.0276 17.2078 11.2412C16.9166 11.6151 16.5768 11.9356 16.2371 12.2561C16.0429 12.4164 15.8487 12.6301 15.7031 12.7903C15.6061 12.8971 15.509 13.004 15.3634 13.0574C15.0721 13.3245 15.3148 13.0574 15.4604 13.004C15.0721 13.2176 14.6353 13.645 14.2955 13.9655C13.8587 14.286 13.4703 14.6599 13.0335 14.9804C11.3832 16.3158 9.78139 17.7581 8.37376 19.414C3.18011 25.9842 0.122159 34.5843 0.51047 43.1844C0.607548 45.6949 0.995859 48.0987 1.96664 50.3956C2.88887 52.6391 4.53919 54.5087 6.43221 55.7907C10.4124 58.5149 15.7031 57.9808 19.4406 54.936C22.8869 52.1584 24.7314 47.8316 24.7314 43.1844C24.7314 38.3234 22.7898 33.4625 19.0523 30.7383C15.5575 28.1743 10.8492 28.0675 7.16029 30.1507C3.76257 32.0737 1.33563 36.2936 0.704626 40.3533C0.559009 41.475 0.413392 42.5434 0.51047 43.6651C0.656087 45.321 1.77248 46.9769 3.4228 46.8701C4.87897 46.8167 6.48075 45.4813 6.33513 43.6651Z" fill="#FBF6BE"/>
<path d="M36.3326 56.8049C41.3321 58.995 47.8848 56.4844 50.5059 51.2496C52.496 47.1899 52.4475 41.8483 50.9913 37.6283C50.2147 35.3848 49.1469 33.1414 47.448 31.5389C45.6035 29.7761 43.2736 28.7078 40.7982 28.7612C35.2162 28.868 30.7506 33.8892 29.0032 39.3911C28.0324 42.4358 28.081 45.8545 29.1488 48.8458C29.8284 50.6086 30.7021 52.2645 31.9156 53.6533C33.129 55.0956 34.6337 56.0571 36.3326 56.8049C36.9636 57.1254 37.9829 56.8583 38.5654 56.4844C39.1478 56.1105 39.7303 55.3092 39.9245 54.5614C40.0701 53.7602 40.0701 52.7987 39.6332 52.1042C39.1964 51.3564 38.6139 50.9825 37.8858 50.6086C38.7595 50.9825 37.7888 50.5552 37.6431 50.4483C37.449 50.3415 37.2548 50.1813 37.0607 50.0744C36.9636 50.021 36.8665 49.9142 36.7694 49.8608C36.2841 49.4868 37.1578 50.2347 36.8665 49.9676C36.6724 49.7539 36.4297 49.5403 36.2355 49.3266C36.0414 49.1129 35.8472 48.8993 35.7016 48.6856C35.653 48.6322 35.556 48.4185 35.4589 48.3651C35.8957 48.6856 35.7501 48.7924 35.556 48.4719C35.2162 47.9912 34.9735 47.457 34.7308 46.8694C34.6823 46.7626 34.6337 46.6023 34.5852 46.4955C34.925 46.9763 34.7794 46.9763 34.6337 46.6558C34.5367 46.3887 34.4396 46.1216 34.391 45.8545C34.3425 45.5874 34.294 45.3738 34.2454 45.1067C34.1969 44.9464 34.1969 44.7862 34.1483 44.6259C34.0998 44.252 34.1969 45.3738 34.1969 44.7862C34.1483 44.252 34.1483 43.7713 34.1969 43.2371C34.1969 43.0768 34.2454 42.97 34.2454 42.8098C34.2454 42.3824 34.0998 43.5576 34.1969 43.1837C34.2454 42.8632 34.294 42.5427 34.3425 42.2756C34.4396 41.7948 34.5852 41.3141 34.7308 40.8868C34.7793 40.7265 34.8279 40.6197 34.8764 40.4594C34.8764 40.5128 34.5852 41.2073 34.7793 40.7265C34.8764 40.4594 35.022 40.1923 35.1191 39.9253C35.3618 39.4445 35.6045 38.9638 35.8957 38.5364C35.9443 38.4296 36.0414 38.3228 36.0899 38.2693C36.3326 37.842 35.9443 38.483 35.9443 38.483C36.1384 38.2693 36.3326 37.9488 36.5267 37.7352C36.818 37.3613 37.1578 36.9873 37.4975 36.6668C37.5946 36.56 37.6917 36.5066 37.7888 36.3998C38.08 36.1327 37.1578 36.8805 37.6431 36.5066C37.8858 36.3463 38.08 36.1861 38.3227 36.0258C38.5168 35.919 38.6625 35.8122 38.8566 35.7053C38.9537 35.6519 39.0993 35.5985 39.1964 35.4917C39.5362 35.278 38.4683 35.7588 39.0022 35.5985C39.4391 35.4383 39.8759 35.278 40.3613 35.1712C40.4584 35.1712 40.9923 35.0644 40.4099 35.1712C39.9245 35.278 40.2642 35.1712 40.4099 35.1712C40.6526 35.1712 40.8952 35.1712 41.1379 35.1712C41.2836 35.1712 42.1087 35.278 41.5262 35.1712C40.9438 35.0644 41.7204 35.2246 41.866 35.278C42.0602 35.3314 42.2058 35.3849 42.3999 35.4383C43.031 35.7053 41.8175 35.1178 42.3514 35.3849C42.6912 35.5985 43.031 35.7588 43.3707 36.0258C43.9532 36.4532 42.8853 35.5451 43.3222 35.9724C43.4678 36.1327 43.6134 36.2395 43.759 36.3998C44.0503 36.6668 44.2444 36.9873 44.5357 37.3078C43.8561 36.4532 44.39 37.0942 44.5357 37.3613C44.6327 37.5215 44.7298 37.6818 44.8269 37.842C45.0696 38.2693 45.2637 38.6967 45.4579 39.124C45.7491 39.8184 45.2637 38.5898 45.4094 39.0172C45.4579 39.2308 45.555 39.4445 45.6035 39.6582C45.7491 40.0855 45.8462 40.5663 45.9918 41.047C46.0889 41.4743 46.186 41.9551 46.2345 42.3824C46.3316 43.1303 46.186 41.7948 46.2345 42.2756C46.2831 42.5427 46.2831 42.8098 46.2831 43.0768C46.3316 43.9849 46.3316 44.893 46.2345 45.8011C46.186 46.2818 46.3801 44.893 46.2345 45.6408C46.186 45.8545 46.1374 46.1216 46.0889 46.3353C45.9918 46.7092 45.8947 47.1365 45.7977 47.5104C45.7491 47.6173 45.7006 47.7241 45.7006 47.8309C45.6035 48.2048 46.0404 47.0297 45.8462 47.5104C45.7491 47.7241 45.6521 47.9378 45.555 48.1514C45.4579 48.3651 45.3608 48.5788 45.2152 48.739C45.0696 49.0061 44.8269 49.0595 45.3123 48.5788C45.2152 48.6856 45.1181 48.8458 44.9725 49.0061C44.7784 49.2198 44.5842 49.4334 44.39 49.6471C44.293 49.7539 44.2444 49.8073 44.1473 49.8608C43.7105 50.2881 44.7298 49.4334 44.1959 49.8073C43.662 50.1278 43.1766 50.3949 42.6912 50.662C42.1573 50.9291 43.2251 50.4483 42.8368 50.6086C42.6912 50.662 42.5456 50.7154 42.3514 50.7688C42.0602 50.8757 41.7689 50.9825 41.4777 51.0359C41.3806 51.0359 41.2836 51.0893 41.1379 51.0893C40.8467 51.1427 40.4584 51.0359 41.235 51.0893C40.9438 51.0893 40.7011 51.1428 40.4099 51.1428C40.1186 51.1428 39.8759 51.1428 39.5847 51.1428C39.4876 51.1428 39.342 51.1427 39.2449 51.0893C38.6625 51.0359 39.8759 51.2496 39.342 51.0893C38.8081 50.9825 38.2741 50.8223 37.7402 50.6086C37.0607 50.3415 36.0899 50.5552 35.5074 50.9291C34.925 51.303 34.3425 52.1042 34.1483 52.8521C33.9057 54.7217 34.7794 56.1639 36.3326 56.8049Z" fill="#FBF6BE"/>
<path d="M258.64 52.3178C258.931 53.9737 259.805 55.3626 261.018 56.2706C262.086 57.0719 263.397 57.339 264.659 57.4458C267.668 57.7129 270.338 56.1104 272.425 53.9737C276.26 50.0743 278.687 44.519 278.832 38.75C278.881 35.8655 278.056 32.9276 275.968 31.0046C274.9 30.0431 273.687 29.1884 272.328 28.8679C270.92 28.6008 269.61 28.6008 268.251 28.9213C267.134 29.1884 265.969 29.7226 264.999 30.4704C263.639 31.5387 262.717 32.8742 262.135 34.5835C261.067 37.6282 261.746 41.314 263.785 43.6643C265.969 46.1749 269.561 47.2432 272.619 46.442C275.58 45.6942 278.298 42.8631 278.784 39.4978C276.891 39.2307 274.949 38.9102 273.056 38.6432C273.056 38.75 273.007 38.9102 273.007 39.0171C272.959 39.4978 273.105 38.4295 273.007 38.9102C272.959 39.1239 272.959 39.391 272.91 39.6047C272.862 40.1388 272.765 40.7264 272.668 41.2606C272.522 42.4357 272.376 43.6109 272.231 44.7861C272.037 46.7091 271.94 48.5252 272.231 50.4482C272.716 53.7066 274.949 56.3775 277.861 57.1787C279.997 57.7663 282.181 57.4992 284.317 56.9651C285.822 56.5911 286.841 54.6147 286.356 53.0122C285.87 51.3029 284.366 50.3948 282.764 50.7687C282.521 50.8221 282.23 50.8756 281.939 50.9824C281.793 50.9824 281.696 51.0358 281.55 51.0358C281.211 51.0892 281.308 51.0892 281.793 50.9824C281.405 50.929 280.871 51.0892 280.434 51.0892C280.24 51.0892 280.046 51.0892 279.803 51.0358C279.026 50.9824 280.337 51.1426 279.851 51.0358C279.512 50.929 279.172 50.8756 278.832 50.7153C278.395 50.5551 279.56 51.1426 278.978 50.7687C278.832 50.6619 278.735 50.6085 278.589 50.5016C278.007 50.1277 279.026 50.9824 278.735 50.6619C278.638 50.5551 278.541 50.4482 278.395 50.3414C278.153 50.0743 278.104 49.7004 278.492 50.5551C278.444 50.3948 278.347 50.288 278.25 50.1811C278.153 50.0209 278.104 49.9141 278.056 49.7538C277.764 49.1128 278.25 50.4482 278.153 49.9675C278.056 49.647 277.958 49.3265 277.91 49.006C277.861 48.8457 277.861 48.6855 277.813 48.5252C278.056 49.5936 277.861 49.0594 277.861 48.7389C277.813 47.7774 277.861 46.7625 277.958 45.801C278.007 45.2134 278.056 44.6258 278.153 44.0382C278.201 43.6643 278.201 43.7712 278.104 44.2519C278.104 44.0917 278.153 43.9848 278.153 43.8246C278.201 43.5575 278.25 43.237 278.25 42.9699C278.444 41.5277 278.638 40.0854 278.784 38.6432C278.881 37.8953 278.395 36.8804 277.91 36.3997C277.424 35.9189 276.891 35.5984 276.26 35.4916C274.949 35.2779 273.299 36.186 273.056 37.7885C273.007 38.0022 272.959 38.2692 272.91 38.4829C272.91 38.5897 272.862 38.6432 272.813 38.75C272.716 39.1239 273.105 38.109 272.91 38.4829C272.813 38.6432 272.716 38.8568 272.619 39.0171C272.571 39.1239 272.474 39.2307 272.425 39.3376C272.474 39.2307 272.813 38.8034 272.571 39.1239C272.425 39.2842 272.279 39.4978 272.085 39.6581C271.745 40.032 272.619 39.2307 272.085 39.6581C271.94 39.7649 271.745 39.8717 271.6 39.9786C271.503 40.032 271.357 40.0854 271.309 40.1388C271.406 40.0854 271.891 39.8717 271.503 40.032C271.26 40.0854 271.066 40.1922 270.823 40.2457C270.726 40.2457 270.629 40.2991 270.581 40.2991C270.192 40.4059 271.212 40.2457 270.823 40.2457C270.629 40.2457 270.435 40.2457 270.192 40.2457C270.095 40.2457 269.95 40.2457 269.852 40.2457C269.464 40.1922 269.998 40.2457 270.095 40.2991C269.707 40.1388 269.221 40.032 268.785 39.9252C268.493 39.8183 269.076 40.0854 269.076 40.0854C268.979 40.032 268.833 39.9786 268.736 39.9252C268.542 39.8183 268.299 39.6581 268.105 39.5512C268.057 39.5512 267.862 39.3376 267.814 39.3376C267.862 39.3376 268.348 39.8183 268.008 39.4978C267.862 39.3376 267.717 39.1773 267.571 39.0171C267.134 38.4829 267.814 39.4978 267.571 39.0171C267.523 38.9102 267.474 38.8034 267.426 38.6966C267.231 38.3227 267.474 38.75 267.474 38.9102C267.425 38.6432 267.328 38.3761 267.28 38.1624C267.28 38.0556 267.231 37.9487 267.231 37.8419C267.134 37.4146 267.28 38.5363 267.28 38.109C267.28 37.8953 267.28 37.6282 267.28 37.4146C267.28 37.1475 267.425 36.9338 267.231 37.6817C267.28 37.5748 267.28 37.4146 267.28 37.3077C267.328 37.0941 267.474 36.7736 267.474 36.5599C267.474 36.5599 267.231 37.1475 267.377 36.8804C267.426 36.7736 267.474 36.6133 267.571 36.5065C267.668 36.3462 267.911 36.0792 267.911 35.9189C267.911 35.9723 267.474 36.4531 267.765 36.186C267.814 36.1326 267.911 36.0257 267.959 35.9723C268.008 35.9189 268.105 35.8121 268.202 35.7587C268.154 35.8121 267.571 36.186 267.959 35.9723C268.105 35.8655 268.251 35.7587 268.445 35.6518C268.493 35.5984 268.59 35.5984 268.639 35.545C269.027 35.2779 268.445 35.6518 268.396 35.6518C268.59 35.5984 268.785 35.4916 269.027 35.3847C269.221 35.3313 269.464 35.2779 269.658 35.2245C269.804 35.1711 270.483 35.0642 269.901 35.1711C269.367 35.2779 269.998 35.1711 270.144 35.1711C270.338 35.1711 270.581 35.1711 270.775 35.1711C271.26 35.1711 270.483 35.1177 270.483 35.1177C270.581 35.1711 270.678 35.1711 270.775 35.1711C270.92 35.2245 271.114 35.2779 271.26 35.3313C271.503 35.3847 270.92 35.1711 270.92 35.1711C270.969 35.2245 271.114 35.2779 271.212 35.3313C271.406 35.4382 271.6 35.5984 271.843 35.7587C272.231 36.0257 271.697 35.6518 271.648 35.5984C271.697 35.6518 271.843 35.7587 271.891 35.8121C272.037 35.9723 272.182 36.0792 272.279 36.2394C272.716 36.7202 272.037 35.7587 272.279 36.186C272.376 36.3997 272.522 36.5599 272.619 36.7736C272.668 36.827 272.716 36.9872 272.765 37.0941C272.716 37.0407 272.522 36.3462 272.668 36.827C272.716 37.0407 272.765 37.2009 272.813 37.4146C272.813 37.5214 272.862 37.5748 272.862 37.6817C272.959 38.2158 272.813 37.4146 272.813 37.3612C272.765 37.5748 272.862 37.8953 272.862 38.1624C272.862 38.6966 272.862 39.2307 272.813 39.7115C272.813 39.8717 272.668 40.2991 272.765 40.4593C272.765 40.4059 272.862 39.6581 272.813 40.2457C272.813 40.4059 272.765 40.5127 272.765 40.673C272.619 41.6879 272.328 42.6494 272.037 43.6109L271.891 43.9848C271.891 43.9848 272.182 43.237 271.988 43.7712C271.891 43.9848 271.794 44.1985 271.697 44.4122C271.503 44.8929 271.26 45.3202 271.017 45.801C270.775 46.2283 270.532 46.7091 270.241 47.1364C270.192 47.2432 270.144 47.2967 270.095 47.4035C269.755 47.8842 270.192 47.2966 270.192 47.2432C270.192 47.4035 269.804 47.7774 269.707 47.8842C269.319 48.365 268.979 48.7923 268.542 49.2196C268.348 49.4333 268.105 49.647 267.911 49.8606C267.814 49.9141 267.765 50.0209 267.668 50.0743C267.426 50.3414 268.154 49.7004 267.717 50.0209C267.231 50.3948 266.795 50.6619 266.309 50.9824C266.018 51.1426 266.552 50.8756 266.552 50.8756C266.455 50.8756 266.212 50.9824 266.115 51.0358C265.969 51.0892 265.872 51.0892 265.727 51.1426C265.678 51.1426 265.581 51.1961 265.532 51.1961C265.29 51.2495 265.387 51.2495 265.824 51.1426C265.63 51.0892 265.29 51.1426 265.096 51.1426C264.901 51.1426 264.659 51.0892 264.465 51.0892C263.979 51.0358 264.756 51.1426 264.804 51.1426C264.707 51.0892 264.562 51.0892 264.465 51.0892C264.319 51.0358 263.737 50.8221 264.222 51.0358C264.853 51.3563 263.979 50.929 263.979 50.8756C263.979 50.8221 264.465 51.4097 264.319 51.1426C264.27 51.0892 264.173 50.929 264.076 50.8756C264.125 50.929 264.465 51.57 264.319 51.1426C264.27 51.0358 264.222 50.929 264.173 50.8756C264.562 51.4097 264.368 51.4631 264.319 51.1961C264.27 51.0358 264.222 50.8221 264.222 50.6619C263.931 49.006 262.038 47.9376 260.63 48.4184C259.028 48.9526 258.3 50.5551 258.64 52.3178Z" fill="#FBF6BE"/>
</svg>
