<svg width="222" height="41" viewBox="0 0 222 41" fill="none" xmlns="http://www.w3.org/2000/svg">
<path d="M157.523 22.0011C157.187 24.1645 156.888 26.3279 156.701 28.4912C156.552 30.3189 156.328 32.1466 156.328 33.937C156.328 35.3171 156.515 36.7717 157.187 38.0026C157.859 39.2335 159.092 40.0541 160.399 40.4644C163.2 41.3596 166.86 40.7628 168.429 38.0026C169.325 36.3987 169.512 34.1981 168.877 32.445C168.205 30.6546 166.785 29.2372 164.843 28.8269C162.602 28.342 160.137 28.7896 158.345 30.2816C157.112 31.2887 156.365 32.9299 156.403 34.5338C156.44 35.6901 157.411 36.809 158.643 36.7717C159.839 36.7344 160.922 35.802 160.884 34.5338C160.884 34.4219 160.884 34.3473 160.884 34.2727C160.884 33.8624 160.81 34.6457 160.847 34.5338C160.922 34.31 160.959 34.1235 161.034 33.8997C161.146 33.6013 160.772 34.4592 160.959 34.0862C160.996 33.9743 161.071 33.8997 161.108 33.7878C161.146 33.7505 161.146 33.7132 161.183 33.6759C161.333 33.3775 160.996 33.9743 160.996 33.937C160.996 33.8997 161.22 33.6759 161.258 33.6386C161.295 33.6013 161.37 33.564 161.407 33.5267C161.557 33.3775 161.146 33.7878 161.146 33.7132C161.146 33.6759 161.445 33.5267 161.482 33.4894C161.594 33.4148 161.743 33.3775 161.855 33.3029C161.855 33.3029 161.295 33.4894 161.631 33.4148C161.706 33.3775 161.781 33.3775 161.855 33.3402C162.005 33.3029 162.154 33.2656 162.341 33.2283C162.565 33.191 163.051 33.191 162.416 33.191C162.789 33.191 163.2 33.1164 163.573 33.1537C163.648 33.1537 163.76 33.191 163.835 33.1537C163.872 33.1537 163.312 33.0418 163.536 33.1164C163.685 33.1537 163.835 33.191 163.984 33.2283C164.096 33.2656 164.246 33.3029 164.358 33.3402C163.723 33.1537 164.134 33.2283 164.358 33.3775C164.432 33.4148 164.47 33.4521 164.545 33.4894C164.769 33.6386 164.171 33.1164 164.32 33.3402C164.395 33.4148 164.507 33.5267 164.582 33.6013C164.806 33.8251 164.432 33.4148 164.432 33.3775C164.47 33.4521 164.507 33.4894 164.545 33.5267C164.619 33.6386 164.694 33.7505 164.731 33.8997C164.881 34.1981 164.619 33.6759 164.619 33.6386C164.619 33.7132 164.657 33.7878 164.694 33.8251C164.731 33.9743 164.769 34.1235 164.806 34.2727C164.806 34.3473 164.806 34.4219 164.843 34.4965C164.843 34.4965 164.806 33.9743 164.806 34.1981C164.806 34.3846 164.843 34.5711 164.843 34.7576C164.843 34.9068 164.806 35.1306 164.806 35.2798C164.806 35.2798 164.881 34.7949 164.843 35.0187C164.843 35.0933 164.806 35.2052 164.806 35.2798C164.769 35.429 164.731 35.5409 164.694 35.6901C164.619 36.0258 164.769 35.5036 164.806 35.4663C164.769 35.5409 164.731 35.6155 164.694 35.6901C164.657 35.7647 164.358 36.2122 164.619 35.8393C164.881 35.5036 164.619 35.8393 164.545 35.9139C164.47 35.9885 164.358 36.1376 164.283 36.1749C164.246 36.1749 164.806 35.8393 164.507 35.9885C164.432 36.0258 164.395 36.0631 164.32 36.1004C164.246 36.1376 164.134 36.2122 164.059 36.2495C163.76 36.3987 164.358 36.1003 164.358 36.1376L164.208 36.2122C163.984 36.2868 163.76 36.3241 163.536 36.3987C163.312 36.436 162.901 36.436 163.723 36.3987C163.648 36.3987 163.536 36.436 163.461 36.436C163.237 36.4733 163.013 36.4733 162.789 36.436C162.677 36.436 162.192 36.3614 162.677 36.436C163.125 36.5106 162.677 36.436 162.565 36.3987C162.304 36.3614 162.042 36.2868 161.818 36.2122C161.743 36.175 161.631 36.1376 161.557 36.1004C161.295 36.0258 161.855 36.2122 161.855 36.2495C161.855 36.2495 161.743 36.2122 161.706 36.1749C161.519 36.1003 161.37 35.9885 161.221 35.8766C161.818 36.2122 161.594 36.1749 161.407 35.9885C161.333 35.9139 161.295 35.8766 161.258 35.802C160.996 35.5409 161.594 36.3241 161.407 35.9885C161.37 35.9139 161.295 35.802 161.258 35.7274C161.071 35.3171 161.22 35.6155 161.258 35.7274C161.445 36.1749 161.295 35.7647 161.258 35.6528C161.183 35.429 161.146 35.2052 161.108 35.0187C161.034 34.5711 161.146 35.5409 161.146 35.2052C161.146 35.0933 161.108 34.9441 161.108 34.8322C161.071 34.5338 161.071 34.2727 161.071 33.9743C161.071 32.2212 161.258 30.4308 161.407 28.6777C161.482 27.7079 161.594 26.7755 161.706 25.8057C161.743 25.5446 161.781 25.3208 161.818 25.0597C161.855 24.7986 161.781 25.2462 161.781 25.2462C161.818 25.097 161.818 24.9105 161.855 24.7613C161.93 24.2391 162.005 23.7169 162.08 23.232C162.192 22.6352 162.192 22.0757 161.855 21.5162C161.594 21.0686 161.034 20.621 160.511 20.4718C159.204 20.2107 157.71 20.7702 157.523 22.0011Z" fill="#37426F"/>
<path d="M47.6447 27.3349C47.682 27.0738 47.7567 26.85 47.8314 26.5889C47.8688 26.4398 47.9435 26.2906 47.9808 26.1414C48.0555 25.9176 47.682 26.7754 47.8688 26.3652C47.9061 26.2533 47.9808 26.1787 48.0182 26.0668C48.0555 25.9922 48.2423 25.5819 48.3543 25.5819C48.3916 25.5819 47.9435 26.0668 48.1302 25.843C48.1676 25.8057 48.2049 25.7684 48.2423 25.7311C48.3169 25.6565 48.3916 25.5446 48.5037 25.47C48.5784 25.3954 48.9145 25.1343 48.5784 25.3954C48.2049 25.6938 48.6157 25.3581 48.7278 25.3208C48.8398 25.2462 48.9519 25.1716 49.0639 25.1343C49.1386 25.097 49.176 25.0597 49.2507 25.0597C49.5494 24.9105 48.8025 25.2462 49.0639 25.1343C49.3627 25.0224 49.6241 24.9478 49.9229 24.8732C50.0723 24.8359 50.2591 24.7986 50.4085 24.7613C50.7072 24.724 49.9229 24.7986 50.2217 24.7986C50.3338 24.7986 50.4458 24.7613 50.5578 24.7613C50.9313 24.724 51.3048 24.7613 51.6783 24.7613C52.0518 24.7613 51.4542 24.724 51.4169 24.724C51.4916 24.7613 51.6036 24.7613 51.6783 24.7613C51.8277 24.7986 52.0144 24.8359 52.1638 24.9105C52.5 24.9851 51.9397 24.7986 51.9397 24.7986C52.0144 24.8359 52.0518 24.8732 52.1265 24.8732C52.2385 24.9478 52.3879 25.0224 52.5 25.097C52.9481 25.3954 52.2012 24.7986 52.4626 25.0597C52.5747 25.1716 52.724 25.2835 52.8361 25.3954C53.0228 25.5819 53.0975 25.8803 52.7987 25.3208C52.8734 25.4327 52.9481 25.5446 53.0228 25.6565C53.0228 25.6938 53.2096 25.9922 53.2096 25.9922C53.2096 25.9922 52.9855 25.4327 53.0975 25.7311C53.1349 25.8057 53.1722 25.9176 53.1722 25.9922C53.2096 26.1041 53.2469 26.2533 53.2469 26.3652C53.2469 26.4025 53.2469 26.5516 53.2843 26.5516C53.2843 26.5516 53.2469 25.9176 53.2469 26.2533C53.2469 26.3652 53.2469 26.5143 53.2469 26.6262C53.2469 26.7008 53.2469 26.7381 53.2469 26.8127C53.2469 27.1484 53.359 26.2906 53.2843 26.5516C53.2469 26.6635 53.2469 26.8127 53.2096 26.9246C53.1722 27.0365 53.0228 27.4841 53.1722 27.0738C53.359 26.6635 53.1349 27.1111 53.0975 27.1857C53.0228 27.2976 52.9481 27.4468 52.8734 27.5587C53.2096 26.9992 53.0228 27.3349 52.8734 27.5214C52.7987 27.596 52.6867 27.7079 52.612 27.7825C52.3879 28.0063 52.2012 28.2301 52.0144 28.4539C51.4542 29.088 50.9313 29.7967 50.4831 30.5054C49.4747 32.1839 49.0266 34.1608 49.4747 36.1003C49.8482 37.7042 50.7446 39.0843 52.1265 39.9795C53.471 40.8374 55.189 41.0612 56.7577 40.9866C58.5504 40.912 60.3057 40.5763 62.0611 40.3152C63.2189 40.1287 63.9659 38.6367 63.6297 37.555C63.2189 36.2868 62.0985 35.8019 60.866 35.9884C60.0817 36.1003 59.3347 36.2495 58.5504 36.3614C57.9902 36.436 59.0733 36.2868 58.513 36.3614C58.3636 36.3987 58.1769 36.3987 58.0275 36.436C57.654 36.4733 57.3179 36.5106 56.9444 36.5106C56.6083 36.5106 56.3095 36.5479 55.9733 36.5106C55.824 36.5106 55.6746 36.5106 55.5625 36.4733C55.4878 36.4733 55.4131 36.4733 55.3384 36.436C54.9276 36.3987 55.936 36.5479 55.5252 36.4733C55.2637 36.436 55.0023 36.3614 54.7782 36.2868C54.7035 36.2495 54.6662 36.2495 54.5915 36.2122C54.2553 36.1003 54.8902 36.3241 54.8529 36.3241C54.7409 36.3241 54.5541 36.1749 54.4421 36.1003C54.4047 36.063 54.33 36.0257 54.2927 35.9884C53.9939 35.8392 54.5541 36.1749 54.5168 36.1749C54.4421 36.1376 54.33 35.9884 54.2553 35.9138C54.218 35.8765 54.1806 35.8019 54.1433 35.7646C53.8818 35.5035 54.4421 36.1749 54.2927 35.9511C54.218 35.8392 54.1433 35.69 54.0686 35.5781C53.9939 35.4662 53.9565 35.317 53.8818 35.2052C54.218 35.8392 53.9565 35.3543 53.8818 35.1679C53.8445 35.0187 53.8071 34.8695 53.7698 34.683C53.7325 34.5711 53.7324 34.2727 53.7324 34.6457C53.7698 35.056 53.7324 34.5338 53.7324 34.4592C53.7324 34.3473 53.8071 33.7878 53.7324 34.1608C53.6578 34.5711 53.8071 33.8997 53.8071 33.8251C53.8445 33.6386 53.9192 33.4894 53.9565 33.3402C54.0312 33.1164 54.1059 33.2656 53.8818 33.5267C53.9565 33.4521 53.9939 33.3029 54.0312 33.2283C54.1806 32.8926 54.4047 32.5942 54.5915 32.2585C54.7035 32.1093 54.7782 31.9974 54.8902 31.8482C54.4794 32.445 54.8902 31.8855 55.0023 31.7363C55.9733 30.58 57.0191 29.6475 57.4673 28.1928C57.9528 26.6635 57.6914 24.9478 56.9818 23.5304C55.3758 20.3226 51.2675 19.5393 48.0929 20.6583C45.6279 21.5162 43.8725 23.4931 43.387 26.0668C43.1629 27.223 43.7231 28.5285 44.9556 28.8269C46.0014 29.1626 47.3832 28.5658 47.6447 27.3349Z" fill="#37426F"/>
<path d="M72.556 27.0739C72.6307 26.8874 72.9295 26.2533 72.5933 26.9247C72.668 26.7755 72.7427 26.589 72.8174 26.4398C72.8921 26.2906 72.9668 26.1414 73.0789 25.9922C73.1162 25.9176 73.1536 25.8803 73.1909 25.8057C73.2283 25.7311 73.2656 25.6938 73.303 25.6192C73.0789 25.9176 73.0042 25.9922 73.1162 25.843C73.2283 25.7311 73.3403 25.6192 73.4524 25.5073C73.4897 25.47 73.5644 25.3954 73.6018 25.3581C73.9005 25.097 73.1909 25.6192 73.4524 25.47C73.6018 25.3954 73.7138 25.2835 73.8632 25.2089C73.9379 25.1716 74.274 25.0224 73.9005 25.1716C73.5271 25.3581 73.9379 25.1716 74.0126 25.1343C74.1993 25.097 74.3861 25.0597 74.5355 25.0224C74.9836 24.9105 74.0873 25.0597 74.3861 25.0597C74.4981 25.0597 74.6102 25.0597 74.7222 25.0224C74.9089 25.0224 75.133 25.0224 75.3198 25.0224C75.4692 25.0224 75.6186 25.0597 75.768 25.0597C76.2161 25.097 75.2824 24.9478 75.7306 25.0597C75.9173 25.097 76.0667 25.1343 76.2535 25.1716C76.3655 25.2089 76.5149 25.2462 76.627 25.2835C76.7764 25.3208 76.8884 25.47 76.4402 25.2089C76.5896 25.3208 76.7764 25.3954 76.9631 25.47C77.0378 25.5073 77.1498 25.6565 77.2245 25.6565C77.1498 25.5819 77.0751 25.5446 76.9631 25.47C77.0378 25.5446 77.1125 25.5819 77.1498 25.6565C77.2992 25.8057 77.4486 25.9549 77.5607 26.1041C77.7848 26.3279 77.2992 25.6565 77.5233 26.0668C77.5607 26.1414 77.6354 26.2533 77.6727 26.3279C77.7101 26.4025 77.7848 26.5144 77.8221 26.589C77.8595 26.6263 77.8595 26.6636 77.8968 26.7382C78.0089 26.962 77.9715 26.9247 77.8595 26.6263C78.0089 26.7382 78.0462 27.1485 78.0836 27.335C78.1582 27.5588 78.1956 27.8199 78.2329 28.081C78.2703 28.2675 78.1956 28.3794 78.2329 27.9318C78.2329 28.0064 78.2703 28.1183 78.2703 28.2302C78.3076 28.7151 78.3076 29.2372 78.3076 29.7221C78.3076 30.6546 78.3823 31.5498 78.345 32.4823C78.345 32.7061 78.3076 32.9672 78.3076 33.191C78.2703 33.564 78.3076 33.0418 78.345 33.0045C78.3076 33.0791 78.3076 33.2283 78.2703 33.3402C78.2329 33.5267 78.1956 33.7505 78.1209 33.937C78.0835 34.0489 78.0462 34.1608 78.0089 34.2727C77.8221 34.7576 78.1209 34.0489 78.0089 34.2354C77.8968 34.4219 77.8221 34.6084 77.7101 34.7949C77.6727 34.8695 77.598 34.9441 77.5607 35.0187C77.2992 35.429 77.8968 34.683 77.5233 35.0187C77.3739 35.1679 77.2619 35.3171 77.1125 35.429C77.0378 35.4663 76.7017 35.7274 77.0378 35.5036C77.3739 35.2798 76.9258 35.5782 76.8511 35.6155C76.7017 35.6901 76.5896 35.7647 76.4402 35.8393C76.0667 36.0631 76.8884 35.6901 76.5896 35.7647C76.5149 35.802 76.4029 35.8393 76.3282 35.8766C76.1788 35.9139 75.992 35.9885 75.8053 36.0258C75.6933 36.0631 75.6186 36.0631 75.5065 36.0631C75.0957 36.1377 76.0667 36.0258 75.6186 36.0631C74.7596 36.1377 73.9005 36.0631 73.0415 36.1377C72.8174 36.175 73.4524 36.175 73.4524 36.2123C73.4524 36.175 73.303 36.175 73.2656 36.175C73.1536 36.1377 73.0415 36.1004 72.9295 36.0631C73.4524 36.1377 73.415 36.2869 73.1909 36.175C73.1162 36.1377 73.0415 36.1004 72.9668 36.0631C72.8174 35.9885 72.7054 35.8766 72.556 35.802C73.1536 36.1377 72.7054 35.9139 72.556 35.7274C72.5187 35.6901 72.444 35.6155 72.4066 35.5782C72.1825 35.3544 72.556 35.7647 72.556 35.7647C72.5187 35.6528 72.3693 35.3917 72.2946 35.2798C72.5934 35.7274 72.444 35.6901 72.4066 35.5036C72.3693 35.3917 72.3693 35.2425 72.3319 35.1679C72.5187 35.5782 72.3693 35.6155 72.3693 35.3544C72.3693 35.3171 72.4066 35.0187 72.3693 35.0187C72.4066 35.0187 72.2572 35.5782 72.3319 35.1679C72.3693 35.056 72.3693 34.9441 72.4066 34.8322C72.4066 34.7949 72.5187 34.4965 72.5187 34.4965C72.556 34.5338 72.2572 35.0187 72.4813 34.6457C72.5187 34.5711 72.556 34.4965 72.6307 34.3846C72.668 34.31 73.0042 33.8624 72.7801 34.1608C72.556 34.4592 72.9668 33.9743 73.0415 33.8997C73.0789 33.8624 73.1909 33.7878 73.2283 33.7505C73.0042 34.0862 72.8921 33.9743 73.1162 33.8624C73.1909 33.8251 73.303 33.7878 73.3777 33.7132C73.0042 34.0116 72.9668 33.8624 73.1536 33.8251C73.2656 33.7878 73.3777 33.7878 73.4897 33.7505C73.6018 33.7132 74.0873 33.7132 73.7511 33.7132C73.3777 33.6759 73.8632 33.7132 73.9379 33.7132C74.0499 33.7132 74.162 33.7132 74.2367 33.7132C74.4981 33.7132 74.7595 33.7132 75.021 33.7505C75.2451 33.7505 75.2451 33.8624 74.9089 33.7132C74.9836 33.7505 75.133 33.7505 75.2077 33.7505C75.5065 33.8251 75.8053 33.8997 76.1041 34.0116C76.2908 34.0489 76.3282 34.1981 75.992 33.9743C76.1041 34.0489 76.2908 34.1235 76.4029 34.1608C76.6643 34.31 76.8884 34.4592 77.1125 34.6084C77.1498 34.6084 77.1498 34.6457 77.1872 34.6457C77.3739 34.7949 77.3366 34.7576 77.1125 34.5711C77.2245 34.6084 77.3739 34.7949 77.4486 34.8695C77.6354 35.0187 77.8221 35.2052 78.0089 35.3917C78.7558 36.1377 79.4281 36.9956 80.1751 37.7788C80.8847 38.5248 81.6316 39.3081 82.528 39.8676C83.5737 40.539 84.8062 40.8001 86.0387 40.7628C87.1965 40.7255 88.317 39.7557 88.2796 38.5248C88.2423 37.3313 87.3086 36.2496 86.0387 36.2869C85.8893 36.2869 85.7399 36.2869 85.5906 36.2869C85.5532 36.2869 85.5159 36.2869 85.4412 36.2869C85.1797 36.2496 85.2544 36.2869 85.6279 36.3242C85.4412 36.2496 85.2171 36.2496 85.0303 36.175C84.7689 36.1004 84.7689 35.9512 85.1424 36.2123C85.105 36.175 84.993 36.1377 84.9556 36.1004C84.8436 36.0631 84.7689 35.9885 84.6568 35.9139C84.5821 35.8766 84.5448 35.8393 84.4701 35.802C84.5448 35.8766 84.6568 35.9512 84.7315 36.0258C84.4328 35.6901 84.0593 35.3917 83.7605 35.0933C83.387 34.7203 83.0135 34.31 82.6774 33.8997C80.9967 31.9974 79.2413 30.1697 76.7017 29.5356C75.2824 29.1626 73.8258 29.1626 72.4066 29.461C71.0247 29.7221 69.9416 30.6546 69.12 31.7363C67.514 33.937 67.514 36.9956 69.4187 38.9724C70.1284 39.6811 71.0621 40.2406 71.9958 40.539C72.9295 40.8001 74.0126 40.7255 74.9836 40.6882C76.2161 40.6136 77.3739 40.4271 78.4944 39.9422C79.6522 39.42 80.5859 38.5248 81.3329 37.5177C82.7521 35.5409 82.8641 33.0418 82.7894 30.6919C82.7521 29.461 82.7894 28.2302 82.5653 26.962C82.3413 25.5819 81.7063 24.3137 80.8473 23.1947C79.0173 20.9194 75.88 20.248 73.1162 20.8075C70.4645 21.3297 68.9332 23.5304 68.0742 25.9176C67.7007 27.0366 68.5224 28.4167 69.6428 28.6778C71.0621 28.9015 72.1452 28.2302 72.556 27.0739Z" fill="#37426F"/>
<path d="M108.933 28.715C109.045 25.1716 105.796 22.2249 102.658 21.1059C101.015 20.5464 99.1851 20.5091 97.5044 20.8075C95.9731 21.0686 94.4418 21.8146 93.4708 23.0082C91.3419 25.5819 90.7444 29.2372 91.1178 32.4823C91.3046 34.1608 91.6407 36.1004 92.6491 37.4804C93.6575 38.8978 95.1141 39.9422 96.7948 40.3898C99.82 41.2104 103.219 40.3898 105.273 38.0026C106.954 36.0631 107.925 33.7132 108.485 31.2141C109.68 25.5819 109.232 19.3155 106.02 14.4293C104.451 12.0048 102.434 9.95336 100.343 7.97648C99.5212 7.19319 98.6995 6.4099 97.9526 5.55201C97.8779 5.47741 97.8032 5.36551 97.7285 5.25361C97.4297 4.91791 97.9899 5.62661 97.8032 5.32821C97.6538 5.10441 97.5044 4.88061 97.355 4.65682C97.243 4.47032 97.1309 4.24652 97.0189 4.06002C96.9442 3.94812 96.9068 3.83623 96.8321 3.68703C96.7948 3.61243 96.7201 3.42593 96.8695 3.76163C96.9068 3.83623 97.0189 4.13462 96.8695 3.76163C96.6827 3.27673 96.5707 2.75454 96.496 2.23234C96.4213 1.71015 95.8984 1.15066 95.4502 0.889559C94.9647 0.591163 94.2551 0.479264 93.7322 0.665762C93.172 0.85226 92.6491 1.18796 92.3877 1.71015C92.0889 2.26964 92.0516 2.79184 92.1636 3.42593C92.8359 8.01378 97.1683 10.7739 100.044 13.9444C100.492 14.4293 100.903 14.9142 101.314 15.4364C101.575 15.7348 101.015 15.0634 101.351 15.511C101.426 15.6229 101.538 15.7348 101.613 15.884C101.837 16.1824 102.061 16.5181 102.248 16.8165C102.584 17.376 102.92 17.9355 103.219 18.495C103.293 18.6442 103.331 18.7561 103.405 18.9053C103.443 18.9799 103.443 19.0172 103.48 19.0918C103.592 19.3528 103.293 18.6442 103.405 18.9053C103.517 19.2037 103.63 19.4647 103.704 19.7631C103.891 20.3599 104.04 20.9194 104.19 21.5162C104.264 21.8146 104.302 22.0757 104.339 22.3741C104.376 22.5233 104.376 22.6725 104.414 22.8217C104.489 23.3439 104.376 22.3368 104.414 22.8963C104.563 24.1272 104.601 25.3581 104.563 26.589C104.526 27.1858 104.489 27.8199 104.414 28.4166C104.414 28.5285 104.339 29.0507 104.376 28.6404C104.414 28.2301 104.376 28.6777 104.339 28.7896C104.302 29.088 104.227 29.4237 104.19 29.7221C103.966 30.7665 103.704 31.8109 103.331 32.7807C103.293 32.8553 103.293 32.9299 103.256 32.9672C103.181 33.191 103.405 32.6315 103.368 32.6688C103.331 32.7807 103.256 32.8926 103.219 33.0045C103.107 33.2283 103.032 33.4148 102.92 33.6013C102.808 33.7878 102.733 33.937 102.621 34.1235C102.546 34.1981 102.509 34.31 102.434 34.3846C102.36 34.4592 102.024 34.9441 102.248 34.6457C102.472 34.3473 102.21 34.683 102.136 34.7576C102.024 34.8695 101.949 34.9814 101.837 35.0933C101.65 35.2798 101.426 35.4663 101.239 35.6528C101.65 35.2052 101.463 35.4663 101.277 35.6155C101.165 35.6901 101.052 35.7647 100.94 35.802C100.828 35.8393 100.754 35.9139 100.642 35.9512C100.343 36.1004 100.828 35.8766 100.866 35.8766C100.791 35.8766 100.716 35.9139 100.642 35.9512C100.38 36.0258 100.119 36.1004 99.8573 36.175C99.4839 36.2496 100.343 36.1377 99.9694 36.175C99.7827 36.175 99.6332 36.2123 99.4465 36.2123C99.1477 36.2123 98.8489 36.2123 98.5502 36.2123C97.9899 36.175 98.9236 36.2869 98.5502 36.2123C98.3634 36.175 98.214 36.1377 98.0273 36.1004C97.9152 36.0631 97.7658 36.0258 97.6538 35.9885C97.6164 35.9885 97.467 35.9139 97.3924 35.9139C97.3924 35.9139 97.8405 36.1004 97.6164 36.0258C97.3177 35.8766 97.0562 35.7274 96.7948 35.5409C96.4587 35.3171 97.1309 35.8393 96.8321 35.5782C96.7201 35.4663 96.608 35.3917 96.496 35.2798C96.1972 34.7949 96.3466 35.1306 96.496 35.2798C96.4213 35.1679 96.3093 35.0187 96.2346 34.9068C96.1599 34.7949 96.1225 34.6457 96.0105 34.4965C96.0105 34.4965 96.1599 34.9441 96.1225 34.7203C96.0852 34.6084 96.0478 34.4965 96.0105 34.4219C95.8984 34.0862 95.7864 33.7132 95.7117 33.3402C95.637 33.0418 95.5623 32.7434 95.5249 32.445C95.4502 32.072 95.5623 32.9299 95.5249 32.4077C95.4876 32.2212 95.4876 32.0347 95.4876 31.8482C95.4502 31.1395 95.4502 30.4308 95.4876 29.7594C95.4876 29.5729 95.5249 29.3864 95.5249 29.1999C95.5249 29.1253 95.5623 29.0507 95.5623 28.9761C95.5996 29.3864 95.5249 29.3118 95.5623 29.1253C95.637 28.7896 95.6743 28.4166 95.7864 28.0809C95.8611 27.7453 95.9731 27.4469 96.0852 27.1112C96.2346 26.7382 95.8984 27.4842 96.0852 27.1485C96.1599 26.9993 96.2346 26.8128 96.3093 26.6636C96.4586 26.4025 96.608 26.1787 96.7574 25.9549C96.9068 25.7311 96.4213 26.3279 96.6454 26.1041C96.6827 26.0668 96.7201 26.0295 96.7574 25.9549C96.8695 25.843 96.9815 25.7311 97.0936 25.6192C97.1309 25.5819 97.1683 25.5446 97.2056 25.5073C97.355 25.3581 96.9442 25.6938 96.9815 25.6938C97.0936 25.6565 97.2056 25.5446 97.3177 25.47C97.4297 25.3954 97.6165 25.3581 97.7285 25.2835C97.7285 25.2835 97.2803 25.4327 97.5044 25.3954C97.6164 25.3581 97.7285 25.3208 97.8032 25.2835C98.102 25.2089 98.4008 25.1343 98.6995 25.097C98.9236 25.0597 98.4755 25.1343 98.4755 25.1343C98.5502 25.1343 98.7369 25.097 98.7742 25.097C98.961 25.097 99.1104 25.0597 99.2971 25.0597C99.6333 25.0597 99.9694 25.0597 100.306 25.097C100.38 25.097 100.455 25.1343 100.53 25.1343C100.53 25.1343 100.044 25.0597 100.306 25.097C100.492 25.1343 100.679 25.1716 100.866 25.2089C101.165 25.2835 101.426 25.4327 101.725 25.47C101.314 25.3954 101.389 25.3208 101.575 25.3954C101.65 25.4327 101.687 25.47 101.762 25.47C101.949 25.5446 102.098 25.6565 102.248 25.7311C102.509 25.8803 102.771 26.1041 103.032 26.2533C102.995 26.216 102.621 25.9176 102.92 26.1787C102.957 26.216 103.032 26.2906 103.069 26.3279C103.219 26.4398 103.368 26.589 103.48 26.7382C103.592 26.8501 103.667 26.962 103.779 27.0366C103.854 27.1112 103.891 27.1858 103.966 27.2604C104.115 27.5215 103.816 27.1485 103.816 27.1485C103.928 27.4096 104.19 27.6707 104.302 27.9317C104.339 27.969 104.376 28.1182 104.414 28.1555C104.414 28.1555 104.264 27.708 104.302 27.9317C104.339 28.0809 104.376 28.1928 104.414 28.342C104.414 28.4166 104.451 28.4539 104.451 28.5285C104.526 28.715 104.414 28.2301 104.414 28.2301C104.376 28.3793 104.414 28.5658 104.414 28.715C104.376 29.8713 105.46 30.9903 106.655 30.953C107.962 30.9157 108.896 29.9832 108.933 28.715Z" fill="#37426F"/>
<path d="M114.423 33.564C116.739 34.1608 119.055 34.5711 121.445 34.2354C123.611 33.8997 125.59 32.7434 126.786 30.953C127.906 29.2746 128.242 26.8874 127.533 24.9851C126.786 22.8963 125.142 21.479 123.051 20.8449C121.071 20.2481 118.942 20.4719 117.112 21.3671C115.208 22.2995 113.975 24.1272 113.266 26.0295C112.556 27.9318 112.407 30.1325 112.668 32.1093C112.929 34.3473 113.714 36.3988 115.282 38.04C116.627 39.4573 118.457 40.1287 120.324 40.3898C121.482 40.539 122.677 40.7255 123.835 40.7255C124.993 40.7255 126.188 40.5763 127.346 40.4271C127.869 40.3525 128.429 39.8303 128.69 39.3827C128.989 38.8979 129.101 38.1892 128.914 37.667C128.728 37.1075 128.392 36.5853 127.869 36.3242C127.308 36.0258 126.786 36.0258 126.151 36.1004C126.748 36.0258 126.001 36.1004 125.889 36.1377C125.703 36.175 125.516 36.175 125.366 36.2123C124.993 36.2496 124.619 36.2869 124.246 36.2869C123.536 36.2869 122.789 36.2496 122.08 36.175C121.856 36.1377 121.632 36.1377 121.407 36.1004C120.959 36.0258 121.818 36.175 121.295 36.1004C120.959 36.0631 120.623 35.9885 120.25 35.9139C119.951 35.8393 119.689 35.7647 119.391 35.6528C119.017 35.5409 119.876 35.8766 119.465 35.6901C119.316 35.6155 119.167 35.5409 119.017 35.4663C118.905 35.3917 118.793 35.3171 118.681 35.2425C118.457 35.0933 119.054 35.5782 118.868 35.3917C118.83 35.3544 118.756 35.2798 118.681 35.2425C118.42 35.0187 118.233 34.7949 118.009 34.5338C117.859 34.3473 118.158 34.7203 118.158 34.7203C118.121 34.6457 118.046 34.5711 118.009 34.4965C117.897 34.31 117.785 34.1608 117.673 33.9743C117.598 33.8251 117.523 33.6386 117.449 33.4894C117.299 33.2283 117.598 33.8997 117.486 33.6013C117.449 33.4894 117.411 33.3775 117.374 33.2283C117.262 32.8926 117.187 32.5196 117.112 32.1839C117.112 32.1839 117.038 31.8855 117.075 31.8855C117.038 31.9601 117.112 32.3704 117.075 32.0347C117.038 31.8109 117.038 31.6244 117.038 31.4006C117 30.9903 117 30.6173 117 30.2071C117 29.9833 117 29.7595 117.038 29.573C117.038 29.4984 117.038 29.4238 117.038 29.3492C117.038 29.1627 117.187 28.7524 117.038 29.3119C117.15 28.9389 117.15 28.5659 117.262 28.1929C117.299 27.9691 117.374 27.7826 117.449 27.5961C117.486 27.5215 117.486 27.4469 117.523 27.3723C117.598 27.335 117.673 26.962 117.523 27.3723C117.598 27.335 117.785 26.8874 117.822 26.8128C117.897 26.6636 117.971 26.5517 118.083 26.4025C118.121 26.3279 118.195 26.2533 118.233 26.1787C118.345 25.9922 118.083 26.3652 118.083 26.3652C118.233 26.216 118.345 26.0668 118.457 25.9176C118.569 25.8057 118.718 25.6938 118.83 25.5819C119.017 25.4327 118.606 25.7311 118.606 25.7311C118.681 25.6938 118.756 25.6192 118.83 25.5819C118.98 25.5073 119.129 25.3954 119.279 25.3208C119.353 25.2835 119.391 25.2835 119.465 25.2462C119.689 25.1343 118.98 25.4327 119.353 25.2835C119.689 25.1716 119.988 25.097 120.324 25.0224C120.623 24.9478 119.839 25.0597 120.138 25.0597C120.212 25.0597 120.25 25.0597 120.324 25.0597C120.511 25.0597 120.698 25.0224 120.922 25.0597C121.071 25.0597 121.221 25.0597 121.37 25.097C121.744 25.1343 121.183 25.097 121.146 25.0597C121.183 25.097 121.333 25.097 121.407 25.097C121.744 25.1716 122.08 25.3581 122.416 25.3954C122.378 25.3954 121.93 25.1716 122.229 25.3208C122.304 25.3581 122.341 25.3954 122.416 25.3954C122.565 25.47 122.715 25.5446 122.864 25.6565C122.603 25.3954 123.275 25.9176 122.864 25.6565C122.976 25.7684 123.125 25.9176 123.238 26.0668C123.387 26.216 123.088 25.8803 123.088 25.843C123.088 25.8803 123.2 25.9922 123.238 26.0295C123.35 26.216 123.462 26.6636 123.312 26.0668C123.35 26.216 123.424 26.3652 123.462 26.5144C123.499 26.589 123.499 26.7009 123.536 26.7755C123.574 27.0366 123.462 27.0739 123.536 26.6263C123.499 26.9247 123.574 27.2604 123.536 27.5588C123.499 27.9318 123.536 27.4096 123.574 27.3723C123.536 27.4469 123.536 27.5588 123.536 27.6334C123.499 27.8199 123.424 27.9691 123.387 28.1556C123.275 28.4913 123.424 28.0437 123.462 28.0064C123.387 28.081 123.35 28.1929 123.312 28.3048C123.275 28.3794 122.976 28.7524 122.976 28.827C122.976 28.7897 123.35 28.4167 123.088 28.6778C123.013 28.7524 122.976 28.827 122.901 28.8643C122.827 28.9389 122.752 29.0135 122.715 29.0508C122.677 29.0881 122.304 29.3865 122.603 29.1627C122.864 28.9389 122.603 29.1627 122.528 29.2C122.416 29.2746 122.341 29.3119 122.229 29.3865C122.08 29.4984 121.856 29.5357 121.706 29.6476C122.117 29.3865 122.005 29.5357 121.818 29.573C121.706 29.6103 121.594 29.6476 121.482 29.6849C121.258 29.7595 121.071 29.7968 120.847 29.8341C120.735 29.8714 120.66 29.8714 120.548 29.8714C120.25 29.946 120.586 29.8341 120.698 29.8341C120.474 29.7968 120.25 29.8714 120.026 29.8714C119.503 29.8714 119.017 29.8714 118.532 29.7968C118.121 29.7595 118.532 29.7968 118.606 29.7968C118.457 29.7968 118.308 29.7595 118.158 29.7222C117.897 29.6849 117.635 29.6103 117.374 29.573C116.851 29.4611 116.328 29.3119 115.805 29.2C114.685 28.9016 113.303 29.573 113.041 30.7665C112.593 31.9974 113.228 33.2656 114.423 33.564Z" fill="#37426F"/>
<path d="M137.504 38.9725C138.363 36.175 139.185 33.3775 140.007 30.5801C140.455 29.1254 140.903 27.6707 141.351 26.216C141.389 26.0295 141.463 25.8803 141.501 25.6938C141.538 25.6192 141.538 25.5819 141.575 25.5073C141.65 25.2835 141.613 25.3581 141.501 25.6938C141.575 25.6192 141.912 25.0597 141.912 24.9851C141.837 25.0597 141.799 25.1343 141.725 25.2089C141.799 25.1343 141.837 25.0597 141.912 25.0224C141.949 24.9851 141.986 24.9478 142.024 24.9478C142.21 24.7986 142.136 24.8359 141.874 25.0597C141.912 25.0224 141.949 25.0224 141.986 24.9851C142.21 24.8732 142.136 24.9105 141.799 25.0597C141.874 25.0224 141.949 25.0224 142.024 24.9851C141.613 25.0224 141.538 25.0224 141.799 25.0224C141.687 25.0224 141.575 24.9851 141.426 24.9851C141.501 24.9851 141.575 25.0224 141.65 25.0597C141.538 25.0224 141.426 24.9851 141.314 24.9105C141.501 25.0224 141.463 24.9851 141.127 24.7613C141.165 24.8359 141.314 24.9851 141.351 25.0224C140.978 24.7613 141.127 24.724 141.277 24.9851C141.314 25.0224 141.314 25.0597 141.351 25.097C141.463 25.3208 141.426 25.2462 141.277 24.9105C141.277 25.0224 141.351 25.1716 141.389 25.2835C141.463 25.6192 141.538 25.9549 141.575 26.3279C141.762 27.5588 142.024 28.827 142.248 30.0579C142.509 31.3261 142.733 32.5942 142.957 33.8624C143.181 35.2798 143.368 36.6972 144.19 37.9281C144.787 38.8233 145.572 39.6812 146.543 40.1661C148.074 40.912 149.68 40.8747 151.323 40.6136C151.846 40.5391 152.406 40.0169 152.668 39.5693C152.967 39.0844 153.079 38.3757 152.892 37.8535C152.481 36.5853 151.398 36.1004 150.128 36.2869C149.68 36.3615 150.502 36.2496 150.053 36.2869C149.904 36.2869 149.755 36.3242 149.605 36.3242C149.456 36.3242 149.344 36.3242 149.194 36.3242C149.12 36.3242 149.008 36.3242 148.933 36.3242C148.634 36.3242 149.12 36.3242 149.194 36.3615C149.008 36.2869 148.784 36.2869 148.597 36.2123C148.186 36.0631 148.746 36.3242 148.784 36.2869C148.746 36.2869 148.56 36.175 148.522 36.1377C148.447 36.1004 148.373 36.0258 148.298 35.9885C148.186 35.9139 148.784 36.3988 148.485 36.1004C148.373 35.9885 148.261 35.8766 148.149 35.7647C148.074 35.6901 147.775 35.2798 147.999 35.6155C148.261 35.9512 147.962 35.5409 147.887 35.429C147.85 35.3544 147.813 35.3171 147.775 35.2425C147.588 34.9068 147.887 35.5782 147.813 35.3171C147.402 34.0116 147.252 32.6688 147.028 31.3261C146.804 30.0579 146.543 28.827 146.319 27.5588C146.207 26.8874 146.057 26.1787 145.945 25.5073C145.833 24.9105 145.796 24.2764 145.572 23.6796C144.937 21.9639 143.592 20.5092 141.613 20.5465C139.895 20.5838 138.326 21.852 137.616 23.3812C136.944 24.8359 136.533 26.4771 136.085 28.0064C135.077 31.2515 134.143 34.5338 133.135 37.7789C132.799 38.8979 133.545 40.278 134.703 40.5391C135.973 40.8001 137.168 40.1661 137.504 38.9725Z" fill="#37426F"/>
<path d="M177.616 38.3011C177.728 36.175 177.915 34.0489 178.139 31.9228C178.289 30.4309 178.438 28.9389 178.625 27.4469C178.662 27.0739 178.737 26.6636 178.774 26.2906C178.811 26.1041 178.811 25.8803 178.849 25.6938C178.923 25.2089 178.774 26.1787 178.849 25.6192C178.961 24.8359 179.073 24.0899 179.185 23.3066C179.297 22.7098 179.297 22.1503 178.961 21.5909C178.699 21.1433 178.139 20.6957 177.616 20.5465C176.458 20.2854 175.189 20.8822 174.852 22.113C174.554 23.3066 174.33 24.5002 174.255 25.7311C174.218 26.7755 174.143 27.8945 174.33 28.9389C174.554 30.2444 175.114 31.5498 176.085 32.4823C176.981 33.3402 178.102 33.8997 179.26 34.2727C183.816 35.7274 190.091 34.0116 191.622 29.0881C192.219 27.2231 192.331 25.2462 192.668 23.3439C192.78 22.7471 192.78 22.1876 192.444 21.6282C192.182 21.1806 191.622 20.733 191.099 20.5838C189.979 20.3227 188.597 20.9195 188.335 22.1503C187.924 24.2764 187.626 26.4398 187.289 28.5659C187.028 30.2444 186.692 31.9228 186.542 33.6386C186.468 34.8695 186.468 36.2123 186.879 37.3686C187.439 38.8979 188.447 40.0168 189.979 40.5763C191.622 41.1731 193.564 40.912 195.207 40.539C196.365 40.2779 197.112 38.8979 196.776 37.7789C196.402 36.5853 195.245 35.9512 194.012 36.2123C193.825 36.2496 193.639 36.2869 193.489 36.3242C193.415 36.3242 192.705 36.4361 193.153 36.3988C193.601 36.3242 193.004 36.3988 192.929 36.4361C192.78 36.4361 192.593 36.4734 192.444 36.4734C192.182 36.4734 191.883 36.4734 191.622 36.4361C191.36 36.4361 192.219 36.548 191.958 36.4734C191.921 36.4734 191.846 36.4734 191.809 36.4361C191.659 36.3988 191.547 36.3615 191.435 36.3242C191.323 36.2869 190.95 36.1377 191.398 36.3242C191.846 36.5107 191.472 36.3615 191.36 36.2869C191.323 36.2869 191.136 36.1004 191.099 36.1377C191.099 36.1377 191.547 36.548 191.398 36.3615C191.36 36.3242 191.323 36.2869 191.286 36.2496C191.211 36.175 190.987 35.8766 191.248 36.2496C191.547 36.6226 191.286 36.2869 191.248 36.2123C191.211 36.1377 191.174 36.0631 191.136 35.9885C191.024 35.7647 191.398 36.6599 191.211 36.1377C191.136 35.9512 191.099 35.7647 191.062 35.5409C191.024 35.3171 191.062 34.9814 191.062 35.7274C191.062 35.5782 191.024 35.429 191.024 35.3171C190.987 34.7576 191.024 34.2354 191.062 33.6759C191.099 33.3775 191.099 33.1164 191.136 32.818C191.136 32.6688 191.174 32.5196 191.211 32.3704C191.136 33.1537 191.211 32.445 191.248 32.2585C191.36 31.5125 191.51 30.7665 191.622 30.0206C191.995 27.8199 192.257 25.5819 192.705 23.3812C191.248 22.9709 189.829 22.5979 188.373 22.1876C188.111 23.7915 187.962 25.4327 187.588 26.9993C187.514 27.2977 187.439 27.5588 187.364 27.8572C187.327 28.0064 187.252 28.1929 187.215 28.3421C187.065 28.7524 187.476 27.8572 187.252 28.2302C187.177 28.3421 187.14 28.4167 187.065 28.5286C186.991 28.6032 186.916 28.7151 186.879 28.827C186.879 28.7897 187.252 28.4167 186.991 28.6405C186.841 28.7897 186.729 28.9389 186.58 29.0881C186.505 29.1627 186.356 29.2373 186.281 29.3119C186.318 29.2746 186.729 28.9762 186.43 29.2C186.206 29.3492 185.982 29.4984 185.758 29.6103C185.609 29.6849 185.273 29.7968 185.161 29.9087C185.422 29.6476 185.534 29.7595 185.235 29.8714C185.123 29.9087 185.011 29.946 184.899 29.9833C184.376 30.1698 183.853 30.2817 183.331 30.3563C182.882 30.4309 183.779 30.319 183.48 30.319C183.368 30.319 183.256 30.3563 183.144 30.3563C182.92 30.3563 182.696 30.3563 182.472 30.3563C182.247 30.3563 182.023 30.3563 181.799 30.319C181.725 30.319 181.276 30.2444 181.687 30.319C182.098 30.3936 181.538 30.2817 181.463 30.2817C181.015 30.2071 180.604 30.0952 180.193 29.946C180.119 29.9087 180.044 29.8714 179.969 29.8714C180.455 29.946 180.268 30.0206 180.044 29.9087C179.82 29.7968 179.633 29.6849 179.409 29.573C179.334 29.5357 179.297 29.4611 179.222 29.4611C179.67 29.6849 179.521 29.7222 179.334 29.5357C179.185 29.4238 179.11 29.2746 178.961 29.1627C179.372 29.5357 179.222 29.5357 179.148 29.3865C179.11 29.3119 179.035 29.2 178.998 29.1254C178.849 28.9016 179.035 29.2373 179.035 29.2373C178.923 29.0508 178.886 28.7897 178.811 28.5659C178.774 28.454 178.774 28.3421 178.737 28.2302C178.699 27.9691 178.699 28.0064 178.737 28.3048C178.737 28.2302 178.737 28.1556 178.737 28.0437C178.737 27.8199 178.737 27.5588 178.774 27.335C178.774 26.9247 178.774 26.4771 178.811 26.0668C178.811 25.843 178.811 25.6565 178.849 25.4327C178.849 25.2462 178.998 24.4256 178.849 25.2089C178.961 24.6121 179.073 24.0153 179.222 23.4185C177.766 23.0082 176.346 22.6352 174.89 22.2249C174.404 25.4327 173.993 28.6778 173.657 31.9228C173.433 34.0862 173.209 36.2496 173.134 38.4503C173.097 39.6065 174.218 40.7255 175.375 40.6882C176.645 40.5017 177.579 39.5692 177.616 38.3011Z" fill="#37426F"/>
<path d="M4.50723 30.9903C4.46988 30.7292 4.46988 30.4308 4.46988 30.1697C4.46988 30.0578 4.46988 29.9086 4.50723 29.7967C4.54458 29.2746 4.43253 30.2816 4.50723 29.7594C4.61927 29.2 4.76867 28.6405 4.99275 28.081C5.06745 27.8572 4.88071 28.3048 4.88071 28.3048C4.91806 28.2302 4.95541 28.1556 4.99275 28.0437C5.06745 27.9318 5.1048 27.7826 5.1795 27.6707C5.32889 27.4096 5.47828 27.1112 5.66502 26.8501C5.70237 26.8128 5.73972 26.7382 5.77707 26.7009C5.88911 26.5144 5.62768 26.8874 5.62768 26.8874C5.73972 26.7755 5.81442 26.6636 5.92646 26.5144C6.1132 26.2906 6.29994 26.1041 6.52403 25.9176C6.59873 25.8803 7.00956 25.5073 6.71078 25.7684C6.41199 25.9922 6.78547 25.7311 6.86017 25.6938C6.97221 25.6192 7.12161 25.5446 7.23365 25.47C7.30835 25.4327 7.79388 25.2089 7.45774 25.3581C7.12161 25.5073 7.53244 25.3208 7.64448 25.2835C7.79388 25.2462 7.94327 25.1716 8.09266 25.1343C8.20471 25.097 8.3541 25.0597 8.50349 25.0224C8.57819 25.0224 8.65289 24.9851 8.69024 24.9851C8.87698 24.9478 9.10107 25.0224 8.57819 24.9851C8.83963 24.9851 9.10107 24.9478 9.39985 24.9478C9.54925 24.9478 9.69864 24.9478 9.88538 24.9851C9.96008 24.9851 10.0348 24.9851 10.0721 24.9851C10.3709 25.0224 9.96008 24.9851 9.88538 24.9478C10.1468 25.0597 10.483 25.0597 10.7444 25.1343C10.8564 25.1716 11.0058 25.2089 11.1179 25.2462C11.1926 25.2835 11.2299 25.2835 11.3046 25.3208C10.7817 25.2835 11.0432 25.2835 11.1926 25.3954C11.454 25.5073 11.7154 25.6565 11.9769 25.8057C12.0889 25.8803 12.201 25.9549 12.313 26.0295C12.313 26.0295 11.9395 25.7311 12.1263 25.8803C12.201 25.9549 12.2757 25.9922 12.3504 26.0668C12.5745 26.2906 12.7985 26.5144 13.0226 26.7755C12.7985 26.4398 13.2841 27.0739 13.0226 26.7755C13.1347 26.9247 13.2467 27.1112 13.3588 27.2604C13.4335 27.3723 13.5082 27.5215 13.5829 27.6334C13.6202 27.708 13.6576 27.8199 13.6949 27.8945C13.7323 27.9691 13.807 28.1929 13.6949 27.8945C13.5829 27.5588 13.7323 28.0437 13.7696 28.1183C13.8443 28.2675 13.8816 28.454 13.919 28.6032C13.9937 28.9016 14.0684 29.2373 14.1431 29.5357C14.1431 29.6102 14.1431 29.6848 14.1804 29.7594C14.031 29.2373 14.1431 29.4238 14.1431 29.5729C14.1431 29.7221 14.1804 29.9086 14.1804 30.0578C14.1804 30.3562 14.2178 30.6546 14.1804 30.953C14.1804 31.1022 14.1804 31.2141 14.1431 31.3633C14.1431 31.4379 14.1431 31.5125 14.1057 31.5498C14.0684 31.8482 14.1804 31.0276 14.1057 31.4379C13.9937 31.9974 13.8443 32.5569 13.6576 33.1164C13.5082 33.4894 13.8816 32.6315 13.6576 33.1164C13.5829 33.2283 13.5455 33.3402 13.4708 33.4521C13.3214 33.7132 13.1347 33.9743 12.9853 34.2354C12.8359 34.4219 13.1347 34.0489 13.1347 34.0489C13.0973 34.0862 13.06 34.1608 13.0226 34.1981C12.9106 34.31 12.7985 34.4219 12.7239 34.5338C12.6118 34.6457 12.5371 34.7203 12.4251 34.8322C12.3504 34.9068 11.9395 35.2052 12.2383 35.0187C12.5371 34.7949 12.0889 35.1306 12.0142 35.1679C11.9022 35.2425 11.7528 35.3171 11.6408 35.3917C11.4914 35.4663 11.3046 35.5782 11.1552 35.6528C11.1179 35.6901 10.9685 35.7274 10.9311 35.7647C11.0058 35.6901 11.342 35.6155 11.0432 35.7274C10.707 35.8393 10.4083 35.9512 10.0721 36.0258C9.92273 36.0631 9.77334 36.1004 9.58659 36.1377C9.32516 36.2123 9.81068 36.1004 9.77334 36.1004C9.66129 36.1377 9.47455 36.1377 9.3625 36.1377C9.06372 36.175 8.72758 36.1377 8.4288 36.1377C8.13001 36.1377 8.87698 36.2123 8.57819 36.175C8.50349 36.175 8.4288 36.1377 8.3541 36.1377C8.16736 36.1004 8.01797 36.0631 7.83122 35.9885C7.68183 35.9512 7.49509 35.8393 7.3457 35.802C7.3457 35.802 7.75653 35.9885 7.53244 35.8766C7.45774 35.8393 7.38305 35.802 7.3457 35.7647C7.1963 35.6901 7.08426 35.6155 6.93487 35.5409C6.78547 35.4663 6.59873 35.2425 6.44934 35.2052C6.44934 35.2052 6.78547 35.5036 6.59873 35.3171C6.56138 35.2798 6.48669 35.2052 6.41199 35.1679C6.29995 35.056 6.15055 34.9441 6.03851 34.7949C5.92646 34.683 5.85177 34.5711 5.73972 34.4592C5.70237 34.4219 5.66502 34.31 5.59033 34.31C5.70237 34.3846 5.81442 34.6457 5.66502 34.3846C5.47828 34.1235 5.29154 33.8251 5.14215 33.564C5.06745 33.4148 4.95541 32.9299 5.1048 33.4894C5.06745 33.3402 4.99276 33.1537 4.91806 33.0045C4.80601 32.7061 4.73132 32.4077 4.65662 32.072C4.61927 31.9228 4.58192 31.7736 4.58192 31.6244C4.58192 31.5498 4.54458 31.4752 4.54458 31.4006C4.50723 31.1022 4.61927 31.9974 4.54458 31.4752C4.46988 30.8411 4.43253 30.207 4.43253 29.5729C4.43253 28.9389 4.46988 28.2675 4.54458 27.6334C4.54458 27.4842 4.58192 27.335 4.58192 27.1858C4.61927 26.9247 4.54458 27.4469 4.54458 27.4096C4.54458 27.335 4.58192 27.2604 4.58192 27.1858C4.61927 26.8501 4.69397 26.5144 4.76867 26.1787C5.0301 24.9105 5.40359 23.7169 5.88911 22.5233C6.03851 22.1503 5.70237 22.9336 5.92646 22.4487C6.00116 22.2995 6.03851 22.1876 6.1132 22.0384C6.2626 21.74 6.41199 21.4416 6.56138 21.1432C6.86017 20.5838 7.1963 19.987 7.56979 19.4648C7.71918 19.241 7.90592 18.9799 8.05532 18.7561C8.16736 18.6069 8.24206 18.495 8.3541 18.3458C8.50349 18.1593 8.20471 18.5323 8.24206 18.495C8.31675 18.4204 8.3541 18.3458 8.4288 18.2712C8.83963 17.749 9.28781 17.2641 9.73599 16.8165C10.1842 16.3689 10.6323 15.9586 11.1179 15.5483C11.2673 15.4364 11.3793 15.3245 11.5287 15.2126C11.8648 14.9515 11.2299 15.4364 11.5661 15.1753C11.8648 14.9515 12.1636 14.7277 12.4624 14.5039C13.6949 13.6087 15.0021 12.7135 16.0852 11.5946C17.9526 9.69227 19.0357 6.74561 18.9237 4.09734C18.8863 3.46324 18.8116 2.79185 18.6249 2.15776C18.2514 1.03877 17.0563 0.218181 15.8611 0.591177C14.7407 0.964173 13.8816 2.15776 14.2925 3.35135C14.3672 3.61244 14.4045 3.83624 14.4792 4.09734C14.4792 4.06004 14.4419 3.50054 14.4419 3.83624C14.4419 3.91084 14.4419 3.94814 14.4419 4.02274C14.4419 4.17194 14.4419 4.35843 14.4419 4.50763C14.4419 4.65683 14.4419 4.80603 14.4045 4.95523C14.4045 5.02983 14.4045 5.06713 14.3672 5.14173C14.3298 5.44012 14.4419 4.65683 14.4045 4.91793C14.3298 5.25362 14.2925 5.58932 14.1804 5.88772C14.1057 6.18611 13.9937 6.48451 13.8816 6.78291C13.8443 6.85751 13.8443 6.89481 13.807 6.9694C13.7323 7.1932 13.919 6.70831 13.919 6.74561C13.8443 6.89481 13.7696 7.0813 13.6576 7.2678C13.5455 7.4916 13.3961 7.7154 13.2467 7.93919C13.2094 7.97649 13.1347 8.05109 13.0973 8.12569C13.0973 8.16299 13.4335 7.7527 13.2841 7.90189C13.1347 8.05109 13.0226 8.20029 12.8732 8.34949C12.6492 8.61059 12.3877 8.83438 12.1263 9.05818C11.9769 9.17008 11.8275 9.31928 11.7154 9.43118C11.6407 9.50578 11.5661 9.58038 11.454 9.61767C11.2299 9.80417 11.4167 9.61767 11.5287 9.58038C11.2299 9.72957 10.8938 10.028 10.6323 10.2518C10.2962 10.4756 9.99743 10.7367 9.66129 10.9605C8.39145 11.8929 7.15896 12.9 6.07586 14.0563C2.07959 18.6442 -0.273353 24.6494 0.0254328 30.6546C0.100129 32.4077 0.398916 34.0862 1.14588 35.6901C1.8555 37.2567 3.12534 38.5621 4.58192 39.4573C7.64448 41.3596 11.7154 40.9866 14.5913 38.8605C17.243 36.921 18.6622 33.8997 18.6622 30.6546C18.6622 27.2604 17.1683 23.8661 14.2925 21.9638C11.6034 20.1735 7.98062 20.0989 5.14215 21.5535C2.52777 22.8963 0.660354 25.843 0.174826 28.6778C0.0627811 29.4611 -0.0492637 30.207 0.0254328 30.9903C0.137478 32.1466 0.996488 33.3029 2.26633 33.2283C3.38678 33.191 4.61927 32.2585 4.50723 30.9903Z" fill="#37426F"/>
<path d="M27.5884 40.166C31.4353 41.6953 36.4773 39.9422 38.4941 36.2869C40.0254 33.4521 39.9881 29.7222 38.8676 26.7755C38.27 25.2089 37.4484 23.6423 36.1412 22.5233C34.7219 21.2925 32.9292 20.5465 31.0245 20.5838C26.7294 20.6584 23.2934 24.1645 21.9488 28.0064C21.2019 30.1325 21.2392 32.5196 22.0609 34.6084C22.5838 35.8393 23.256 36.9956 24.1897 37.9654C25.1234 38.9725 26.2812 39.6438 27.5884 40.166C28.074 40.3898 28.8583 40.2033 29.3064 39.9422C29.7546 39.6811 30.2028 39.1217 30.3522 38.5995C30.4642 38.04 30.4642 37.3686 30.1281 36.8837C29.792 36.3615 29.3438 36.1004 28.7836 35.8393C29.4558 36.1004 28.7089 35.802 28.5968 35.7274C28.4474 35.6528 28.298 35.5409 28.1486 35.4663C28.074 35.429 27.9993 35.3544 27.9246 35.3171C27.5511 35.056 28.2233 35.5782 27.9993 35.3917C27.8499 35.2425 27.6631 35.0933 27.5137 34.9441C27.3643 34.7949 27.2149 34.6457 27.1029 34.4965C27.0655 34.4592 26.9908 34.31 26.9162 34.2727C27.2523 34.4965 27.1402 34.5711 26.9909 34.3473C26.7294 34.0116 26.5427 33.6386 26.3559 33.2283C26.3186 33.1537 26.2812 33.0418 26.2439 32.9672C26.5053 33.3029 26.3933 33.3029 26.2812 33.0791C26.2065 32.8926 26.1318 32.7061 26.0945 32.5196C26.0571 32.3331 26.0198 32.1839 25.9824 31.9974C25.9451 31.8855 25.9451 31.7736 25.9077 31.6617C25.8704 31.4006 25.9451 32.1839 25.9451 31.7736C25.9077 31.4006 25.9077 31.0649 25.9451 30.6919C25.9451 30.58 25.9824 30.5054 25.9824 30.3936C25.9824 30.0952 25.8704 30.9157 25.9451 30.6546C25.9824 30.4309 26.0198 30.2071 26.0571 30.0206C26.1318 29.6849 26.2439 29.3492 26.3559 29.0508C26.3933 28.9389 26.4306 28.8643 26.468 28.7524C26.468 28.7897 26.2439 29.2746 26.3933 28.9389C26.468 28.7524 26.58 28.5659 26.6547 28.3794C26.8415 28.0437 27.0282 27.708 27.2523 27.4096C27.2896 27.335 27.3643 27.2604 27.4017 27.2231C27.5884 26.9247 27.2896 27.3723 27.2896 27.3723C27.439 27.2231 27.5884 26.9993 27.7378 26.8501C27.9619 26.589 28.2233 26.3279 28.4848 26.1041C28.5595 26.0295 28.6342 25.9922 28.7089 25.9176C28.933 25.7311 28.2233 26.2533 28.5968 25.9922C28.7836 25.8803 28.933 25.7684 29.1197 25.6565C29.2691 25.5819 29.3811 25.5073 29.5305 25.4327C29.6052 25.3954 29.7173 25.3581 29.792 25.2835C30.0534 25.1343 29.2317 25.47 29.6426 25.3581C29.9787 25.2462 30.3148 25.1343 30.6883 25.0597C30.763 25.0597 31.1739 24.9851 30.7257 25.0597C30.3522 25.1343 30.6136 25.0597 30.7257 25.0597C30.9124 25.0597 31.0992 25.0597 31.2859 25.0597C31.3979 25.0597 32.0329 25.1343 31.5847 25.0597C31.1365 24.9851 31.7341 25.097 31.8461 25.1343C31.9955 25.1716 32.1076 25.2089 32.257 25.2462C32.7425 25.4327 31.8088 25.0224 32.2196 25.2089C32.481 25.3581 32.7425 25.47 33.0039 25.6565C33.4521 25.9549 32.6304 25.3208 32.9666 25.6192C33.0786 25.7311 33.1907 25.8057 33.3027 25.9176C33.5268 26.1041 33.6762 26.3279 33.9003 26.5517C33.3774 25.9549 33.7882 26.4025 33.9003 26.589C33.975 26.7009 34.0497 26.8128 34.1244 26.9247C34.3111 27.2231 34.4605 27.5215 34.6099 27.8199C34.834 28.3048 34.4605 27.4469 34.5726 27.7453C34.6099 27.8945 34.6846 28.0437 34.7219 28.1929C34.834 28.4913 34.9087 28.827 35.0207 29.1627C35.0954 29.4611 35.1701 29.7968 35.2075 30.0952C35.2822 30.6173 35.1701 29.6849 35.2075 30.0206C35.2448 30.2071 35.2448 30.3936 35.2448 30.58C35.2822 31.2141 35.2822 31.8482 35.2075 32.4823C35.1701 32.818 35.3195 31.8482 35.2075 32.3704C35.1701 32.5196 35.1328 32.7061 35.0954 32.8553C35.0207 33.1164 34.946 33.4148 34.8713 33.6759C34.834 33.7505 34.7966 33.8251 34.7966 33.8997C34.7219 34.1608 35.0581 33.3402 34.9087 33.6759C34.834 33.8251 34.7593 33.9743 34.6846 34.1235C34.6099 34.2727 34.5352 34.4219 34.4232 34.5338C34.3111 34.7203 34.1244 34.7576 34.4979 34.4219C34.4232 34.4965 34.3485 34.6084 34.2364 34.7203C34.087 34.8695 33.9376 35.0187 33.7882 35.1679C33.7135 35.2425 33.6762 35.2798 33.6015 35.3171C33.2654 35.6155 34.0497 35.0187 33.6388 35.2798C33.228 35.5036 32.8545 35.6901 32.481 35.8766C32.0702 36.0631 32.8919 35.7274 32.5931 35.8393C32.481 35.8766 32.369 35.9139 32.2196 35.9512C31.9955 36.0258 31.7714 36.1004 31.5473 36.1377C31.4726 36.1377 31.3979 36.175 31.2859 36.175C31.0618 36.2123 30.763 36.1377 31.3606 36.175C31.1365 36.175 30.9498 36.2123 30.7257 36.2123C30.5016 36.2123 30.3148 36.2123 30.0908 36.2123C30.0161 36.2123 29.904 36.2123 29.8293 36.175C29.3811 36.1377 30.3148 36.2869 29.904 36.175C29.4932 36.1004 29.0824 35.9885 28.6715 35.8393C28.1486 35.6528 27.4017 35.802 26.9535 36.0631C26.5053 36.3242 26.0571 36.8837 25.9077 37.4059C25.721 38.7114 26.3933 39.7184 27.5884 40.166Z" fill="#37426F"/>
<path d="M198.643 37.0329C198.868 38.1892 199.54 39.1589 200.474 39.793C201.295 40.3525 202.304 40.539 203.275 40.6136C205.59 40.8001 207.644 39.6811 209.25 38.1892C212.201 35.4663 214.068 31.5871 214.18 27.5588C214.218 25.5446 213.583 23.4931 211.977 22.1503C211.155 21.4789 210.221 20.8822 209.176 20.6584C208.093 20.4719 207.084 20.4719 206.038 20.6957C205.179 20.8822 204.283 21.2551 203.536 21.7773C202.49 22.5233 201.781 23.4558 201.333 24.6494C200.511 26.7755 201.034 29.3492 202.602 30.9903C204.283 32.7434 207.047 33.4894 209.4 32.9299C211.678 32.4077 213.77 30.4308 214.143 28.081C212.686 27.8945 211.192 27.6707 209.736 27.4842C209.736 27.5588 209.699 27.6707 209.699 27.7453C209.661 28.081 209.773 27.335 209.699 27.6707C209.661 27.8199 209.661 28.0064 209.624 28.1556C209.586 28.5286 209.512 28.9389 209.437 29.3119C209.325 30.1325 209.213 30.953 209.101 31.7736C208.952 33.1164 208.877 34.3846 209.101 35.7274C209.474 38.0027 211.192 39.8676 213.433 40.4271C215.077 40.8374 216.757 40.6509 218.401 40.2779C219.558 40.0168 220.343 38.6368 219.969 37.5178C219.596 36.3242 218.438 35.6901 217.206 35.9512C217.019 35.9885 216.795 36.0258 216.571 36.1004C216.459 36.1004 216.384 36.1377 216.272 36.1377C216.01 36.175 216.085 36.175 216.459 36.1004C216.16 36.0631 215.749 36.175 215.413 36.175C215.263 36.175 215.114 36.175 214.927 36.1377C214.33 36.1004 215.338 36.2123 214.965 36.1377C214.703 36.0631 214.442 36.0258 214.18 35.9139C213.844 35.802 214.741 36.2123 214.292 35.9512C214.18 35.8766 214.106 35.8393 213.994 35.7647C213.545 35.5036 214.33 36.1004 214.106 35.8766C214.031 35.802 213.956 35.7274 213.844 35.6528C213.657 35.4663 213.62 35.2052 213.919 35.802C213.882 35.6901 213.807 35.6155 213.732 35.5409C213.657 35.429 213.62 35.3544 213.583 35.2425C213.359 34.7949 213.732 35.7274 213.657 35.3917C213.583 35.1679 213.508 34.9441 213.471 34.7203C213.433 34.6084 213.433 34.4965 213.396 34.3846C213.583 35.1306 213.433 34.7576 213.433 34.5338C213.396 33.8624 213.433 33.1537 213.508 32.4823C213.545 32.072 213.583 31.6617 213.657 31.2514C213.695 30.9903 213.695 31.0649 213.62 31.4006C213.62 31.2887 213.657 31.2141 213.657 31.1022C213.695 30.9157 213.732 30.6919 213.732 30.5054C213.882 29.4984 214.031 28.4913 214.143 27.4842C214.218 26.962 213.844 26.2533 213.471 25.9176C213.097 25.5819 212.686 25.3581 212.201 25.2835C211.192 25.1343 209.923 25.7684 209.736 26.8874C209.699 27.0366 209.661 27.2231 209.624 27.3723C209.624 27.4469 209.586 27.4842 209.549 27.5588C209.474 27.8199 209.773 27.1112 209.624 27.3723C209.549 27.4842 209.474 27.6334 209.4 27.7453C209.362 27.8199 209.288 27.8945 209.25 27.9691C209.288 27.8945 209.549 27.5961 209.362 27.8199C209.25 27.9318 209.138 28.081 208.989 28.1929C208.727 28.454 209.4 27.8945 208.989 28.1929C208.877 28.2675 208.727 28.3421 208.615 28.4167C208.541 28.454 208.429 28.4913 208.391 28.5286C208.466 28.4913 208.84 28.3421 208.541 28.454C208.354 28.4913 208.205 28.5659 208.018 28.6032C207.943 28.6032 207.868 28.6405 207.831 28.6405C207.532 28.7151 208.317 28.6032 208.018 28.6032C207.868 28.6032 207.719 28.6032 207.532 28.6032C207.458 28.6032 207.346 28.6032 207.271 28.6032C206.972 28.5659 207.383 28.6032 207.458 28.6405C207.159 28.5286 206.785 28.454 206.449 28.3794C206.225 28.3048 206.673 28.4913 206.673 28.4913C206.599 28.454 206.487 28.4167 206.412 28.3794C206.262 28.3048 206.076 28.1929 205.926 28.1183C205.889 28.1183 205.74 27.9691 205.702 27.9691C205.74 27.9691 206.113 28.3048 205.852 28.081C205.74 27.9691 205.628 27.8572 205.516 27.7453C205.179 27.3723 205.702 28.081 205.516 27.7453C205.478 27.6707 205.441 27.5961 205.403 27.5215C205.254 27.2604 205.441 27.5588 205.441 27.6707C205.403 27.4842 205.329 27.2977 205.291 27.1485C205.291 27.0739 205.254 26.9993 205.254 26.9247C205.179 26.6263 205.291 27.4096 205.291 27.1112C205.291 26.962 205.291 26.7755 205.291 26.6263C205.291 26.4398 205.403 26.2906 205.254 26.8128C205.291 26.7382 205.291 26.6263 205.291 26.5517C205.329 26.4025 205.441 26.1787 205.441 26.0295C205.441 26.0295 205.254 26.4398 205.366 26.2533C205.403 26.1787 205.441 26.0668 205.516 25.9922C205.59 25.8803 205.777 25.6938 205.777 25.5819C205.777 25.6192 205.441 25.9549 205.665 25.7684C205.702 25.7311 205.777 25.6565 205.814 25.6192C205.852 25.5819 205.926 25.5073 206.001 25.47C205.964 25.5073 205.516 25.7684 205.814 25.6192C205.926 25.5446 206.038 25.47 206.188 25.3954C206.225 25.3581 206.3 25.3581 206.337 25.3208C206.636 25.1343 206.188 25.3954 206.15 25.3954C206.3 25.3581 206.449 25.2835 206.636 25.2089C206.785 25.1716 206.972 25.1343 207.121 25.097C207.234 25.0597 207.756 24.9851 207.308 25.0597C206.897 25.1343 207.383 25.0597 207.495 25.0597C207.644 25.0597 207.831 25.0597 207.981 25.0597C208.354 25.0597 207.756 25.0224 207.756 25.0224C207.831 25.0597 207.906 25.0597 207.981 25.0597C208.093 25.097 208.242 25.1343 208.354 25.1716C208.541 25.2089 208.093 25.0597 208.093 25.0597C208.13 25.097 208.242 25.1343 208.317 25.1716C208.466 25.2462 208.615 25.3581 208.802 25.47C209.101 25.6565 208.69 25.3954 208.653 25.3581C208.69 25.3954 208.802 25.47 208.84 25.5073C208.952 25.6192 209.064 25.6938 209.138 25.8057C209.474 26.1414 208.952 25.47 209.138 25.7684C209.213 25.9176 209.325 26.0295 209.4 26.1787C209.437 26.216 209.474 26.3279 209.512 26.4025C209.474 26.3652 209.325 25.8803 209.437 26.216C209.474 26.3652 209.512 26.4771 209.549 26.6263C209.549 26.7009 209.586 26.7382 209.586 26.8128C209.661 27.1858 209.549 26.6263 209.549 26.589C209.512 26.7382 209.586 26.962 209.586 27.1485C209.586 27.5215 209.586 27.8945 209.549 28.2302C209.549 28.3421 209.437 28.6405 209.512 28.7524C209.512 28.7151 209.586 28.1929 209.549 28.6032C209.549 28.7151 209.512 28.7897 209.512 28.9016C209.4 29.6103 209.176 30.2816 208.952 30.953L208.84 31.2141C208.84 31.2141 209.064 30.6919 208.914 31.0649C208.84 31.2141 208.765 31.3633 208.69 31.5125C208.541 31.8482 208.354 32.1466 208.167 32.4823C207.981 32.7807 207.794 33.1164 207.57 33.4148C207.532 33.4894 207.495 33.5267 207.458 33.6013C207.196 33.937 207.532 33.5267 207.532 33.4894C207.532 33.6013 207.234 33.8624 207.159 33.937C206.86 34.2727 206.599 34.5711 206.262 34.8695C206.113 35.0187 205.926 35.1679 205.777 35.3171C205.702 35.3544 205.665 35.429 205.59 35.4663C205.403 35.6528 205.964 35.2052 205.628 35.429C205.254 35.6901 204.918 35.8766 204.544 36.1004C204.32 36.2123 204.731 36.0258 204.731 36.0258C204.657 36.0258 204.47 36.1004 204.395 36.1377C204.283 36.175 204.208 36.175 204.096 36.2123C204.059 36.2123 203.984 36.2496 203.947 36.2496C203.76 36.2869 203.835 36.2869 204.171 36.2123C204.022 36.175 203.76 36.2123 203.611 36.2123C203.461 36.2123 203.275 36.175 203.125 36.175C202.752 36.1377 203.349 36.2123 203.387 36.2123C203.312 36.175 203.2 36.175 203.125 36.175C203.013 36.1377 202.565 35.9885 202.939 36.1377C203.424 36.3615 202.752 36.0631 202.752 36.0258C202.752 35.9885 203.125 36.3988 203.013 36.2123C202.976 36.175 202.901 36.0631 202.826 36.0258C202.864 36.0631 203.125 36.5107 203.013 36.2123C202.976 36.1377 202.938 36.0631 202.901 36.0258C203.2 36.3988 203.051 36.4361 203.013 36.2496C202.976 36.1377 202.939 35.9885 202.939 35.8766C202.714 34.7203 201.258 33.9743 200.175 34.31C198.942 34.683 198.382 35.802 198.643 37.0329Z" fill="#37426F"/>
</svg>
