<svg width="663" height="238" viewBox="0 0 663 238" fill="none" xmlns="http://www.w3.org/2000/svg">
<path d="M248.767 50.0393C245.168 46.0631 239.675 44.7377 234.561 46.6311C232.477 47.3885 230.204 48.7139 228.689 50.418C227.173 52.122 226.415 54.2048 225.468 56.2875C221.301 65.7546 219.975 80.3338 230.393 86.582C235.318 89.6115 241.759 88.0968 247.063 87.5288C249.336 87.3394 251.23 85.8247 251.23 83.3633C251.23 81.2805 249.336 78.8191 247.063 79.1978C244.789 79.3871 242.327 79.7658 240.054 79.9551C239.107 79.9551 238.349 80.1445 237.402 80.1445C237.023 80.1445 236.644 80.1445 236.265 80.1445C236.076 80.1445 235.887 80.1445 235.697 80.1445C235.129 80.1445 236.455 80.3338 235.887 80.1445C235.508 79.9551 235.129 79.9551 234.939 79.7658C235.508 79.9551 234.75 79.5764 234.561 79.5764C234.371 79.3871 234.182 79.3871 233.992 79.1978C233.424 78.8191 234.371 79.5764 233.992 79.1978C233.613 78.8191 233.424 78.6297 233.045 78.251C232.477 77.683 233.235 78.4404 232.856 77.8724C232.666 77.4937 232.288 77.115 232.098 76.7363C232.098 76.547 231.53 75.6003 231.719 75.979C231.909 76.3576 231.719 75.7896 231.719 75.7896C231.719 75.6003 231.53 75.2216 231.53 75.0323C231.34 74.6536 231.34 74.4642 231.34 74.0855C231.151 73.1388 231.34 74.4642 231.34 73.8962C231.34 72.7602 231.151 71.6241 231.34 70.4881C231.34 68.0266 231.719 65.7546 232.288 63.4825C232.856 61.3997 233.613 59.885 234.561 57.8022C234.75 57.6129 234.939 57.4236 234.939 57.2342C235.129 56.8555 234.75 57.4236 234.75 57.6129C234.939 57.4236 234.939 57.4236 234.939 57.2342C235.129 57.0449 235.508 56.6662 235.697 56.4769C236.076 56.0982 235.129 56.6662 236.076 56.2875C236.455 56.0982 236.834 55.7195 237.213 55.5302C237.402 55.5302 237.591 55.3408 237.781 55.3408C237.402 55.5302 237.402 55.5302 237.781 55.3408C238.16 55.1515 238.728 55.1515 239.107 54.9621C239.107 54.9621 239.864 54.9621 239.296 54.9621C238.728 54.9621 239.486 54.9621 239.675 54.9621C239.864 54.9621 240.054 54.9621 240.243 54.9621C241.001 54.9621 239.864 54.7728 240.433 54.9621C240.812 55.1515 241.38 55.1515 241.759 55.3408C241.001 54.9621 242.327 55.7195 242.516 55.9088C242.138 55.5302 243.085 56.6662 243.274 56.8555C244.789 58.5596 247.82 58.3703 249.336 56.8555C250.472 54.3941 250.283 51.7433 248.767 50.0393Z" fill="#37426F"/>
<path d="M626.631 83.31C627.388 76.4937 627.767 69.6774 629.851 63.2398C630.798 60.3997 631.935 57.1809 634.018 55.2875C635.534 53.9621 637.238 53.3941 639.322 52.8261C638.375 53.0154 639.511 52.8261 639.89 52.8261C639.322 52.8261 641.027 53.2048 640.648 53.0154C641.785 53.5834 642.542 54.3408 643.111 55.0982C643.3 55.2875 643.489 55.4769 643.489 55.8555C643.3 55.0982 643.489 55.6662 643.489 55.8555C643.679 56.4236 643.679 56.9916 643.679 57.7489C643.868 59.453 643.868 60.9677 643.679 62.6718C643.489 65.5119 643.111 68.5414 643.111 71.3815C643.111 74.7896 643.3 78.5764 645.194 81.6059C646.331 83.31 648.036 85.3927 649.93 86.5288C652.961 88.4222 656.56 88.0435 659.969 87.4755C662.242 87.0968 663.568 84.2567 663 82.1739C662.242 79.7125 659.969 78.9551 657.696 79.1445C656.938 79.1445 656.37 79.3338 655.612 79.3338C655.234 79.3338 655.044 79.3338 654.665 79.3338C653.908 79.3338 655.234 79.5231 654.665 79.3338C654.476 79.3338 654.097 79.1445 653.908 79.1445C654.097 79.1445 654.665 79.5231 654.097 79.1445C653.908 78.9551 653.529 78.7658 654.286 79.3338C654.097 79.1445 653.908 78.9551 653.718 78.7658C652.392 77.251 652.013 76.115 651.824 74.2216C651.066 67.4053 653.15 60.5891 651.635 53.9621C650.119 47.5245 642.921 43.359 636.67 44.6844C633.639 45.2525 630.798 46.9565 628.336 48.8499C625.494 51.122 623.979 54.5302 622.653 57.7489C619.433 65.8906 619.054 74.6003 618.107 83.1206C617.917 85.3927 620.19 87.2861 622.274 87.2861C624.736 87.6648 626.252 85.582 626.631 83.31Z" fill="#37426F"/>
<path d="M595.565 49.0393C594.429 60.3997 593.482 71.9495 592.345 83.31C592.156 85.5821 594.429 87.4755 596.512 87.4755C598.975 87.4755 600.49 85.5821 600.68 83.31C601.816 71.9495 602.763 60.3997 603.9 49.0393C604.089 46.7672 601.816 44.8738 599.733 44.8738C597.27 44.8738 595.755 46.7672 595.565 49.0393Z" fill="#37426F"/>
<path d="M602.953 63.0505C603.332 62.1038 603.711 61.3464 604.279 60.3997C604.468 60.021 604.658 59.6424 604.847 59.2637C605.037 58.885 605.605 58.317 605.037 58.885C606.173 57.5596 607.499 56.4236 608.825 55.2875C609.204 54.9088 608.636 55.2875 608.636 55.4769C608.825 55.2875 609.014 55.0982 609.204 55.0982C609.583 54.9088 609.962 54.7195 610.34 54.5302C611.288 53.9621 611.477 53.9621 612.613 53.5835C613.561 53.3941 614.318 53.0154 615.265 53.0154C615.834 53.0154 616.591 52.8261 617.16 53.0154C616.781 53.0154 616.97 53.0154 616.97 53.0154C617.16 53.0154 617.16 53.0154 616.97 53.0154C616.781 53.0154 616.781 53.0154 616.97 53.0154C617.16 53.2048 617.349 53.2048 617.349 53.3941C617.538 53.5835 617.539 53.7728 617.728 53.7728C617.917 54.1515 618.107 54.5302 618.296 54.9088C618.486 55.0982 618.864 56.2342 618.675 55.4769C618.864 56.2342 619.054 56.8022 619.243 57.5596C619.433 58.317 619.243 57.1809 619.243 57.3703C619.243 57.7489 619.243 57.9383 619.243 58.317C619.433 61.9144 619.243 65.5119 619.243 69.1094C619.054 73.8429 618.675 78.5764 618.296 83.31C618.107 85.582 620.38 87.4755 622.464 87.4755C624.926 87.4755 626.631 85.582 626.631 83.31C627.01 78.5764 627.388 73.8429 627.578 69.1094C627.767 65.1332 627.957 61.1571 627.578 57.1809C627.01 52.8261 624.926 47.9032 620.948 45.4418C618.296 43.9271 615.076 44.3058 612.235 44.8738C609.772 45.4418 607.12 46.3885 605.037 47.7139C600.68 50.554 597.649 54.1515 595.565 58.6957C594.618 60.7784 594.997 63.2398 597.081 64.5652C598.786 65.5119 601.816 65.1332 602.953 63.0505Z" fill="#37426F"/>
<path d="M263.762 47.3885C263.005 52.3114 262.437 57.2342 261.868 62.1571C261.489 66.1332 261.111 70.2987 261.111 74.2749C261.111 77.115 261.489 80.1445 263.005 82.7952C264.52 85.2567 266.983 86.9607 269.824 87.7181C275.886 89.4222 283.652 88.0968 286.683 82.0379C290.282 74.8429 287.062 64.8079 278.537 63.1038C270.582 61.5891 260.921 66.1332 260.921 75.2216C260.921 80.7125 269.445 80.7125 269.445 75.2216C269.445 75.0323 269.445 74.8429 269.445 74.6536C269.445 73.8962 269.256 75.2216 269.445 74.8429C269.635 74.4642 269.635 74.0856 269.824 73.7069C270.013 73.1389 269.445 74.4642 269.824 73.8962C270.013 73.7069 270.013 73.5175 270.203 73.1389C270.392 72.9495 270.771 72.5708 270.203 73.1389C270.392 72.9495 270.582 72.7602 270.771 72.5708C270.203 72.9495 271.15 72.1922 270.771 72.5708C270.961 72.3815 271.339 72.1922 271.529 72.0028C271.529 72.0028 272.287 71.6241 271.718 72.0028C271.908 71.8135 272.287 71.8135 272.476 71.6241C273.802 71.2454 274.938 71.0561 276.454 71.2454C275.886 71.2454 277.401 71.4348 277.401 71.4348C278.159 71.6241 277.59 71.6241 277.59 71.4348C277.78 71.6241 277.969 71.6241 278.348 71.8135C277.78 71.4348 278.727 72.1922 278.916 72.3815C278.348 71.6241 279.485 73.7069 279.106 72.9495C279.674 74.4642 279.485 74.4642 279.485 75.979C279.485 76.3576 279.295 76.7363 279.295 77.3044C279.295 77.4937 278.916 78.2511 279.106 77.683C279.106 77.683 278.537 78.6297 278.727 78.2511C279.106 77.8724 277.78 79.1978 278.159 78.8191C278.727 78.4404 277.78 79.0084 277.78 79.0084C277.59 79.1978 277.401 79.1978 277.212 79.3871C277.969 79.0084 277.022 79.3871 276.643 79.5764C276.264 79.7658 274.749 79.7658 275.886 79.7658C275.507 79.7658 275.128 79.7658 274.749 79.7658C274.56 79.7658 273.234 79.5764 273.991 79.7658C272.855 79.5764 271.908 79.3871 270.961 79.0084C271.908 79.3871 270.961 79.0084 270.582 78.8191C270.392 78.8191 270.203 78.6297 270.203 78.4404C271.529 79.1978 270.203 78.4404 270.392 78.4404C270.013 78.4404 269.824 77.3044 270.203 78.2511L270.013 77.8724C270.013 77.683 269.824 77.683 269.824 77.4937C270.013 78.0617 270.013 78.2511 270.013 77.8724C269.824 77.4937 269.824 77.115 269.635 76.7363C269.635 76.547 269.635 76.3577 269.445 76.1683C269.256 75.4109 269.445 77.3044 269.445 76.1683C269.445 75.0323 269.256 73.7069 269.445 72.5708C269.635 64.9972 270.582 57.2342 271.718 49.6606C272.097 47.3885 271.15 45.1164 268.687 44.3591C266.983 43.9804 264.141 45.1164 263.762 47.3885Z" fill="#37426F"/>
<path d="M175.157 61.5358C175.157 46.9565 153.941 39.0042 143.334 48.0926C137.84 52.8261 136.704 60.9677 136.893 67.784C137.083 74.6003 139.166 81.9846 145.417 85.3927C151.1 88.4221 158.866 88.4221 164.17 84.6353C168.906 81.2272 171.747 75.9257 173.262 70.4348C176.672 58.5063 176.483 44.1164 170.421 33.1346C166.822 26.697 161.708 21.3955 156.404 16.2833C152.426 12.4965 148.448 8.89901 147.501 3.21878C147.122 0.946694 144.281 -0.378692 142.197 0.189331C139.735 0.946694 138.787 3.21878 139.166 5.49087C140.682 14.7686 148.827 20.6381 154.888 26.8864C158.487 30.6732 162.086 34.8387 164.17 39.7616C166.064 44.3057 166.822 49.6073 166.822 54.5301C166.822 59.2637 166.254 63.9972 164.928 68.7307C163.981 71.9495 162.086 75.7363 158.866 77.8191C155.646 79.9018 150.153 79.5231 147.69 76.3043C144.849 72.7069 145.038 66.0799 145.607 61.7251C145.986 59.2637 146.933 56.0449 148.827 54.3408C150.532 52.8261 153.373 52.6367 155.646 52.6367C160.003 52.8261 166.633 56.2342 166.633 61.3464C166.633 67.0266 175.157 67.0266 175.157 61.5358Z" fill="#37426F"/>
<path d="M182.764 72.1389C191.857 74.4109 203.222 75.547 209.284 66.648C211.746 63.0505 212.314 58.1276 210.988 54.1515C209.473 49.7966 206.063 46.7672 201.896 45.4418C197.729 44.1164 193.183 44.4951 189.205 46.1992C185.227 48.0926 182.386 51.69 180.87 55.6662C177.461 63.9972 178.408 74.979 184.469 81.7952C187.311 85.014 191.288 86.7181 195.645 87.2861C200.949 88.0435 205.685 88.0435 210.988 87.2861C213.262 86.9074 214.587 84.0673 214.019 81.9846C213.262 79.5231 210.988 78.7658 208.715 78.9551C205.685 79.3338 202.654 79.3338 199.623 79.1445C198.297 78.9551 196.971 78.7658 195.645 78.5764C195.077 78.3871 194.319 78.1978 193.751 78.0084C193.562 78.0084 192.993 77.6297 193.562 78.0084C193.183 77.8191 192.804 77.6297 192.425 77.4404C192.236 77.2511 192.046 77.2511 191.667 77.0617C192.236 77.4404 191.667 77.0617 191.478 76.8724C190.91 76.4937 190.531 75.9257 190.152 75.3577C189.962 75.1683 189.584 74.6003 189.394 74.2216C189.015 73.4642 188.637 72.8962 188.447 72.1389C187.5 69.1094 187.311 65.7013 187.689 62.4825C188.068 59.8317 189.205 56.9916 190.72 55.2875C192.236 53.5835 194.13 52.8261 196.592 52.8261C198.865 52.8261 200.949 53.5835 202.464 55.2875C202.275 54.9088 202.843 56.0449 203.033 56.4236C203.033 56.2342 203.222 57.749 203.222 57.5596C203.412 58.6957 203.222 59.6424 202.843 60.7784C202.464 61.5358 201.707 62.6718 200.949 63.2398C199.623 64.1865 198.108 64.7546 196.592 64.9439C192.993 65.5119 188.826 64.5652 185.227 63.6185C179.734 62.4825 177.461 70.8135 182.764 72.1389Z" fill="#37426F"/>
<path d="M498.486 83.7419C500.19 72.1921 500.948 60.6424 502.842 49.0926C503.221 46.8205 502.274 44.5484 499.812 43.791C497.538 43.223 495.076 44.5484 494.508 46.8205C492.992 52.8794 491.856 61.021 495.076 66.7013C498.296 72.3815 506.062 74.2749 512.124 73.8962C518.564 73.5175 525.952 70.6774 528.983 64.8079C531.635 60.0743 531.635 54.2048 532.582 48.9032C532.961 46.6311 532.013 44.359 529.551 43.6017C527.467 43.0337 524.815 44.359 524.247 46.6311C523.111 52.5007 522.353 58.5596 521.216 64.4292C520.459 68.5947 519.701 72.9495 520.269 77.3043C520.837 80.9018 522.353 84.1206 525.573 86.014C529.551 88.2861 534.287 87.5288 538.454 86.7714C543.758 85.6353 541.485 77.4937 536.181 78.6297C534.665 79.0084 533.15 79.1978 531.445 79.1978C531.256 79.1978 530.119 79.0084 530.877 79.1978C530.687 79.1978 530.309 79.0084 530.119 79.0084C529.93 79.0084 528.983 78.8191 529.93 79.0084C529.74 79.0084 529.551 78.8191 529.362 78.6297C528.604 77.4937 530.309 79.7658 529.362 78.6297C529.172 78.4404 528.983 78.0617 528.793 77.8724C528.983 78.251 528.983 78.4404 528.793 78.0617C528.604 77.4937 528.414 76.9257 528.414 76.3576C528.604 77.3043 528.414 75.979 528.414 75.979C528.414 75.6003 528.414 75.2216 528.414 74.8429C528.414 71.4348 528.983 68.4053 529.551 64.9972C530.498 59.6957 531.066 54.5835 532.203 49.2819C529.551 48.5245 526.71 47.7672 524.058 47.0098C523.489 51.1753 523.111 55.3408 521.974 59.317C520.837 63.1038 516.67 65.1865 512.503 65.5652C510.419 65.7546 508.146 65.5652 506.252 64.9972C504.737 64.6185 502.842 63.6718 502.274 62.5358C501.137 60.453 501.516 58.3703 501.516 56.0982C501.516 53.6367 501.895 51.554 502.463 49.2819C499.812 48.5245 496.97 47.7672 494.318 47.0098C493.182 54.0154 492.424 61.021 491.477 67.8373C491.098 70.6774 490.909 73.7069 490.53 76.547C490.34 77.683 490.34 78.6297 490.151 79.7658C490.151 80.3338 489.962 80.7125 489.962 81.2805C489.772 82.6059 489.962 81.0912 489.962 81.6592C489.583 83.9313 490.53 86.2034 492.992 86.9607C495.265 87.3394 498.107 86.014 498.486 83.7419Z" fill="#37426F"/>
<path d="M109.669 62.6424C110.995 59.6129 113.458 55.8261 117.436 56.0154C121.603 56.2048 121.792 60.749 121.414 63.9678C120.656 68.7013 118.572 73.4348 115.731 77.0323C114.405 78.7363 112.889 80.6297 110.995 81.5764C109.101 82.5232 106.828 82.5231 104.744 82.1445C104.744 84.9846 104.744 87.8247 104.744 90.6648C108.343 90.4755 111.942 91.4222 114.215 94.2623C116.489 97.2917 117.814 101.268 118.383 104.865C119.709 111.682 118.762 120.013 113.837 125.314C111.564 127.776 109.101 129.29 105.881 129.29C105.691 129.29 105.502 129.29 105.123 129.101C104.555 128.912 105.691 129.48 105.123 129.101C104.934 129.101 104.555 128.533 104.744 128.912C105.123 129.669 104.365 128.722 104.365 128.722C104.744 129.48 103.987 127.965 103.987 127.776C104.176 127.965 103.608 126.45 103.608 126.072C102.282 119.255 105.691 110.924 110.048 105.433C115.163 99.1851 122.361 97.4811 130.127 96.913C135.62 96.5344 135.62 88.014 130.127 88.3927C120.466 88.9607 110.995 91.2328 104.555 98.8065C97.925 106.569 93.1895 118.119 95.4625 128.533C96.4097 132.32 98.6827 136.296 102.661 137.432C107.396 138.757 112.7 137.243 116.489 134.403C125.391 127.776 128.043 116.604 126.907 106.001C126.339 100.321 124.444 94.4516 121.035 89.7181C117.246 84.4166 110.995 81.5764 104.555 82.1445C99.0616 82.5231 99.251 89.9074 104.555 90.6648C112.7 91.6115 118.383 87.446 123.118 81.1978C127.286 75.5175 130.316 68.1333 130.127 61.1276C129.938 53.7433 124.634 47.3058 116.867 47.4951C109.101 47.8738 104.365 53.7433 101.714 60.3703C100.766 62.453 102.661 65.1038 104.744 65.6718C107.017 66.4292 108.912 64.9145 109.669 62.6424Z" fill="#37426F"/>
<path d="M434.867 47.7139C433.731 55.4769 432.215 63.0505 432.026 71.0028C431.837 75.547 431.647 79.9018 434.867 83.4993C437.14 85.9607 440.361 87.2861 443.581 87.4755C449.642 87.8541 455.704 85.7714 460.061 81.6059C464.038 77.6297 466.312 72.3282 468.016 67.0267C469.911 61.3464 471.047 55.6662 473.131 50.1753C470.479 49.418 467.638 48.6606 464.986 47.9032C463.091 57.9383 458.545 68.9201 461.955 79.1445C463.091 82.7419 465.364 86.1501 469.342 87.0968C472.752 88.0435 476.54 87.2861 480.139 86.9074C482.413 86.7181 484.307 85.014 484.307 82.7419C484.307 80.6592 482.413 78.1978 480.139 78.5764C478.435 78.7658 476.919 78.9551 475.214 79.1445C474.646 79.1445 474.078 79.3338 473.32 79.3338C472.941 79.3338 471.615 79.3338 471.805 79.3338C472.373 79.3338 470.289 78.7658 471.237 79.1445C471.047 79.1445 470.858 78.9551 470.668 78.7658C471.426 79.3338 470.668 78.3871 470.858 78.7658C471.047 79.1445 470.289 77.6297 470.289 77.8191C469.911 77.0617 469.721 76.115 469.532 75.1683C468.774 71.3815 469.342 67.216 470.1 63.4292C471.047 59.0743 472.184 54.7195 472.941 50.3647C473.888 44.8738 466.69 42.9804 464.796 48.0926C461.576 56.4236 460.629 65.8906 456.083 73.0856C453.999 76.3044 451.537 78.3871 447.559 79.1445C445.854 79.5232 443.202 79.5231 442.065 78.7658C441.308 78.3871 441.118 78.1978 440.739 77.2511C440.171 75.7363 440.55 73.8429 440.55 72.3282C440.739 64.7546 442.065 57.5596 443.202 50.1753C443.581 47.9032 442.634 45.6311 440.171 44.8738C438.088 44.1164 435.246 45.2525 434.867 47.7139Z" fill="#37426F"/>
<path d="M419.903 85.3927C428.806 74.979 434.867 62.6718 442.255 51.122C443.581 49.2286 442.634 46.3885 440.739 45.2525C438.656 44.1164 436.193 44.8738 434.867 46.7672C427.859 57.5596 422.365 69.4881 413.841 79.3338C412.326 81.0379 412.137 83.6886 413.841 85.3927C415.357 86.9074 418.388 87.0968 419.903 85.3927Z" fill="#37426F"/>
<path d="M328.554 83.4993C329.312 76.683 330.448 69.8667 332.721 63.4292C333.668 60.7784 334.805 57.5596 336.889 55.6662C338.404 54.3408 340.109 53.5834 342.192 53.0154C341.435 53.2048 342.382 53.0154 342.761 53.0154C342.95 53.0154 343.329 53.2048 343.329 53.2048C344.276 53.5834 345.034 54.5301 345.413 55.0982C345.602 55.2875 345.791 55.6662 345.791 55.8555C345.981 56.4235 345.981 57.1809 346.17 57.9383C346.36 59.453 346.549 61.1571 346.739 62.6718C346.928 65.5119 347.117 68.5414 347.496 71.3815C347.875 74.6003 347.686 78.3871 349.39 81.4165C352.611 86.9074 358.483 88.6115 364.544 87.8541C366.817 87.4754 368.712 86.1501 368.712 83.6886C368.712 81.6059 366.817 79.1444 364.544 79.5231C363.597 79.7125 362.839 79.7125 361.892 79.7125C361.514 79.7125 361.135 79.7125 360.756 79.7125C360.756 79.7125 359.809 79.7125 360.377 79.7125C359.809 79.7125 359.24 79.5231 358.672 79.3338C359.43 79.7125 358.293 79.1444 358.104 78.9551C358.862 79.5231 358.104 78.7658 357.725 78.5764C357.536 78.3871 357.157 78.0084 356.967 77.8191C356.399 76.8724 356.399 75.547 356.21 74.6003C355.452 67.9733 355.831 60.7784 354.126 54.3408C352.421 48.0926 345.981 44.1164 339.73 45.4418C336.889 46.0098 334.047 47.5245 331.774 49.4179C328.933 51.69 327.228 55.0982 325.902 58.317C322.492 66.4586 320.977 75.1683 320.03 83.878C319.84 86.1501 322.114 88.0435 324.197 88.0435C326.66 87.6648 328.175 85.7714 328.554 83.4993Z" fill="#37426F"/>
<path d="M321.924 49.2286C321.356 60.5891 320.409 72.1388 320.03 83.4993C319.84 85.7714 322.114 87.6648 324.197 87.6648C326.66 87.6648 328.364 85.7714 328.364 83.4993C328.933 72.1388 329.69 60.5891 330.259 49.2286C330.448 46.9565 328.175 45.0631 326.091 45.0631C323.818 44.8738 322.114 46.7672 321.924 49.2286Z" fill="#37426F"/>
<path d="M384.191 86.7181C392.526 89.9369 403.134 86.3394 407.49 78.5764C410.9 72.5175 410.711 64.3759 408.438 57.9383C405.786 50.7433 399.914 44.4951 391.579 44.6844C382.297 44.8738 375.099 52.4474 372.258 60.7784C368.469 71.1921 374.152 82.5526 384.191 86.7181C386.275 87.6648 388.927 85.7714 389.495 83.6886C390.253 81.2272 388.738 79.3338 386.464 78.3871C384.002 77.4404 381.918 74.979 380.592 72.1388C380.782 72.7069 380.214 71.1921 380.214 71.3815C380.024 71.0028 380.024 70.8135 379.835 70.4348C379.645 70.0561 379.645 69.4881 379.456 69.1094C379.266 67.5947 379.456 69.4881 379.456 68.5414C379.456 67.784 379.456 67.0266 379.456 66.0799C379.456 65.8906 379.645 65.3226 379.456 65.8906C379.456 65.3226 379.645 64.7546 379.835 64.1865C380.592 61.5358 381.918 58.885 383.813 56.9916C385.896 54.7195 387.79 53.5834 390.632 53.0154C389.874 53.2048 391.2 53.0154 391.2 53.0154C391.579 53.0154 391.768 53.0154 392.147 53.0154C392.337 53.0154 393.663 53.2048 392.715 53.0154C393.094 53.0154 393.284 53.2048 393.663 53.2048C393.852 53.2048 394.231 53.3941 394.42 53.3941C395.557 53.5835 393.663 53.0154 394.61 53.3941C395.178 53.7728 395.746 53.9621 396.314 54.5302C395.557 53.9621 396.883 55.0982 397.072 55.2875C397.451 55.6662 397.83 56.0449 398.209 56.6129C397.64 55.8555 398.777 57.3703 398.777 57.7489C399.156 58.317 399.535 59.0743 399.724 59.6424C400.103 60.2104 399.345 58.6957 399.724 59.8317C399.913 60.2104 399.914 60.5891 400.103 60.9677C400.292 61.5358 400.482 62.1038 400.671 62.8611C400.861 63.4292 400.861 64.1865 401.05 64.7546C401.239 65.8906 401.05 63.8079 401.05 65.1332C401.05 65.5119 401.05 65.8906 401.239 66.2693C401.239 67.5947 401.239 68.9201 401.05 70.2454C401.239 69.2987 400.861 71.0028 400.861 71.1921C400.671 71.9495 400.482 72.5175 400.292 73.0855C400.292 73.0855 399.914 74.0323 400.103 73.4642C400.292 72.8962 399.724 74.0323 399.724 74.0323C399.345 74.7896 398.966 75.1683 398.777 75.547C397.64 76.8724 396.693 77.4404 394.799 78.3871C395.367 78.0084 394.041 78.5764 394.041 78.5764C393.663 78.7658 393.094 78.7658 392.715 78.9551C391.768 79.1445 391.768 79.1445 390.632 79.1445C390.253 79.1445 389.685 79.1445 389.306 79.1445C388.359 79.1445 389.495 79.1445 388.548 79.1445C387.601 78.9551 386.843 78.7658 385.896 78.3871C383.813 77.4404 381.161 79.3338 380.592 81.4165C380.592 84.0673 382.108 85.9607 384.191 86.7181Z" fill="#37426F"/>
<path d="M545.368 80.0912C546.315 84.8247 550.293 87.2861 554.839 87.4755C559.575 87.8541 563.742 85.3927 567.152 82.1739C573.592 75.9257 577.381 67.216 577.191 58.1276C577.002 49.0393 569.046 42.4123 559.954 44.8738C555.597 46.0098 552.377 49.0393 550.862 53.2048C549.157 57.749 550.293 63.2398 553.703 66.648C557.112 70.0561 562.606 71.7602 567.341 70.4348C572.077 69.2987 576.055 65.1332 576.812 60.2104C573.971 59.8317 571.319 59.453 568.478 59.0743C567.72 66.0799 565.258 74.0323 568.478 80.8485C571.698 87.6648 579.654 88.2328 586.284 86.7181C591.587 85.3927 589.314 77.2511 584.011 78.5764C582.495 78.9551 581.548 79.1445 580.222 79.1445C579.843 79.1445 579.464 79.1445 579.086 79.1445C579.275 79.1445 579.464 79.1445 579.086 79.1445C578.896 79.1445 578.517 78.9551 578.328 78.9551C578.328 78.9551 577.381 78.5764 577.76 78.7658C578.328 78.9551 576.434 77.8191 577.381 78.5764C577.002 78.3871 576.812 78.0084 576.434 77.6297C577.002 78.3871 576.244 77.4404 576.055 77.0617C576.055 76.8724 575.676 76.3043 575.865 76.8724C576.055 77.4404 575.676 76.4937 575.676 76.4937C575.486 76.115 575.487 75.547 575.297 75.1683C575.487 76.115 575.297 74.6003 575.297 74.4109C575.297 72.8962 575.486 71.3815 575.486 69.8668C575.865 66.2693 576.434 62.8611 576.812 59.2637C577.381 54.5302 569.236 53.3941 568.478 58.1276C568.099 60.2104 567.152 61.5358 565.637 62.2931C563.742 63.0505 561.848 62.6718 560.143 61.3464C558.817 60.3997 558.249 58.5063 558.628 56.8022C558.817 55.6662 559.196 55.0982 559.764 54.5302C560.333 54.1515 559.386 54.7195 559.954 54.3408C560.143 54.1515 560.522 53.9621 560.712 53.9621C561.469 53.5835 561.09 53.7728 562.037 53.3941C562.227 53.3941 562.416 53.2048 562.795 53.2048C563.553 53.0154 562.227 53.2048 562.985 53.2048C563.553 53.2048 564.121 53.2048 564.5 53.2048C563.932 53.2048 565.258 53.3941 565.447 53.3941C564.689 53.0154 566.394 54.1515 566.394 54.1515C567.91 55.2875 568.288 56.8022 568.288 58.885C568.288 64.3759 566.394 69.6774 562.985 74.0323C561.469 76.115 559.007 78.7658 556.355 79.3338C555.029 79.7125 554.65 79.3338 553.324 79.1445C553.324 79.1445 553.892 79.3338 553.513 79.1445C553.324 78.9551 553.324 78.9551 553.513 79.3338L553.324 79.1445C553.513 79.9018 553.324 78.9551 553.324 78.9551C553.324 79.5231 553.135 78.1978 553.135 78.1978C552.756 75.9257 549.914 74.6003 547.831 75.1683C545.936 75.547 544.8 77.8191 545.368 80.0912Z" fill="#37426F"/>
<path d="M621.539 161.613C621.539 161.424 621.725 161.235 621.725 160.857C621.911 160.101 621.539 161.235 621.725 161.046C622.097 160.479 622.283 159.912 622.655 159.345C623.213 158.588 622.283 159.534 622.841 158.966C623.027 158.777 623.213 158.399 623.584 158.21C623.77 158.021 623.956 157.832 624.142 157.643C624.142 157.643 623.584 158.021 623.956 157.832C624.328 157.643 624.886 157.265 625.258 157.076C625.444 157.076 625.63 156.887 625.816 156.887C626.373 156.697 626.745 156.508 627.303 156.508C626.745 156.508 627.861 156.508 628.047 156.508C628.047 156.508 628.79 156.508 628.418 156.508C628.047 156.508 628.976 156.697 629.162 156.697C628.79 156.508 629.72 157.076 629.72 157.076C629.348 156.697 630.278 157.832 630.278 157.643C630.65 158.21 631.021 158.966 631.021 159.534C631.207 161.235 631.207 164.071 631.021 166.151C631.021 168.609 630.835 169.555 630.278 171.824C630.092 172.58 629.72 173.903 629.534 174.092C629.534 173.903 629.162 174.849 629.162 175.038C628.976 175.605 628.604 175.983 628.418 176.55C627.489 178.063 626.745 179.387 625.072 179.954C624.7 180.143 623.399 180.332 622.655 180.521C622.469 180.521 622.097 180.521 621.911 180.521C621.911 180.521 620.238 180.521 621.167 180.521C621.911 180.521 620.796 180.332 620.61 180.332C621.539 180.521 620.238 180.143 620.052 179.954C619.866 179.765 618.751 179.008 619.308 179.387C618.936 179.008 618.565 178.63 618.193 178.441C617.821 177.874 618.565 178.819 618.193 178.252C618.007 178.063 617.821 177.307 618.007 178.063C617.263 175.983 615.218 174.471 612.801 175.038C610.756 175.605 609.083 178.063 609.826 180.332C610.942 183.357 612.987 185.626 615.776 187.328C618.379 188.84 620.982 189.218 623.956 188.84C627.489 188.462 630.65 187.139 633.067 184.303C635.112 181.845 636.599 179.387 637.715 176.361C639.76 171.067 639.946 164.639 639.388 158.966C639.016 155.185 637.157 151.971 634.182 149.702C631.393 147.622 627.861 147.433 624.514 148.189C619.308 149.513 615.032 153.861 613.545 159.155C612.057 164.639 620.052 166.908 621.539 161.613Z" fill="#37426F"/>
<path d="M661.327 151.592C657.422 147.433 652.031 147.244 647.011 149.513C645.151 150.458 643.478 151.782 641.991 153.105C640.503 154.807 639.574 156.508 638.644 158.588C634.368 167.664 633.066 181.845 643.292 187.517C648.126 190.164 653.704 188.84 658.91 188.462C661.141 188.273 663 186.571 663 184.303C663 182.223 661.141 179.765 658.91 180.143C656.679 180.332 654.633 180.521 652.402 180.71C651.659 180.71 650.729 180.899 649.985 180.899C649.614 180.899 649.428 180.899 649.056 180.899C648.87 180.899 648.684 180.899 648.684 180.899C647.94 180.899 649.242 181.088 648.87 180.899C648.684 180.71 648.312 180.71 648.126 180.71C647.94 180.71 647.754 180.521 647.568 180.521C647.382 180.332 646.453 179.765 647.011 180.143C646.639 179.954 646.267 179.576 646.081 179.197C645.895 179.008 645.337 178.252 645.523 178.63C645.709 179.008 645.151 178.063 645.151 178.063C644.966 177.685 644.78 177.307 644.594 176.929C644.966 177.685 644.594 176.739 644.408 176.55C644.222 176.172 644.222 175.983 644.222 175.605C644.036 175.038 644.222 174.66 644.222 175.416C644.222 174.282 644.036 173.147 644.222 172.013C644.222 169.744 644.594 167.475 645.337 165.206C645.895 163.693 646.639 161.992 647.568 160.29C647.754 160.101 647.94 159.912 647.94 159.723C647.568 160.101 647.568 160.29 647.94 159.723C648.126 159.534 648.498 159.155 648.684 158.966C648.87 158.777 649.614 158.21 649.056 158.588C649.8 158.021 650.543 157.643 651.287 157.265C651.659 157.076 651.101 157.265 651.101 157.265C651.287 157.265 651.473 157.076 651.845 157.076C652.217 156.887 652.774 156.887 653.332 156.697C652.588 156.887 653.518 156.697 653.89 156.697C654.448 156.697 653.704 156.697 653.704 156.697C653.89 156.697 654.076 156.887 654.448 156.887C654.448 156.887 655.005 157.076 654.634 156.887C654.076 156.697 655.005 157.076 655.191 157.265C655.191 157.265 655.749 157.643 655.377 157.454C655.005 157.265 655.935 158.021 655.935 158.021C657.422 159.723 660.211 159.534 661.884 158.021C662.814 155.941 662.814 153.105 661.327 151.592Z" fill="#37426F"/>
<path d="M157.476 188.462C142.045 192.244 125.312 196.971 117.503 212.664C114.528 218.525 112.855 225.899 116.016 231.95C119.176 238 126.427 238.756 132.191 236.487C142.974 232.328 146.693 221.361 148.738 210.962C150.969 199.429 152.642 187.895 154.13 176.361C155.059 168.231 155.989 160.101 156.919 151.971C157.105 149.891 155.059 148 153.2 147.811C150.969 147.622 149.296 148.756 148.552 150.836C145.577 158.966 144.276 168.042 140 175.416C137.955 178.63 135.352 181.088 131.633 182.034C129.96 182.412 127.171 182.601 125.87 182.223C124.01 181.655 123.639 180.899 123.824 178.441C124.01 169.933 124.94 161.424 126.985 153.105C128.287 147.811 120.106 145.542 118.99 150.836C116.945 159.723 116.016 168.609 115.644 177.685C115.458 181.655 116.016 185.437 119.176 188.084C121.779 190.164 124.94 191.109 128.101 191.109C134.05 191.109 139.628 189.029 143.718 184.681C147.623 180.521 149.854 175.227 151.713 169.933C153.572 164.45 154.874 158.588 156.919 153.105C154.13 152.727 151.527 152.349 148.738 151.971C146.693 167.853 145.206 183.357 142.603 199.239C141.301 206.992 140.557 215.878 136.467 222.307C135.166 224.197 133.678 226.088 131.819 227.412C130.704 228.168 129.588 228.546 128.472 228.924C127.915 229.113 127.357 229.113 126.613 229.113C126.241 229.113 125.684 229.113 125.312 229.113C124.568 229.113 126.241 229.303 124.94 229.113C124.568 229.113 124.568 229.113 124.01 228.546C123.638 228.168 123.267 227.601 123.267 227.034C122.709 225.143 122.895 223.063 123.453 220.794C127.729 204.534 145.763 200.185 159.893 196.782C164.913 195.458 162.682 187.328 157.476 188.462Z" fill="#37426F"/>
<path d="M340.238 186.193C340.982 179.387 342.098 172.58 344.329 166.151C345.258 163.504 346.374 160.29 348.419 158.399C349.906 157.076 351.58 156.319 353.625 155.752C352.881 155.941 353.811 155.752 354.183 155.752C354.368 155.752 354.74 155.941 354.74 155.941C355.67 156.319 356.414 157.265 356.785 157.832C356.971 158.021 357.157 158.399 357.157 158.588C357.343 159.155 357.343 159.912 357.529 160.668C357.901 162.37 358.087 164.071 358.459 165.962C358.831 168.609 359.017 171.445 359.017 174.092C359.017 176.929 358.831 179.954 359.946 182.601C362.363 188.84 368.685 191.298 374.82 190.353C377.051 189.975 378.91 188.651 378.91 186.193C378.91 184.113 377.051 181.655 374.82 182.034C373.519 182.223 372.217 182.412 370.916 182.223C371.473 182.223 369.986 182.034 369.8 181.845C369.614 181.845 369.056 181.466 369.614 181.845C369.428 181.655 369.056 181.655 368.87 181.466C368.127 181.088 368.685 181.277 368.685 181.466C368.499 181.277 368.313 181.088 368.127 180.899C368.499 181.277 367.755 180.332 367.569 179.954C367.755 180.521 367.569 179.765 367.569 179.765C367.569 179.387 367.383 179.197 367.383 178.819C367.197 178.252 367.197 177.874 367.383 177.118C367.383 170.5 367.011 163.315 365.338 156.887C363.665 150.647 357.343 146.676 351.208 148C348.419 148.567 345.63 150.08 343.399 151.971C340.61 154.239 338.937 157.643 337.635 160.857C334.289 168.987 332.801 177.685 331.872 186.382C331.686 188.651 333.917 190.542 335.962 190.542C338.379 190.542 339.867 188.462 340.238 186.193Z" fill="#37426F"/>
<path d="M334.475 151.971C332.43 174.66 330.57 197.538 328.711 220.227C328.339 224.765 327.967 229.303 327.596 233.651C327.41 235.92 329.641 237.811 331.686 237.811C334.103 237.811 335.59 235.92 335.776 233.651C337.821 210.962 339.681 188.084 341.54 165.395C341.912 160.857 342.283 156.319 342.655 151.971C342.841 149.702 340.61 147.811 338.565 147.811C336.148 147.622 334.661 149.702 334.475 151.971Z" fill="#37426F"/>
<path d="M192.616 151.971C189.083 148 183.692 146.676 178.672 148.567C176.626 149.324 174.395 150.647 172.908 152.349C171.421 154.05 170.677 156.13 169.747 158.21C165.657 167.664 164.356 182.223 174.581 188.462C179.415 191.487 185.737 189.975 190.942 189.408C193.174 189.218 195.033 187.706 195.033 185.248C195.033 183.168 193.174 180.71 190.942 181.088C188.711 181.277 186.294 181.655 184.063 181.845C183.134 181.845 182.39 182.034 181.46 182.034C181.089 182.034 180.717 182.034 180.345 182.034C180.159 182.034 179.973 182.034 179.787 182.034C179.229 182.034 180.531 182.223 179.973 182.034C179.601 181.845 179.229 181.845 179.043 181.655C179.601 181.845 178.858 181.466 178.672 181.466C178.486 181.277 178.3 181.277 178.114 181.088C177.556 180.71 178.486 181.466 178.114 181.088C177.742 180.71 177.556 180.521 177.184 180.143C176.626 179.576 177.37 180.332 176.998 179.765C176.812 179.387 176.441 179.008 176.255 178.63C176.255 178.441 175.697 177.496 175.883 177.874C176.069 178.252 175.883 177.685 175.883 177.685C175.883 177.496 175.697 177.118 175.697 176.929C175.511 176.55 175.511 176.361 175.511 175.983C175.325 175.038 175.511 176.361 175.511 175.794C175.511 174.66 175.325 173.525 175.511 172.391C175.511 169.933 175.883 167.664 176.441 165.395C176.998 163.315 177.742 161.803 178.672 159.723C178.858 159.534 179.043 159.345 179.043 159.155C179.229 158.777 178.858 159.345 178.858 159.534C179.043 159.345 179.043 159.345 179.043 159.155C179.229 158.966 179.601 158.588 179.787 158.399C180.159 158.021 179.229 158.588 180.159 158.21C180.531 158.021 180.903 157.643 181.275 157.454C181.46 157.454 181.646 157.265 181.832 157.265C181.46 157.454 181.46 157.454 181.832 157.265C182.204 157.076 182.762 157.076 183.134 156.887C183.134 156.887 183.877 156.887 183.32 156.887C182.762 156.887 183.506 156.887 183.692 156.887C183.877 156.887 184.063 156.887 184.249 156.887C184.993 156.887 183.877 156.697 184.435 156.887C184.807 157.076 185.365 157.076 185.737 157.265C184.993 156.887 186.294 157.643 186.48 157.832C186.109 157.454 187.038 158.588 187.224 158.777C188.711 160.479 191.686 160.29 193.174 158.777C194.289 156.319 194.103 153.672 192.616 151.971Z" fill="#37426F"/>
<path d="M234.634 186.382C235.378 179.576 235.75 172.769 237.795 166.34C238.725 163.504 239.84 160.29 241.885 158.399C243.373 157.076 245.046 156.508 247.091 155.941C246.162 156.13 247.277 155.941 247.649 155.941C247.091 155.941 248.764 156.319 248.393 156.13C249.508 156.697 250.252 157.454 250.81 158.21C250.996 158.399 251.181 158.588 251.181 158.966C250.996 158.21 251.181 158.777 251.181 158.966C251.367 159.534 251.367 160.101 251.367 160.857C251.553 162.559 251.553 164.071 251.367 165.773C251.181 168.609 250.81 171.634 250.81 174.471C250.81 177.874 250.996 181.655 252.855 184.681C253.97 186.382 255.644 188.462 257.503 189.597C260.478 191.487 264.01 191.109 267.357 190.542C269.588 190.164 270.889 187.328 270.331 185.248C269.588 182.79 267.357 182.034 265.126 182.223C264.382 182.223 263.824 182.412 263.081 182.412C262.709 182.412 262.523 182.412 262.151 182.412C261.407 182.412 262.709 182.601 262.151 182.412C261.965 182.412 261.593 182.223 261.407 182.223C261.593 182.223 262.151 182.601 261.593 182.223C261.407 182.034 261.035 181.845 261.779 182.412C261.593 182.223 261.407 182.034 261.221 181.845C259.92 180.332 259.548 179.197 259.362 177.307C258.618 170.5 260.664 163.693 259.176 157.076C257.689 150.647 250.624 146.487 244.488 147.811C241.513 148.378 238.725 150.08 236.308 151.971C233.519 154.24 232.031 157.643 230.73 160.857C227.569 168.987 227.197 177.685 226.268 186.193C226.082 188.462 228.313 190.353 230.358 190.353C232.775 190.542 234.263 188.651 234.634 186.382Z" fill="#37426F"/>
<path d="M204.143 151.971C203.027 163.315 202.098 174.849 200.982 186.193C200.796 188.462 203.027 190.353 205.073 190.353C207.49 190.353 208.977 188.462 209.163 186.193C210.278 174.849 211.208 163.315 212.324 151.971C212.51 149.702 210.278 147.811 208.233 147.811C205.816 147.811 204.329 149.702 204.143 151.971Z" fill="#37426F"/>
<path d="M211.394 165.962C211.766 165.017 212.138 164.261 212.696 163.315C212.882 162.937 213.068 162.559 213.253 162.181C213.439 161.803 213.997 161.235 213.439 161.803C214.555 160.479 215.856 159.345 217.158 158.21C217.53 157.832 216.972 158.21 216.972 158.399C217.158 158.21 217.344 158.021 217.53 158.021C217.902 157.832 218.273 157.643 218.645 157.454C219.575 156.887 219.761 156.887 220.876 156.508C221.806 156.319 222.55 155.941 223.479 155.941C224.037 155.941 224.781 155.752 225.338 155.941C224.967 155.941 225.153 155.941 225.153 155.941C225.338 155.941 225.338 155.941 225.153 155.941C224.967 155.941 224.967 155.941 225.153 155.941C225.338 156.13 225.524 156.13 225.524 156.319C225.71 156.508 225.71 156.697 225.896 156.697C226.082 157.076 226.268 157.454 226.454 157.832C226.64 158.021 227.012 159.155 226.826 158.399C227.012 159.155 227.198 159.723 227.384 160.479C227.57 161.235 227.384 160.101 227.384 160.29C227.384 160.668 227.384 160.857 227.384 161.235C227.57 164.828 227.384 168.42 227.384 172.013C227.198 176.739 226.826 181.466 226.454 186.193C226.268 188.462 228.499 190.353 230.544 190.353C232.961 190.353 234.635 188.462 234.635 186.193C235.006 181.466 235.378 176.739 235.564 172.013C235.75 168.042 235.936 164.071 235.564 160.101C235.006 155.752 232.961 150.836 229.057 148.378C226.454 146.866 223.293 147.244 220.504 147.811C218.087 148.378 215.485 149.324 213.439 150.647C209.163 153.483 206.188 157.076 204.143 161.613C203.214 163.693 203.585 166.151 205.631 167.475C207.49 168.609 210.465 168.042 211.394 165.962Z" fill="#37426F"/>
<path d="M500.876 150.836C499.574 157.832 498.273 164.828 498.087 171.824C497.901 175.605 497.343 179.954 499.574 183.357C501.247 186.193 504.222 188.084 507.383 188.84C512.96 190.164 519.84 189.029 524.674 185.626C529.322 182.223 531.925 177.307 533.784 171.824C535.829 165.773 536.573 159.345 537.874 153.105C538.246 150.836 537.316 148.567 534.899 147.811C532.854 147.244 530.251 148.567 529.694 150.836C528.764 155.752 527.834 160.857 526.719 165.962C526.347 167.097 526.161 168.231 525.789 169.366C525.603 169.933 525.417 170.5 525.231 170.878C525.231 171.067 525.045 171.256 525.045 171.634C524.674 172.58 525.231 171.067 524.86 172.013C524.488 172.958 523.93 173.903 523.372 174.849C523 175.416 522.814 175.794 522.443 176.172C521.885 176.74 522.257 176.361 522.443 176.172C522.257 176.361 522.071 176.739 521.885 176.929C521.513 177.307 521.141 177.685 520.769 178.063C520.583 178.252 520.397 178.441 520.211 178.63C520.397 178.441 520.955 178.063 520.211 178.63C519.84 178.819 519.468 179.197 518.91 179.387C518.724 179.576 518.352 179.576 518.166 179.765C517.98 179.954 517.051 180.332 517.98 179.954C517.051 180.332 515.935 180.71 515.006 180.899C514.634 180.899 514.448 181.088 514.076 181.088C514.262 181.088 514.82 181.088 513.89 181.088C513.146 181.088 512.403 181.277 511.659 181.277C510.915 181.277 510.172 181.277 509.428 181.277C510.358 181.277 509.428 181.277 508.87 181.088C508.684 181.088 508.312 180.899 508.126 180.899C507.569 180.71 508.87 181.466 507.941 180.899C507.755 180.71 507.569 180.71 507.383 180.521C507.197 180.332 506.453 179.765 507.011 180.332C506.825 180.143 506.639 179.954 506.453 179.765C507.011 180.332 506.453 179.765 506.267 179.576C506.081 179.387 505.895 178.63 506.081 179.387C506.081 179.197 505.895 178.819 505.895 178.63C506.081 179.387 505.895 178.63 505.895 178.441C505.895 177.874 505.895 177.307 505.895 176.929C505.895 175.794 505.895 174.849 505.895 173.714C506.081 166.529 507.197 160.857 508.498 153.861C508.87 151.592 507.941 149.324 505.524 148.567C504.036 147.433 501.433 148.567 500.876 150.836Z" fill="#37426F"/>
<path d="M473.917 150.836C472.243 157.265 471.314 163.693 471.128 170.122C470.942 173.525 470.384 177.685 471.5 181.088C472.615 184.492 475.032 186.95 478.379 188.273C483.027 190.164 489.162 189.218 493.625 187.328C499.388 184.87 503.292 179.765 505.524 173.903C506.825 170.311 507.011 166.151 507.383 162.37C507.569 160.101 505.338 158.21 503.293 158.21C500.876 158.21 499.388 160.101 499.202 162.37C498.83 165.017 498.83 167.853 498.273 170.5C498.273 170.689 498.273 170.689 498.273 170.878C498.459 170.5 498.459 169.933 498.087 170.878C497.901 171.256 497.901 171.634 497.715 171.824C497.343 172.58 496.599 173.903 496.041 174.849C495.856 175.227 495.67 175.416 495.484 175.794C495.67 175.605 495.856 175.227 495.298 175.983C494.926 176.361 494.554 176.739 494.182 177.118C493.81 177.496 493.439 177.874 493.067 178.252C493.625 177.685 492.323 178.63 492.323 178.819C491.951 179.008 491.393 179.387 491.022 179.576C490.836 179.576 490.278 179.954 490.65 179.765C491.208 179.576 490.464 179.765 490.278 179.954C489.348 180.332 488.233 180.521 487.303 180.71C487.303 180.71 486.188 180.899 486.745 180.71C487.303 180.71 486.559 180.71 486.374 180.71C485.816 180.71 485.444 180.71 484.886 180.71C484.328 180.71 483.957 180.71 483.399 180.71C483.213 180.71 482.841 180.71 482.655 180.71C482.097 180.521 482.097 180.71 482.655 180.71C482.283 180.521 481.725 180.521 481.354 180.332C480.61 180.143 481.168 180.332 481.354 180.332C481.168 180.143 480.982 180.143 480.796 179.954C480.238 179.765 480.61 179.765 480.796 179.954C480.61 179.765 480.424 179.576 480.238 179.387C479.68 179.008 480.052 179.197 480.238 179.387C480.238 179.387 479.68 178.252 479.866 179.008C479.68 178.819 479.494 177.496 479.494 178.063C479.494 177.307 479.494 176.55 479.494 175.794C479.494 174.092 479.494 172.391 479.68 170.689C479.866 164.261 480.61 159.345 482.283 153.105C483.399 147.811 475.218 145.542 473.917 150.836Z" fill="#37426F"/>
<path d="M530.065 151.025C528.95 156.697 528.02 162.559 527.091 168.231C526.347 172.202 525.789 176.172 526.533 180.143C527.091 183.546 528.95 186.571 532.111 187.895C536.387 189.975 541.221 189.218 545.683 188.273C547.914 187.706 549.215 185.248 548.658 182.979C548.1 180.71 545.683 179.576 543.452 179.954C541.221 180.521 540.477 180.71 538.246 180.521C537.874 180.521 537.316 180.521 536.944 180.521C536.015 180.521 537.688 180.71 536.944 180.521C536.573 180.332 536.201 180.332 535.829 180.332C535.085 180.143 536.573 180.899 536.015 180.332C535.829 180.143 535.457 179.954 535.271 179.765C535.643 179.954 535.829 180.332 535.457 179.765C534.713 178.819 535.643 180.521 535.457 179.765C535.457 179.576 535.271 179.387 535.085 179.197C534.713 178.63 535.271 180.143 535.085 179.197C535.085 179.008 534.899 178.63 534.899 178.441C534.899 178.252 534.713 177.118 534.713 178.063C534.899 178.819 534.713 177.685 534.713 177.496C534.713 175.983 534.713 174.66 534.899 173.147C534.899 172.958 535.085 171.824 534.899 172.958C534.899 172.391 535.085 172.013 535.085 171.445C535.271 170.5 535.457 169.555 535.643 168.609C536.759 163.504 537.316 158.399 538.246 153.294C538.804 151.025 537.502 148.756 535.271 148C533.226 147.433 530.623 148.756 530.065 151.025Z" fill="#37426F"/>
<path d="M287.994 160.046C288.366 159.101 288.18 159.29 288.738 158.345C288.924 157.966 289.11 157.777 289.296 157.399C289.296 157.399 290.225 156.265 289.667 157.021C290.597 156.076 291.155 155.697 292.27 155.319C294.873 154.752 298.22 155.319 300.079 157.399C302.496 160.235 302.124 163.828 302.31 167.231C302.31 170.634 302.682 174.416 301.195 177.252C300.451 178.576 299.521 179.521 298.592 180.088C298.592 180.088 297.29 180.655 298.034 180.466C297.848 180.655 297.476 180.655 297.29 180.655C296.918 180.845 296.547 180.845 295.989 181.034C295.059 181.223 296.175 181.034 295.431 181.034C293.758 181.034 291.898 180.845 290.039 181.223C290.597 181.223 290.969 181.223 290.411 181.223C290.225 181.223 289.296 180.845 290.225 181.223C290.039 181.034 289.667 181.034 289.481 180.845C289.296 180.845 289.11 180.655 289.11 180.466C289.481 180.655 289.481 180.845 289.11 180.466C289.11 180.466 288.18 179.521 288.552 180.088C288.924 180.466 288.18 179.521 288.18 179.521C287.994 178.954 287.994 179.332 287.994 178.765C288.18 177.252 288.738 175.929 289.853 174.983C290.411 174.605 289.296 175.172 290.225 174.794C289.481 175.172 290.969 174.605 290.969 174.605C291.713 174.416 292.456 174.416 293.2 174.416C294.873 174.416 296.547 174.794 298.034 175.739C301.566 177.819 303.983 181.601 306.772 184.626C309.933 188.029 313.465 190.109 318.114 190.109C323.505 190.109 323.505 181.601 318.114 181.601C317.742 181.601 316.812 181.601 316.626 181.601C316.626 181.601 315.882 181.412 315.697 181.223C315.511 181.034 315.139 181.034 314.953 180.845C314.953 180.845 314.395 180.466 314.767 180.655C314.953 180.845 314.395 180.277 314.395 180.277C312.722 178.765 311.048 176.874 309.561 175.172C306.029 171.202 302.124 167.42 296.732 166.475C293.944 165.908 290.969 165.908 287.994 166.664C285.205 167.42 283.16 169.311 281.673 171.769C278.698 176.307 278.698 182.546 282.602 186.517C285.949 189.92 290.039 190.298 294.501 189.92C299.707 189.542 304.169 187.651 307.33 183.113C310.305 178.954 310.491 173.66 310.491 168.555C310.305 162.882 310.305 157.399 306.772 152.672C302.868 147.567 296.361 146.055 290.411 147.189C284.833 148.324 281.673 152.861 279.813 157.966C279.07 160.046 280.743 162.693 282.788 163.261C285.019 163.639 287.25 162.126 287.994 160.046Z" fill="#37426F"/>
<path d="M387.649 175.038C396.573 177.307 407.728 178.441 413.678 169.555C416.095 165.962 416.653 161.046 415.351 157.076C413.864 152.727 410.517 149.702 406.427 148.378C402.336 147.055 397.874 147.433 393.97 149.134C390.066 151.025 387.277 154.618 385.789 158.588C382.443 166.908 383.372 177.874 389.322 184.681C392.111 187.895 396.015 189.597 400.291 190.164C405.497 190.92 410.145 190.92 415.351 190.164C417.582 189.786 418.884 186.95 418.326 184.87C417.582 182.412 415.351 181.655 413.12 181.845C410.145 182.223 407.17 182.223 404.196 182.034C402.894 181.845 401.593 181.655 400.291 181.466C399.734 181.277 398.99 181.088 398.432 180.899C398.246 180.899 397.688 180.521 398.246 180.899C397.874 180.71 397.503 180.521 397.131 180.332C396.945 180.143 396.759 180.143 396.387 179.954C396.945 180.332 396.387 179.954 396.201 179.765C395.643 179.387 395.271 178.819 394.9 178.252C394.714 178.063 394.342 177.496 394.156 177.118C393.784 176.361 393.412 175.794 393.226 175.038C392.297 172.013 392.111 168.609 392.483 165.395C392.854 162.748 393.97 159.912 395.457 158.21C396.945 156.508 398.804 155.752 401.221 155.752C403.452 155.752 405.497 156.508 406.985 158.21C406.799 157.832 407.356 158.966 407.542 159.345C407.542 159.155 407.728 160.668 407.728 160.479C407.914 161.613 407.728 162.559 407.356 163.693C406.985 164.45 406.241 165.584 405.497 166.151C404.196 167.097 402.708 167.664 401.221 167.853C397.688 168.42 393.598 167.475 390.066 166.529C384.674 165.395 382.443 173.525 387.649 175.038Z" fill="#37426F"/>
<path d="M55.345 169.85C54.7725 165.523 56.4114 160.716 59.6235 157.728C63.03 154.92 67.8589 154.697 71.6784 156.791C80.2808 161.693 79.4677 176.305 70.7275 180.495C66.1803 182.787 60.9188 181.706 57.7462 177.499C54.768 173.473 54.6829 167.61 54.8272 162.682C55.4698 152.431 60.0302 142.378 67.3393 135.415C71.7903 131.045 77.6025 127.936 80.6923 122.304C83.4455 117.445 84.6255 110.766 82.7006 105.366C80.7844 100.155 72.9029 102.791 74.8191 108.002C76.5409 113.033 74.0083 118.639 70.4422 122.022C65.6285 126.598 60.2139 130.255 56.1868 135.741C48.3183 146.705 44.693 160.879 47.3564 174.195C48.794 181.132 53.5398 187.158 60.1626 189.501C66.9712 191.836 74.6669 189.209 79.6576 184.435C89.4534 174.896 86.8906 155.709 74.8752 149.451C68.5802 146.146 60.2224 146.533 54.48 151.152C48.9234 155.762 45.5583 163.489 46.4475 170.641C47.612 175.697 55.9698 175.31 55.345 169.85Z" fill="#37426F"/>
<path d="M433.2 165.206C434.129 158.399 440.451 154.618 446.958 154.996C454.023 155.374 458.485 163.504 457.37 170.122C456.254 176.55 451.42 180.899 445.099 181.277C443.239 181.277 442.496 181.466 441.008 180.899C439.521 180.332 438.034 179.387 436.918 178.063C434.501 175.605 433.386 171.256 433.2 167.853C433.014 164.071 433.943 160.479 434.501 156.508C435.245 152.727 435.988 148.945 436.918 145.164C438.963 137.79 442.124 130.794 445.656 123.987C448.259 119.261 452.35 113.399 457.741 111.697C458.299 111.508 458.857 111.319 459.601 111.319C459.972 111.319 460.53 111.319 460.716 111.319C460.53 111.319 460.158 111.319 459.972 111.13H460.158C460.344 111.13 461.46 111.508 460.716 111.319C460.158 111.13 461.274 111.697 461.46 111.697C461.832 111.887 462.575 112.454 461.832 111.887C462.204 112.265 462.389 112.454 462.761 112.832C462.947 113.021 463.505 113.777 463.505 114.345C463.505 114.534 463.691 114.912 463.691 115.101C463.505 114.345 463.691 115.29 463.691 115.668C463.691 115.857 463.505 116.424 463.691 115.857C463.691 116.235 463.505 116.613 463.319 116.992C462.761 118.504 461.646 120.017 460.53 121.151C460.158 121.529 459.787 121.908 459.415 122.286C459.229 122.475 457.741 123.798 458.299 123.42C458.671 123.042 457.555 123.798 457.37 123.987C456.626 124.366 456.44 124.366 456.068 124.555C455.324 124.933 454.395 125.122 453.651 125.5C450.305 126.634 446.958 127.58 443.611 128.525C440.822 129.471 437.662 130.227 435.245 131.929C430.783 134.954 435.059 142.328 439.521 139.303C440.822 138.357 441.008 138.357 442.31 137.979C444.169 137.223 446.028 136.845 447.888 136.277C451.606 135.143 455.324 134.197 458.857 132.685C466.108 129.849 473.359 121.718 472.057 113.21C471.128 107.916 466.294 103 460.902 102.622C451.792 102.055 444.355 109.996 439.893 117.181C435.059 124.933 431.34 133.819 428.923 142.706C427.622 147.433 426.692 152.16 425.949 156.887C425.205 161.803 424.461 166.34 425.205 171.256C426.135 176.361 428.366 181.655 432.456 185.059C436.546 188.462 441.008 189.786 446.214 189.408C455.51 188.651 462.947 182.223 465.178 173.147C468.153 161.803 461.274 148.378 449.375 146.487C438.963 144.786 426.692 151.403 425.205 162.559C424.833 164.828 425.763 167.097 428.18 167.853C430.039 168.798 432.828 167.475 433.2 165.206Z" fill="#37426F"/>
<path d="M560.743 151.025C558.883 158.399 557.582 165.773 557.21 173.147C557.024 177.496 556.838 181.845 559.999 185.248C562.23 187.706 565.391 188.84 568.551 189.218C574.501 189.597 580.45 187.706 584.912 183.735C588.817 180.143 591.234 174.849 592.907 169.933C594.766 164.45 595.882 158.966 597.555 153.483C594.952 152.727 592.163 151.971 589.561 151.214C587.701 160.857 583.797 171.067 586.4 180.899C587.329 184.303 589.189 187.328 592.721 188.651C596.254 189.975 600.158 189.218 603.691 188.651C605.922 188.273 607.223 185.437 606.665 183.357C605.922 180.899 603.691 179.954 601.46 180.332C600.158 180.521 598.857 180.71 597.555 180.71C597.183 180.71 596.997 180.71 596.626 180.71C596.626 180.71 595.51 180.521 595.882 180.71C596.44 180.71 594.766 180.332 595.138 180.521C595.696 180.71 594.952 180.332 594.952 180.332C594.766 179.954 595.324 180.71 594.952 180.332C594.58 179.954 595.324 180.899 594.952 180.332C594.766 180.143 594.766 179.954 594.58 179.765C594.209 179.197 594.766 180.332 594.58 179.576C594.394 179.197 594.395 179.008 594.395 178.63C594.209 177.874 594.023 177.118 593.837 176.361C592.907 168.609 595.882 160.857 597.369 153.294C598.299 148 591.048 145.731 589.375 151.025C588.073 155.185 587.144 159.345 586.028 163.504C584.727 168.042 583.611 171.256 581.194 175.038C580.636 175.983 578.777 177.874 577.847 178.441C575.988 179.765 574.873 180.143 572.456 180.521C572.827 180.521 571.34 180.71 571.154 180.71C570.596 180.71 569.853 180.71 569.295 180.71C568.551 180.71 567.622 180.521 567.064 180.143C566.506 179.765 565.948 179.387 565.762 178.819C565.205 177.496 565.577 175.605 565.577 174.092C565.762 166.908 567.064 159.912 568.737 153.105C570.039 148 562.044 145.731 560.743 151.025Z" fill="#37426F"/>
<path d="M12.8286 188.895C21.0092 192.109 31.4209 188.517 35.6971 180.765C39.0437 174.525 39.0437 166.395 36.6267 159.966C34.0238 152.782 28.2602 146.542 20.0796 146.731C10.9694 146.92 3.9043 154.483 1.11546 162.803C-2.41706 173.391 2.97469 184.546 12.8286 188.895C14.8737 189.84 17.4767 187.95 18.0344 185.87C18.7781 183.412 17.2907 181.521 15.0597 180.576C12.6427 179.63 10.5975 177.172 9.29606 174.336C9.48198 174.903 8.92421 173.391 8.92421 173.58C8.73829 173.202 8.73829 173.013 8.55237 172.634C8.36645 172.256 8.36645 171.689 8.18052 171.311C7.9946 169.798 8.18052 171.689 8.18052 170.744C8.18052 169.987 8.18052 169.231 8.18052 168.286C8.18052 168.097 8.36645 167.529 8.18052 168.097C8.18052 167.529 8.36645 166.962 8.55237 166.395C9.29606 163.748 10.5975 161.101 12.4567 159.21C14.5019 156.941 16.3611 155.807 19.15 155.239C18.4063 155.429 19.7077 155.239 19.7077 155.239C20.0796 155.239 20.2655 155.239 20.6373 155.239C20.8233 155.239 22.1247 155.429 21.1951 155.239C21.5669 155.239 21.7529 155.429 22.1247 155.429C22.3106 155.429 22.6825 155.618 22.8684 155.618C23.9839 155.807 22.1247 155.239 23.0543 155.618C23.6121 155.996 24.1699 156.185 24.7276 156.752C23.9839 156.185 25.2854 157.319 25.4713 157.508C25.8432 157.887 26.215 158.265 26.5869 158.832C26.0291 158.076 27.1446 159.588 27.1446 159.966C27.5165 160.534 27.8883 161.29 28.0742 161.857C28.4461 162.424 27.7024 160.912 28.0742 162.046C28.2602 162.424 28.2602 162.803 28.4461 163.181C28.632 163.748 28.8179 164.315 29.0039 165.071C29.1898 165.639 29.1898 166.395 29.3757 166.962C29.5616 168.097 29.3757 166.017 29.3757 167.34C29.3757 167.718 29.3757 168.097 29.5616 168.475C29.5616 169.798 29.5616 171.122 29.3757 172.445C29.5616 171.5 29.1898 173.202 29.1898 173.391C29.0039 174.147 28.8179 174.714 28.632 175.282C28.632 175.282 28.2602 176.227 28.4461 175.66C28.632 175.092 28.0742 176.227 28.0742 176.227C27.7024 176.983 27.3306 177.361 27.1446 177.739C26.0291 179.063 25.0995 179.63 23.2403 180.576C23.798 180.197 22.4966 180.765 22.4966 180.765C22.1247 180.954 21.5669 180.954 21.1951 181.143C20.8233 181.521 20.8233 181.521 19.7077 181.521C19.3359 181.521 18.7781 181.521 18.4063 181.521C17.4767 181.521 18.5922 181.521 17.6626 181.521C16.733 181.332 15.9893 181.143 15.0597 180.765C13.0145 179.819 10.5975 181.521 10.0397 183.601C9.29606 186.059 10.7834 187.95 12.8286 188.895Z" fill="#37426F"/>
</svg>
